<svg width="60" height="70" viewBox="0 0 60 70" fill="none" xmlns="http://www.w3.org/2000/svg">
<path d="M0 30C0 13.4315 13.4315 0 30 0C46.5685 0 60 13.4315 60 30V70H0V30Z" fill="#F5EBE2"/>
<path d="M17.1668 46.8332C16.3189 46.8332 15.5933 46.5315 14.99 45.9282C14.3867 45.3249 14.0845 44.5988 14.0835 43.7498V25.2498C14.0835 24.4019 14.3857 23.6763 14.99 23.073C15.5943 22.4697 16.3199 22.1675 17.1668 22.1665H41.8335C42.6814 22.1665 43.4075 22.4687 44.0119 23.073C44.6162 23.6773 44.9179 24.4029 44.9168 25.2498V43.7498C44.9168 44.5978 44.6152 45.3239 44.0119 45.9282C43.4086 46.5325 42.6824 46.8342 41.8335 46.8332H17.1668ZM29.5002 36.0415L17.1668 28.3332V43.7498H41.8335V28.3332L29.5002 36.0415ZM29.5002 32.9582L41.8335 25.2498H17.1668L29.5002 32.9582ZM17.1668 28.3332V25.2498V43.7498V28.3332Z" fill="#2C3812"/>
</svg>
