<svg width="60" height="70" viewBox="0 0 60 70" fill="none" xmlns="http://www.w3.org/2000/svg">
<path d="M0 30C0 13.4315 13.4315 0 30 0C46.5685 0 60 13.4315 60 30V70H0V30Z" fill="#F5EBE2"/>
<path d="M21.0825 23.7083C21.175 25.0804 21.4062 26.4217 21.7762 27.7013L19.9262 29.5512C19.2942 27.7012 18.8933 25.7433 18.7546 23.7083H21.0825ZM36.2833 42.2392C37.5937 42.6092 38.935 42.8404 40.2917 42.9329V45.23C38.2567 45.0912 36.2987 44.6904 34.4333 44.0737L36.2833 42.2392ZM22.5625 20.625H17.1667C16.3187 20.625 15.625 21.3187 15.625 22.1667C15.625 36.6429 27.3571 48.375 41.8333 48.375C42.6812 48.375 43.375 47.6812 43.375 46.8333V41.4529C43.375 40.605 42.6812 39.9112 41.8333 39.9112C39.9217 39.9112 38.0562 39.6029 36.3296 39.0325C36.1765 38.977 36.0144 38.9508 35.8517 38.9554C35.4508 38.9554 35.0654 39.1096 34.7571 39.4025L31.3654 42.7942C26.9954 40.5593 23.4406 37.0046 21.2058 32.6346L24.5975 29.2429C25.0292 28.8112 25.1525 28.21 24.9829 27.6704C24.3981 25.8945 24.1014 24.0364 24.1042 22.1667C24.1042 21.3187 23.4104 20.625 22.5625 20.625Z" fill="#2C3812"/>
</svg>
