<svg width="60" height="70" viewBox="0 0 60 70" fill="none" xmlns="http://www.w3.org/2000/svg">
<path d="M0 30C0 13.4315 13.4315 0 30 0C46.5685 0 60 13.4315 60 30V70H0V30Z" fill="#F5EBE2"/>
<g clip-path="url(#clip0_1049_30681)">
<path fill-rule="evenodd" clip-rule="evenodd" d="M44.6701 25.3365C44.7373 24.9284 44.6939 24.5098 44.5444 24.1242C44.3948 23.7387 44.1446 23.4003 43.8198 23.1443C43.495 22.8883 43.1075 22.724 42.6977 22.6687C42.2878 22.6134 41.8707 22.669 41.4896 22.8297L15.1271 33.9297C13.2894 34.7037 13.1954 37.3615 15.1271 38.1632C17.0399 38.9609 18.9805 39.69 20.9454 40.3492C22.746 40.9443 24.7101 41.4947 26.2842 41.6504C26.7143 42.1653 27.2554 42.6617 27.8073 43.115C28.6506 43.8087 29.665 44.5225 30.7134 45.207C32.8131 46.5791 35.1426 47.8911 36.712 48.7452C38.5882 49.7627 40.8344 48.591 41.1705 46.5452L44.6701 25.3365ZM18.0825 36.031L41.3987 26.2137L38.1334 46.0087C36.5933 45.1716 34.3748 43.9182 32.3984 42.6263C31.4875 42.0414 30.608 41.409 29.7637 40.7316C29.538 40.5472 29.319 40.3549 29.1069 40.155L35.2135 34.05C35.5028 33.7609 35.6654 33.3688 35.6655 32.9598C35.6657 32.5508 35.5033 32.1586 35.2143 31.8693C34.9252 31.58 34.533 31.4174 34.1241 31.4173C33.7151 31.4171 33.3229 31.5795 33.0336 31.8685L26.3474 38.5547C25.2158 38.4098 23.6402 37.9905 21.9104 37.4201C20.6227 36.9911 19.3467 36.5274 18.084 36.0295L18.0825 36.031Z" fill="#2C3812"/>
</g>
<defs>
<clipPath id="clip0_1049_30681">
<rect width="37" height="37" fill="white" transform="translate(11 16)"/>
</clipPath>
</defs>
</svg>
