<svg aria-hidden="true" style="position: absolute; width: 0; height: 0; overflow: hidden;" version="1.1"
    xmlns="http://www.w3.org/2000/svg" xmlns:xlink="http://www.w3.org/1999/xlink">
    <defs>
        <symbol id="Austria" viewBox="0 0 44 32">
            <path fill="#fff" style="fill: var(--color1, #fff)"
                d="M39.81 0h-35.619c-2.314 0-4.19 1.91-4.19 4.267v23.467c0 2.356 1.876 4.267 4.19 4.267h35.619c2.314 0 4.19-1.91 4.19-4.267v-23.467c0-2.356-1.876-4.267-4.19-4.267z">
            </path>
            <path fill="#f93939" style="fill: var(--color2, #f93939)" d="M0 22h44v10h-44v-10zM0 0h44v10h-44v-10z">
            </path>
        </symbol>
        <symbol id="France" viewBox="0 0 44 32">
            <path fill="#fff" style="fill: var(--color1, #fff)"
                d="M4 0h36c2.209 0 4 1.791 4 4v24c0 2.209-1.791 4-4 4h-36c-2.209 0-4-1.791-4-4v-24c0-2.209 1.791-4 4-4z">
            </path>
            <path fill="#1a47b8" style="fill: var(--color3, #1a47b8)" d="M0 0h14v32h-14v-32z"></path>
            <path fill="#f93939" style="fill: var(--color2, #f93939)" d="M30 0h14v32h-14v-32z"></path>
        </symbol>
        <symbol id="Georgia" viewBox="0 0 44 32">
            <path fill="#fff" style="fill: var(--color1, #fff)"
                d="M4 0h36c2.209 0 4 1.791 4 4v24c0 2.209-1.791 4-4 4h-36c-2.209 0-4-1.791-4-4v-24c0-2.209 1.791-4 4-4z">
            </path>
            <path fill="#f93939" style="fill: var(--color2, #f93939)"
                d="M18.857 19.2h-18.857v-6.4h18.857v-12.8h6.286v12.8h18.857v6.4h-18.857v12.8h-6.286v-12.8z"></path>
            <path fill="#f93939" style="fill: var(--color2, #f93939)"
                d="M31.429 23.467h-2.095v2.133h2.095v2.133h2.095v-2.133h2.095v-2.133h-2.095v-2.133h-2.095v2.133zM31.429 6.4h-2.095v2.133h2.095v2.133h2.095v-2.133h2.095v-2.133h-2.095v-2.133h-2.095v2.133zM10.476 6.4h-2.095v2.133h2.095v2.133h2.095v-2.133h2.095v-2.133h-2.095v-2.133h-2.095v2.133zM10.476 23.467h-2.095v2.133h2.095v2.133h2.095v-2.133h2.095v-2.133h-2.095v-2.133h-2.095v2.133z">
            </path>
        </symbol>
        <symbol id="Germany" viewBox="0 0 44 32">
            <path fill="#f93939" style="fill: var(--color2, #f93939)"
                d="M4 0h36c2.209 0 4 1.791 4 4v24c0 2.209-1.791 4-4 4h-36c-2.209 0-4-1.791-4-4v-24c0-2.209 1.791-4 4-4z">
            </path>
            <path fill="#ffda2c" style="fill: var(--color4, #ffda2c)" d="M0 22h46v10h-46v-10z"></path>
            <path fill="#151515" style="fill: var(--color5, #151515)" d="M0 0h46v10h-46v-10z"></path>
        </symbol>
        <symbol id="Italy" viewBox="0 0 44 32">
            <path fill="#fff" style="fill: var(--color1, #fff)"
                d="M4 0h36c2.209 0 4 1.791 4 4v24c0 2.209-1.791 4-4 4h-36c-2.209 0-4-1.791-4-4v-24c0-2.209 1.791-4 4-4z">
            </path>
            <path fill="#249f58" style="fill: var(--color6, #249f58)" d="M0 0h14v32h-14v-32z"></path>
            <path fill="#f93939" style="fill: var(--color2, #f93939)" d="M30 0h14v32h-14v-32z"></path>
        </symbol>
        <symbol id="Spain" viewBox="0 0 44 32">
            <path fill="#f93939" style="fill: var(--color2, #f93939)"
                d="M4 0h36c2.209 0 4 1.791 4 4v24c0 2.209-1.791 4-4 4h-36c-2.209 0-4-1.791-4-4v-24c0-2.209 1.791-4 4-4z">
            </path>
            <path fill="#f93939" style="fill: var(--color2, #f93939)"
                d="M39.81 0h-35.619c-2.314 0-4.19 1.91-4.19 4.267v23.467c0 2.356 1.876 4.267 4.19 4.267h35.619c2.314 0 4.19-1.91 4.19-4.267v-23.467c0-2.356-1.876-4.267-4.19-4.267z">
            </path>
            <path fill="#ffda2c" style="fill: var(--color4, #ffda2c)" d="M0 8.533h44v14.933h-44v-14.933z"></path>
            <path fill="#d4af2c" style="fill: var(--color7, #d4af2c)"
                d="M18.857 13.274v5.376c0 1.493-1.408 2.688-3.143 2.688h-4.19c-1.731-0.004-3.143-1.205-3.143-2.692v-5.376c0-1.22 0.939-2.24 2.229-2.571 0.39-1.109 1.588-0.115 3.009-0.115 1.429 0 2.619-0.988 3.009 0.117 1.286 0.339 2.229 1.361 2.229 2.573z">
            </path>
            <path fill="#cbcbcb" style="fill: var(--color8, #cbcbcb)"
                d="M18.857 14.933h2.095v6.4h-2.095v-6.4zM6.286 14.933h2.095v6.4h-2.095v-6.4z"></path>
            <path fill="#1a47b8" style="fill: var(--color3, #1a47b8)"
                d="M18.857 19.2h2.095v2.133h-2.095v-2.133zM6.286 19.2h2.095v2.133h-2.095v-2.133z"></path>
            <path fill="#d4af2c" style="fill: var(--color7, #d4af2c)"
                d="M18.857 12.8h2.095v2.133h-2.095v-2.133zM6.286 12.8h2.095v2.133h-2.095v-2.133z"></path>
            <path fill="#af010d" style="fill: var(--color9, #af010d)"
                d="M10.476 12.8h2.095v3.2h-2.095v-3.2zM14.667 17.067h2.095v3.2h-2.095v-3.2z"></path>
            <path fill="#ae6a3e" style="fill: var(--color10, #ae6a3e)" d="M14.667 12.8h2.095v3.2h-2.095v-3.2z"></path>
            <path fill="#ffda2c" style="fill: var(--color4, #ffda2c)" d="M10.476 17.067h2.095v3.2h-2.095v-3.2z"></path>
            <path fill="#af010d" style="fill: var(--color9, #af010d)"
                d="M12.571 12.8l-2.095-2.133h6.286l-2.095 2.133h-2.095z"></path>
            <path fill="#d4af2c" style="fill: var(--color7, #d4af2c)" d="M12.571 8.533h2.095v2.133h-2.095v-2.133z">
            </path>
        </symbol>
        <symbol id="Ukraine" viewBox="0 0 44 32">
            <path fill="#ffda2c" style="fill: var(--color4, #ffda2c)"
                d="M4 0h36c2.209 0 4 1.791 4 4v24c0 2.209-1.791 4-4 4h-36c-2.209 0-4-1.791-4-4v-24c0-2.209 1.791-4 4-4z">
            </path>
            <path fill="#3a99ff" style="fill: var(--color11, #3a99ff)" d="M0 0h44v16h-44v-16z"></path>
        </symbol>
        <symbol id="USA" viewBox="0 0 44 32">
            <path fill="#fff" style="fill: var(--color1, #fff)"
                d="M4 0h36c2.209 0 4 1.791 4 4v24c0 2.209-1.791 4-4 4h-36c-2.209 0-4-1.791-4-4v-24c0-2.209 1.791-4 4-4z">
            </path>
            <path fill="#1a47b8" style="fill: var(--color3, #1a47b8)" d="M0 0h18.857v14.933h-18.857v-14.933z"></path>
            <path fill="#f93939" style="fill: var(--color2, #f93939)"
                d="M18.857 0v2.133h25.143v-2.133h-25.143zM18.857 4.267v2.133h25.143v-2.133h-25.143zM18.857 8.533v2.133h25.143v-2.133h-25.143zM18.857 12.8v2.133h25.143v-2.133h-25.143zM0 17.067v2.133h44v-2.133h-44zM0 21.333v2.133h44v-2.133h-44zM0 25.6v2.133h44v-2.133h-44zM0 29.867v2.133h44v-2.133h-44z">
            </path>
            <path fill="#fff" style="fill: var(--color1, #fff)"
                d="M2.095 2.133v2.133h2.095v-2.133h-2.095zM6.286 2.133v2.133h2.095v-2.133h-2.095zM10.476 2.133v2.133h2.095v-2.133h-2.095zM14.667 2.133v2.133h2.095v-2.133h-2.095zM12.571 4.267v2.133h2.095v-2.133h-2.095zM8.381 4.267v2.133h2.095v-2.133h-2.095zM4.19 4.267v2.133h2.095v-2.133h-2.095zM2.095 6.4v2.133h2.095v-2.133h-2.095zM6.286 6.4v2.133h2.095v-2.133h-2.095zM10.476 6.4v2.133h2.095v-2.133h-2.095zM14.667 6.4v2.133h2.095v-2.133h-2.095zM2.095 10.667v2.133h2.095v-2.133h-2.095zM6.286 10.667v2.133h2.095v-2.133h-2.095zM10.476 10.667v2.133h2.095v-2.133h-2.095zM14.667 10.667v2.133h2.095v-2.133h-2.095zM12.571 8.533v2.133h2.095v-2.133h-2.095zM8.381 8.533v2.133h2.095v-2.133h-2.095zM4.19 8.533v2.133h2.095v-2.133h-2.095z">
            </path>
        </symbol>
    </defs>
</svg>