<svg width="16" height="10" viewBox="0 0 37 37" fill="none" xmlns="http://www.w3.org/2000/svg">
<path d="M34.0884 9.97155L22.5259 3.61217C22.3552 3.51824 22.1635 3.46899 21.9686 3.46899C21.7738 3.46899 21.5821 3.51824 21.4113 3.61217L9.84882 9.97155C9.66754 10.0714 9.51636 10.218 9.41107 10.3962C9.30579 10.5743 9.25024 10.7775 9.25024 10.9844C9.25024 11.1914 9.30579 11.3945 9.41107 11.5727C9.51636 11.7508 9.66754 11.8975 9.84882 11.9973L20.2943 17.7422C20.6138 17.9179 20.8124 18.2537 20.8124 18.6184V28.7296C20.8124 29.4902 19.9969 29.9724 19.3304 29.6058L18.1779 28.9718C17.6941 28.7057 17.0862 28.8821 16.8199 29.3657L16.6699 29.6383C16.4034 30.1222 16.5799 30.7305 17.0639 30.9968L21.4113 33.3879C21.582 33.4821 21.7737 33.5314 21.9686 33.5314C22.1635 33.5314 22.3553 33.4821 22.5259 33.3879L34.0884 27.0285C34.2698 26.9288 34.421 26.7822 34.5264 26.604C34.6318 26.4258 34.6874 26.2227 34.6874 26.0157V10.9844C34.6874 10.7774 34.6318 10.5743 34.5264 10.3961C34.421 10.2179 34.2698 10.0713 34.0884 9.97155ZM21.4868 6.21046C21.7868 6.04546 22.1504 6.04546 22.4505 6.21046L29.5385 10.1082C30.2293 10.4881 30.2293 11.4808 29.5385 11.8607L22.4505 15.7584C22.1504 15.9234 21.7868 15.9234 21.4868 15.7584L14.3988 11.8607C13.708 11.4808 13.708 10.4881 14.3988 10.1082L21.4868 6.21046ZM32.3749 24.7411C32.3749 25.1057 32.1764 25.4415 31.8568 25.6173L24.6068 29.6048C23.9404 29.9713 23.1249 29.4892 23.1249 28.7286V18.6173C23.1249 18.2526 23.3234 17.9168 23.643 17.741L30.893 13.7535C31.5594 13.387 32.3749 13.8692 32.3749 14.6298V24.7411Z" fill="#2C3812"/>
<path d="M11.5625 17.5C11.5625 18.0523 11.1148 18.5 10.5625 18.5H3.3125C2.76022 18.5 2.3125 18.0523 2.3125 17.5V17.1875C2.3125 16.6352 2.76022 16.1875 3.3125 16.1875H10.5625C11.1148 16.1875 11.5625 16.6352 11.5625 17.1875V17.5ZM13.875 26.75C13.875 27.3023 13.4273 27.75 12.875 27.75H5.625C5.07272 27.75 4.625 27.3023 4.625 26.75V26.4375C4.625 25.8852 5.07272 25.4375 5.625 25.4375H12.875C13.4273 25.4375 13.875 25.8852 13.875 26.4375V26.75ZM16.1875 22.125C16.1875 22.6773 15.7398 23.125 15.1875 23.125H7.9375C7.38522 23.125 6.9375 22.6773 6.9375 22.125V21.8125C6.9375 21.2602 7.38522 20.8125 7.9375 20.8125H15.1875C15.7398 20.8125 16.1875 21.2602 16.1875 21.8125V22.125Z" fill="#2C3812"/>
</svg>
