<svg width="32" height="18" viewBox="0 0 37 35" fill="none" xmlns="http://www.w3.org/2000/svg">
<path d="M3.08333 10.2083V9.47913C2.8789 9.47913 2.68283 9.55595 2.53827 9.69269C2.39371 9.82944 2.3125 10.0149 2.3125 10.2083H3.08333ZM20.0417 10.2083H20.8125C20.8125 10.0149 20.7313 9.82944 20.5867 9.69269C20.4422 9.55595 20.2461 9.47913 20.0417 9.47913V10.2083ZM20.0417 13.125V12.3958C19.8372 12.3958 19.6412 12.4726 19.4966 12.6094C19.352 12.7461 19.2708 12.9316 19.2708 13.125H20.0417ZM3.08333 10.9375H20.0417V9.47913H3.08333V10.9375ZM19.2708 10.2083V27.7083H20.8125V10.2083H19.2708ZM3.85417 24.7916V10.2083H2.3125V24.7916H3.85417ZM20.0417 13.8541H27.75V12.3958H20.0417V13.8541ZM33.1458 18.9583V24.7916H34.6875V18.9583H33.1458ZM20.8125 27.7083V13.125H19.2708V27.7083H20.8125ZM29.3842 29.2541C28.9506 29.6638 28.3628 29.8939 27.75 29.8939C27.1372 29.8939 26.5494 29.6638 26.1158 29.2541L25.0243 30.2866C25.3822 30.6253 25.8072 30.8939 26.2748 31.0772C26.7425 31.2605 27.2438 31.3548 27.75 31.3548C28.2562 31.3548 28.7575 31.2605 29.2252 31.0772C29.6928 30.8939 30.1178 30.6253 30.4757 30.2866L29.3842 29.2541ZM26.1158 26.1625C26.5494 25.7528 27.1372 25.5227 27.75 25.5227C28.3628 25.5227 28.9506 25.7528 29.3842 26.1625L30.4757 25.13C30.1178 24.7913 29.6928 24.5227 29.2252 24.3394C28.7575 24.1561 28.2562 24.0618 27.75 24.0618C27.2438 24.0618 26.7425 24.1561 26.2748 24.3394C25.8072 24.5227 25.3822 24.7913 25.0243 25.13L26.1158 26.1625ZM10.8842 29.2541C10.4506 29.6638 9.86281 29.8939 9.25 29.8939C8.63719 29.8939 8.04943 29.6638 7.61583 29.2541L6.52433 30.2866C6.88224 30.6253 7.30716 30.8939 7.77484 31.0772C8.24251 31.2605 8.74378 31.3548 9.25 31.3548C9.75622 31.3548 10.2575 31.2605 10.7252 31.0772C11.1928 30.8939 11.6178 30.6253 11.9757 30.2866L10.8842 29.2541ZM7.61583 26.1625C8.04943 25.7528 8.63719 25.5227 9.25 25.5227C9.86281 25.5227 10.4506 25.7528 10.8842 26.1625L11.9757 25.13C11.6178 24.7913 11.1928 24.5227 10.7252 24.3394C10.2575 24.1561 9.75622 24.0618 9.25 24.0618C8.74378 24.0618 8.24251 24.1561 7.77484 24.3394C7.30716 24.5227 6.88224 24.7913 6.52433 25.13L7.61583 26.1625ZM29.3842 26.1625C29.8374 26.5883 30.0625 27.1468 30.0625 27.7083H31.6042C31.6042 26.7764 31.228 25.8416 30.4757 25.13L29.3842 26.1625ZM30.0625 27.7083C30.0625 28.2698 29.8374 28.8283 29.3842 29.2541L30.4757 30.2866C30.8339 29.9483 31.1181 29.5464 31.3117 29.1039C31.5054 28.6615 31.6048 28.1872 31.6042 27.7083H30.0625ZM24.6667 26.9791H20.0417V28.4375H24.6667V26.9791ZM26.1158 29.2541C25.9006 29.0515 25.7299 28.8106 25.6135 28.5453C25.4971 28.28 25.4373 27.9955 25.4375 27.7083H23.8958C23.8958 28.6402 24.272 29.575 25.0243 30.2866L26.1158 29.2541ZM25.4375 27.7083C25.4375 27.1468 25.6626 26.5883 26.1158 26.1625L25.0243 25.13C24.6661 25.4683 24.3819 25.8702 24.1883 26.3127C23.9946 26.7551 23.8952 27.2294 23.8958 27.7083H25.4375ZM7.61583 29.2541C7.40063 29.0515 7.2299 28.8106 7.11349 28.5453C6.99707 28.28 6.93726 27.9955 6.9375 27.7083H5.39583C5.39583 28.6402 5.772 29.575 6.52433 30.2866L7.61583 29.2541ZM6.9375 27.7083C6.9375 27.1468 7.16258 26.5883 7.61583 26.1625L6.52433 25.13C6.16605 25.4683 5.88193 25.8702 5.68827 26.3127C5.49462 26.7551 5.39523 27.2294 5.39583 27.7083H6.9375ZM20.0417 26.9791H12.3333V28.4375H20.0417V26.9791ZM10.8842 26.1625C11.3374 26.5883 11.5625 27.1468 11.5625 27.7083H13.1042C13.1042 26.7764 12.728 25.8416 11.9757 25.13L10.8842 26.1625ZM11.5625 27.7083C11.5625 28.2698 11.3374 28.8283 10.8842 29.2541L11.9757 30.2866C12.3339 29.9483 12.6181 29.5464 12.8117 29.1039C13.0054 28.6615 13.1048 28.1872 13.1042 27.7083H11.5625ZM33.1458 24.7916C33.1458 25.3718 32.9022 25.9282 32.4685 26.3384C32.0348 26.7487 31.4466 26.9791 30.8333 26.9791V28.4375C31.8555 28.4375 32.8358 28.0533 33.5586 27.3696C34.2814 26.6859 34.6875 25.7586 34.6875 24.7916H33.1458ZM27.75 13.8541C29.1811 13.8541 30.5535 14.3919 31.5654 15.3491C32.5773 16.3063 33.1458 17.6046 33.1458 18.9583H34.6875C34.6875 17.2178 33.9566 15.5486 32.6556 14.3179C31.3545 13.0872 29.5899 12.3958 27.75 12.3958V13.8541ZM2.3125 24.7916C2.3125 25.7586 2.71856 26.6859 3.44136 27.3696C4.16416 28.0533 5.14448 28.4375 6.16667 28.4375V26.9791C5.55335 26.9791 4.96516 26.7487 4.53148 26.3384C4.0978 25.9282 3.85417 25.3718 3.85417 24.7916H2.3125Z" fill="#2C3812"/>
<path d="M3.08333 9.47913V10.2083H2.3125M3.08333 9.47913C2.8789 9.47913 2.68283 9.55595 2.53827 9.69269C2.39371 9.82944 2.3125 10.0149 2.3125 10.2083M3.08333 9.47913H20.0417M3.08333 9.47913V10.9375H20.0417V9.47913M2.3125 10.2083H3.85417V24.7916M2.3125 10.2083V24.7916M20.8125 10.2083H20.0417V9.47913M20.8125 10.2083C20.8125 10.0149 20.7313 9.82944 20.5867 9.69269C20.4422 9.55595 20.2461 9.47913 20.0417 9.47913M20.8125 10.2083V27.7083M20.8125 10.2083H19.2708V27.7083M20.0417 12.3958V13.125H19.2708M20.0417 12.3958C19.8372 12.3958 19.6412 12.4726 19.4966 12.6094C19.352 12.7461 19.2708 12.9316 19.2708 13.125M20.0417 12.3958H27.75M20.0417 12.3958V13.8541H27.75M19.2708 13.125H20.8125V27.7083M19.2708 13.125V27.7083M19.2708 27.7083H20.8125M3.85417 24.7916H2.3125M3.85417 24.7916C3.85417 25.3718 4.0978 25.9282 4.53148 26.3384C4.96516 26.7487 5.55335 26.9791 6.16667 26.9791V28.4375C5.14448 28.4375 4.16416 28.0533 3.44136 27.3696C2.71856 26.6859 2.3125 25.7586 2.3125 24.7916M27.75 13.8541V12.3958M27.75 13.8541C29.1811 13.8541 30.5535 14.3919 31.5654 15.3491C32.5773 16.3063 33.1458 17.6046 33.1458 18.9583M27.75 12.3958C29.5899 12.3958 31.3545 13.0872 32.6556 14.3179C33.9566 15.5486 34.6875 17.2178 34.6875 18.9583M33.1458 18.9583V24.7916M33.1458 18.9583H34.6875M33.1458 24.7916H34.6875M33.1458 24.7916C33.1458 25.3718 32.9022 25.9282 32.4685 26.3384C32.0348 26.7487 31.4466 26.9791 30.8333 26.9791V28.4375C31.8555 28.4375 32.8358 28.0533 33.5586 27.3696C34.2814 26.6859 34.6875 25.7586 34.6875 24.7916M34.6875 24.7916V18.9583M29.3842 29.2541C28.9506 29.6638 28.3628 29.8939 27.75 29.8939C27.1372 29.8939 26.5494 29.6638 26.1158 29.2541M29.3842 29.2541L30.4757 30.2866M29.3842 29.2541C29.8374 28.8283 30.0625 28.2698 30.0625 27.7083M26.1158 29.2541L25.0243 30.2866M26.1158 29.2541C25.9006 29.0515 25.7299 28.8106 25.6135 28.5453C25.4971 28.28 25.4373 27.9955 25.4375 27.7083M25.0243 30.2866C25.3822 30.6253 25.8072 30.8939 26.2748 31.0772C26.7425 31.2605 27.2438 31.3548 27.75 31.3548C28.2562 31.3548 28.7575 31.2605 29.2252 31.0772C29.6928 30.8939 30.1178 30.6253 30.4757 30.2866M25.0243 30.2866C24.272 29.575 23.8958 28.6402 23.8958 27.7083M30.4757 30.2866C30.8339 29.9483 31.1181 29.5464 31.3117 29.1039C31.5054 28.6615 31.6048 28.1872 31.6042 27.7083M26.1158 26.1625C26.5494 25.7528 27.1372 25.5227 27.75 25.5227C28.3628 25.5227 28.9506 25.7528 29.3842 26.1625M26.1158 26.1625L25.0243 25.13M26.1158 26.1625C25.6626 26.5883 25.4375 27.1468 25.4375 27.7083M29.3842 26.1625L30.4757 25.13M29.3842 26.1625C29.8374 26.5883 30.0625 27.1468 30.0625 27.7083M30.4757 25.13C30.1178 24.7913 29.6928 24.5227 29.2252 24.3394C28.7575 24.1561 28.2562 24.0618 27.75 24.0618C27.2438 24.0618 26.7425 24.1561 26.2748 24.3394C25.8072 24.5227 25.3822 24.7913 25.0243 25.13M30.4757 25.13C31.228 25.8416 31.6042 26.7764 31.6042 27.7083M25.0243 25.13C24.6661 25.4683 24.3819 25.8702 24.1883 26.3127C23.9946 26.7551 23.8952 27.2294 23.8958 27.7083M10.8842 29.2541C10.4506 29.6638 9.86281 29.8939 9.25 29.8939C8.63719 29.8939 8.04943 29.6638 7.61583 29.2541M10.8842 29.2541L11.9757 30.2866M10.8842 29.2541C11.3374 28.8283 11.5625 28.2698 11.5625 27.7083M7.61583 29.2541L6.52433 30.2866M7.61583 29.2541C7.40063 29.0515 7.2299 28.8106 7.11349 28.5453C6.99707 28.28 6.93726 27.9955 6.9375 27.7083M6.52433 30.2866C6.88224 30.6253 7.30716 30.8939 7.77484 31.0772C8.24251 31.2605 8.74378 31.3548 9.25 31.3548C9.75622 31.3548 10.2575 31.2605 10.7252 31.0772C11.1928 30.8939 11.6178 30.6253 11.9757 30.2866M6.52433 30.2866C5.772 29.575 5.39583 28.6402 5.39583 27.7083M11.9757 30.2866C12.3339 29.9483 12.6181 29.5464 12.8117 29.1039C13.0054 28.6615 13.1048 28.1872 13.1042 27.7083M7.61583 26.1625C8.04943 25.7528 8.63719 25.5227 9.25 25.5227C9.86281 25.5227 10.4506 25.7528 10.8842 26.1625M7.61583 26.1625L6.52433 25.13M7.61583 26.1625C7.16258 26.5883 6.9375 27.1468 6.9375 27.7083M10.8842 26.1625L11.9757 25.13M10.8842 26.1625C11.3374 26.5883 11.5625 27.1468 11.5625 27.7083M11.9757 25.13C11.6178 24.7913 11.1928 24.5227 10.7252 24.3394C10.2575 24.1561 9.75622 24.0618 9.25 24.0618C8.74378 24.0618 8.24251 24.1561 7.77484 24.3394C7.30716 24.5227 6.88224 24.7913 6.52433 25.13M11.9757 25.13C12.728 25.8416 13.1042 26.7764 13.1042 27.7083M6.52433 25.13C6.16605 25.4683 5.88193 25.8702 5.68827 26.3127C5.49462 26.7551 5.39523 27.2294 5.39583 27.7083M30.0625 27.7083H31.6042M20.0417 26.9791H24.6667V28.4375H20.0417M20.0417 26.9791V28.4375M20.0417 26.9791H12.3333V28.4375H20.0417M25.4375 27.7083H23.8958M6.9375 27.7083H5.39583M11.5625 27.7083H13.1042" stroke="#2C3812"/>
<path d="M11.5624 8.75C11.5624 7.58968 11.0751 6.47688 10.2078 5.65641C9.34043 4.83594 8.16405 4.375 6.93742 4.375C6.52854 4.375 6.13641 4.52865 5.8473 4.80214C5.55818 5.07563 5.39575 5.44656 5.39575 5.83333C5.39575 6.99366 5.88303 8.10645 6.75038 8.92693C7.61774 9.7474 8.79413 10.2083 10.0208 10.2083H11.5624M11.5624 8.75V10.2083M11.5624 8.75C11.5624 7.58968 12.0497 6.47688 12.917 5.65641C13.7844 4.83594 14.9608 4.375 16.1874 4.375C16.5963 4.375 16.9884 4.52865 17.2775 4.80214C17.5667 5.07563 17.7291 5.44656 17.7291 5.83333C17.7291 6.99366 17.2418 8.10645 16.3745 8.92693C15.5071 9.7474 14.3307 10.2083 13.1041 10.2083H11.5624" stroke="#2C3812" stroke-width="2" stroke-linejoin="round"/>
</svg>
