<svg width="18" height="18" viewBox="0 0 18 18" fill="none" xmlns="http://www.w3.org/2000/svg">
<path d="M0 2.81312C0 2.23591 0.202708 1.75972 0.608108 1.38455C1.01351 1.00936 1.54055 0.821777 2.18919 0.821777C2.82626 0.821777 3.34169 1.00647 3.73552 1.37589C4.14092 1.75684 4.34363 2.25322 4.34363 2.86507C4.34363 3.41918 4.14672 3.88093 3.7529 4.25035C3.3475 4.6313 2.81467 4.82178 2.15444 4.82178H2.13707C1.49999 4.82178 0.984562 4.6313 0.590734 4.25035C0.196905 3.8694 0 3.39031 0 2.81312ZM0.225869 17.9646V6.39753H4.08301V17.9646H0.225869ZM6.22008 17.9646H10.0772V11.5058C10.0772 11.1017 10.1236 10.79 10.2162 10.5707C10.3784 10.1782 10.6245 9.84629 10.9546 9.57502C11.2847 9.30373 11.6988 9.16809 12.1969 9.16809C13.4942 9.16809 14.1429 10.0397 14.1429 11.7828V17.9646H18V11.3326C18 9.62408 17.5946 8.32827 16.7838 7.44515C15.973 6.56203 14.9015 6.12048 13.5695 6.12048C12.0753 6.12048 10.9112 6.76117 10.0772 8.04255V8.07719H10.0598L10.0772 8.04255V6.39753H6.22008C6.24324 6.76694 6.25483 7.91556 6.25483 9.84342C6.25483 11.7713 6.24324 14.4783 6.22008 17.9646Z" fill="#F5EBE2"/>
</svg>
