<svg width="469" height="292" viewBox="0 0 469 292" fill="none" xmlns="http://www.w3.org/2000/svg">
<path fill-rule="evenodd" clip-rule="evenodd" d="M176.628 287.58C254.442 309.462 292.304 225.488 358.976 231.877C395.472 235.374 468.219 253.1 468.056 123.979C467.649 40.6186 390.815 19.7447 311.582 62.4946C288.267 71.6127 269.86 68.7871 249.874 59.7276C229.889 50.6682 204.185 10.224 155.74 1.90367C9.95546 -23.1345 -114.782 205.631 176.628 287.58Z" fill="#DFC4AD"/>
<path fill-rule="evenodd" clip-rule="evenodd" d="M361.544 77.8598C363.004 77.1497 365.623 78.5261 364.103 80.7412C360.739 85.6468 373.751 95.4453 369.574 86.8108C369.128 85.8874 366.837 79.5029 370.078 82.7995C373.319 86.0954 377.837 100.661 374.914 105.68C372.349 110.084 365.563 112.179 356.299 112.428L355.882 112.437L355.685 112.448C350.224 112.702 346.083 109.323 343.409 102.741L343.281 102.42C340.575 95.53 341.317 90.0071 345.693 86.2834C345.773 86.2158 345.858 86.1549 345.947 86.1014L346.085 86.0271L361.544 77.8598Z" fill="white"/>
<path fill-rule="evenodd" clip-rule="evenodd" d="M362.328 80.196L346.896 87.6978C343.198 90.8451 342.568 95.5263 345.009 101.741C345.866 103.922 348.008 109.115 348.008 107.076C348.008 106.438 362.328 97.0781 365.075 97.994C367.615 98.8408 363.052 91.2076 361.772 87.6978L362.328 80.0044L362.752 79.2378" fill="#E7EAEE"/>
<path fill-rule="evenodd" clip-rule="evenodd" d="M341.739 85.8258C342.764 85.8258 336.953 88.5594 337.253 93.6001C337.552 98.6402 341.491 107.931 340.533 108.297C339.575 108.663 337.759 105.955 337.393 104.996C335.115 99.0353 334.683 96.6034 334.765 93.1262C334.872 88.575 337.265 85.8258 341.739 85.8258Z" fill="#E7EAEE"/>
<path d="M367.6 99.8809C369.816 99.8809 371.612 95.8238 371.612 90.8191C371.612 85.8144 369.816 81.7573 367.6 81.7573C365.385 81.7573 363.589 85.8144 363.589 90.8191C363.589 95.8238 365.385 99.8809 367.6 99.8809Z" fill="#E7EAEE"/>
<path fill-rule="evenodd" clip-rule="evenodd" d="M87.4116 186.363C87.4116 170.639 89.1587 163.803 107.919 155.222C146.367 139.682 146.367 139.082 220.025 110.605C239.504 103.112 280.571 121.06 298.429 113.538C310.334 108.524 321.468 104.8 331.303 99.8271C332.256 106.047 338.413 116.577 340.582 118.387C329.064 120.804 317.922 124.542 307.157 129.602C283.885 140.537 297.675 137.557 260.814 172.318C257.691 175.264 246.211 181.981 229.613 188.977C229.613 188.977 196.186 184.488 182.78 178.912C169.136 173.237 148.462 155.222 148.462 155.222C148.462 155.222 124.35 170.953 110.488 178.024C104 181.333 87.4116 186.363 87.4116 186.363Z" fill="white"/>
<path fill-rule="evenodd" clip-rule="evenodd" d="M87.4106 178.192C87.4106 174.501 87.0206 171.925 87.4106 169.076C88.6823 159.788 93.6637 155.036 108.02 148.469C146.468 132.929 146.366 130.911 220.024 102.434C239.503 94.9409 280.57 112.889 298.428 105.367C310.333 100.353 321.467 96.6293 331.302 91.6561C331.331 91.8344 330.307 100.334 330.307 100.334C330.307 100.334 306.025 113.156 289.963 115.875C272.898 118.764 249.457 105.367 226.051 111.956C190.408 121.99 108.269 153.527 98.5514 161.431C90.9167 167.641 87.4106 178.192 87.4106 178.192Z" fill="#E7EAEE"/>
<path fill-rule="evenodd" clip-rule="evenodd" d="M361.544 77.8598C363.004 77.1497 365.623 78.5261 364.103 80.7419C361.803 84.0958 364.359 91.8835 365.916 96.6264V96.6271V96.6279C366.636 98.8214 367.142 100.363 366.855 100.514C365.945 100.989 364.824 100.638 364.348 99.7284C361.776 94.8065 360.299 90.8978 359.93 87.9265C359.747 86.4483 359.707 85.0183 359.81 83.6382L359.824 83.4792L347.931 89.2598L347.781 89.398C345.096 91.9161 343.915 94.8399 345.88 100.019L345.996 100.32C348.128 105.75 351.738 109.644 355.495 109.482L355.788 109.467C364.135 109.3 369.124 106.788 370.905 103.729C373.143 99.8836 373.751 95.446 369.574 86.8108C369.128 85.8882 366.837 79.5037 370.078 82.7995C373.319 86.0954 377.837 100.661 374.914 105.68C372.475 109.869 366.215 111.97 357.636 112.378C357.686 112.596 357.697 112.828 357.663 113.063C356.85 118.577 354.333 122.046 350.124 123.05C346.906 123.817 343.446 122.801 340.277 120.351C329.145 122.742 318.369 126.385 307.948 131.283L306.404 132.013C301.087 134.553 298.039 136.256 295.812 137.911C294.506 138.881 293.428 139.875 292.268 141.155L292.081 141.368C291.518 142.02 290.292 143.517 288.898 145.221L288.895 145.224L288.894 145.226L288.893 145.227L288.892 145.228L288.888 145.233L288.885 145.236C287.029 147.503 284.878 150.131 283.593 151.619L282.972 152.334C277.742 158.326 271.15 165.125 262.09 173.67L261.836 173.903C258.439 176.938 249.412 182.07 238.155 187.245C269.221 186.141 291.622 174.284 305.572 151.654C306.186 150.658 307.556 150.47 308.415 151.265C332.403 173.481 360.197 183.763 391.905 182.157C423.697 180.547 447.027 172.284 461.967 157.449C462.695 156.726 463.87 156.731 464.593 157.459C465.316 158.186 465.312 159.362 464.584 160.085C448.912 175.647 415.637 187.325 383.006 188.977C351.272 190.584 332.337 177.509 308.126 156.018L307.535 155.489L307.323 155.814C291.989 179.052 258.676 196.001 225.431 196.241L224.389 196.244C190.385 196.244 170.774 179.779 147.832 157.275L147.653 157.098L147.572 157.168L146.972 157.673L146.101 158.405L145.568 158.855C124.071 176.944 108.031 190.443 83.9033 193.891L83.1337 193.999C55.9295 199.502 14.67 184.841 8.32964 177.654C2.52028 171.07 9.29634 175.163 11.1566 176.287C11.3265 176.389 11.4556 176.467 11.5301 176.51C29.5356 186.819 50.2959 190.744 75.2041 187.348C78.6411 186.878 82.0574 186.258 85.4513 185.485L85.4119 185.119C84.3244 174.79 84.3177 170.275 85.8851 165.093C88.0162 158.046 93.1915 152.69 102.5 148.432L105.064 147.298C116.563 142.231 125.695 138.426 135.167 134.729L135.861 134.459C136.923 134.046 138 133.63 139.098 133.209L140.175 132.798C140.563 132.66 145.626 130.653 153.323 127.602L153.326 127.601L153.346 127.593L153.349 127.591L153.351 127.591C171.144 120.537 202.979 107.916 223.746 99.8866C228.239 98.1588 233.678 97.5846 240.35 97.9293L240.925 97.9612C245.924 98.2554 250.84 98.9336 258.899 100.328L265.98 101.568C273.887 102.937 277.718 103.477 282.191 103.795C283.597 103.896 284.934 104.02 286.203 104.138H286.204C290.907 104.575 294.693 104.927 297.709 103.656C300.392 102.527 303.022 101.435 305.599 100.366H305.6C314.028 96.87 321.89 93.609 329.186 89.9819C329.687 86.7372 330.965 84.3416 332.969 82.7639C336.059 80.3304 340.433 80.2896 344.228 81.7648C345.184 82.1369 345.657 83.2133 345.285 84.1685C345.165 84.4783 344.393 84.3357 343.299 84.1344C341.013 83.7125 337.325 83.032 335.266 85.6817C332.977 88.6299 332.216 93.1455 334.244 102.037C335.713 108.481 345.239 119.438 349.262 119.438C353.748 119.438 354.797 115.082 355.392 112.613L355.429 112.458C350.094 112.596 346.041 109.22 343.41 102.741L343.281 102.42C340.575 95.53 341.317 90.0071 345.693 86.2834C345.773 86.2158 345.858 86.1548 345.947 86.1021L346.085 86.0278L361.544 77.8598ZM336.851 116.994C336.663 116.766 336.477 116.533 336.294 116.295C336.223 116.22 336.157 116.145 336.099 116.076C335.93 115.87 335.757 115.661 335.579 115.449C334.14 113.72 332.473 111.717 331.167 108.829L330.977 108.407C328.883 103.715 328.633 98.444 328.761 94.0978L328.781 93.5934L328.67 93.6491C320.016 97.9322 310.601 102.229 300.427 106.54L299.151 107.079C294.795 108.914 289.354 110.21 282.46 109.765L281.928 109.728C277.217 109.392 273.256 108.829 264.949 107.388L258.747 106.3C241.263 103.273 232.514 102.801 225.305 105.496C225.305 105.496 117.795 145.939 104.025 151.818C95.6517 155.648 92.8104 159.253 89.3474 165.093C87.5557 168.114 87.7369 176.448 87.8632 182.236V182.238C87.884 183.208 87.9033 184.107 87.9122 184.897C108.24 179.813 127.781 169.244 146.547 153.167C147.286 152.533 148.39 152.578 149.075 153.271C150.594 154.806 152.137 156.289 153.706 157.719L231.125 125.375C231.338 125.286 231.557 125.24 231.774 125.232C232.357 124.957 232.986 124.729 233.661 124.55C240.411 122.755 245.803 125.675 249.527 132.863L256.276 127.94C257.271 127.214 258.685 127.641 259.112 128.796C265.27 145.438 263.476 156.842 253.336 162.345C243.109 167.894 234.216 163.318 227.283 149.449C226.931 148.745 227.07 147.932 227.556 147.384C225.903 140.67 225.597 135.32 226.721 131.446L158.892 162.185C169.034 170.419 180.171 176.63 192.311 180.819C192.589 180.553 192.89 180.324 193.185 180.163C203.411 174.561 228.604 168.019 234.828 166.402C235.366 166.263 235.762 166.159 235.995 166.097C238.915 165.315 235.923 168.043 235.042 168.45L234.929 168.498L198.158 182.657C209.097 185.774 220.81 187.33 233.303 187.33C234.013 187.33 234.719 187.325 235.421 187.314L236.243 186.779H236.244L236.245 186.779L236.246 186.778C244.11 181.666 257.258 173.12 259.541 170.968L260.606 169.96C268.177 162.614 273.811 155.567 278.73 149.415C284.126 142.665 288.66 136.994 293.944 133.189C298.052 130.231 299.54 129.556 303.04 127.967C303.976 127.542 305.055 127.052 306.368 126.436C315.648 122.074 326.188 119.549 336.082 117.178L336.851 116.994ZM234.615 128.139C239.964 126.717 243.971 129.229 247.025 136.244L239.134 142.499L239.126 142.502L230.974 145.719L230.77 144.824C228.537 134.704 229.992 129.368 234.615 128.139ZM247.025 136.244L239.141 142.497C239.299 142.434 239.462 142.395 239.625 142.377C239.774 142.362 239.923 142.364 240.069 142.384C240.415 142.43 240.744 142.574 241.015 142.8C241.192 142.949 241.344 143.131 241.458 143.344C243.319 146.695 244.758 147.493 246.218 146.674C247.765 145.807 248.25 142.547 247.121 136.722L247.025 136.244ZM144.737 212.495C145.6 211.939 151.553 209.035 146.252 214.495C140.95 219.954 99.6614 243.115 77.3739 244.398C55.8923 245.634 36.8197 236.663 20.2254 224.921L19.6754 224.529L19.5658 224.67C18.8312 225.601 18.0764 226.447 17.3007 227.205L16.9671 227.525C15.5615 228.844 13.1288 230.338 9.61412 232.074C8.69459 232.528 5.44535 232.946 7.12664 231.231C8.80801 229.517 12.4879 227.048 14.631 225.632C16.0316 224.708 16.474 223.626 16.9128 222.553C17.1455 221.984 17.3772 221.417 17.7501 220.877C18.3492 220.011 19.5485 219.815 20.3915 220.447C36.7506 232.708 55.8604 239.244 77.3739 238.006C98.9758 236.762 121.286 227.584 144.737 212.495ZM271.795 224.335C272.549 223.639 272.549 218.677 271.795 219.373C263.451 227.072 245.983 233.844 224.427 235.085C202.843 236.327 185.874 232.934 173.486 224.968C172.624 224.413 168.354 222.946 170.92 225.525C173.486 228.105 202.333 241.562 224.64 240.278L225.308 240.238C247.288 238.897 262.784 232.651 271.795 224.335ZM256.559 132.744L256.447 132.411L250.856 136.49L250.959 137.067C252.083 143.643 251.316 147.941 248.198 149.819L248.035 149.914C244.784 151.736 241.725 150.449 239.166 146.703L239.054 146.537L231.536 149.574L231.71 149.889C237.456 160.259 243.826 163.144 251.322 159.21L251.564 159.08C259.092 154.996 260.947 146.659 256.82 133.553L256.559 132.744Z" fill="#00160A"/>
</svg>
