<svg width="26" height="15" viewBox="0 0 37 35" fill="none" xmlns="http://www.w3.org/2000/svg">
<path d="M29.6437 5H21.8215C21.5784 4.99983 21.345 5.09058 21.1725 5.25241L5.53451 20.018C5.19218 20.3429 5 20.7826 5 21.241C5 21.6993 5.19218 22.139 5.53451 22.4639L12.9794 29.4951C13.3235 29.8185 13.7891 30 14.2746 30C14.76 30 15.2257 29.8185 15.5698 29.4951L31.2033 14.7356C31.3747 14.5726 31.4707 14.3522 31.4706 14.1226V6.73077C31.4717 6.50363 31.4253 6.27851 31.334 6.06837C31.2427 5.85824 31.1083 5.66724 30.9385 5.50637C30.7687 5.34551 30.5669 5.21795 30.3446 5.13104C30.1224 5.04414 29.8842 4.9996 29.6437 5Z" stroke="#2C3812" stroke-width="2" stroke-linecap="round" stroke-linejoin="round"/>
<path d="M25.9001 12.6C25.461 12.6 25.0318 12.4769 24.6667 12.2461C24.3016 12.0154 24.0171 11.6874 23.849 11.3037C23.681 10.9199 23.6371 10.4977 23.7227 10.0903C23.8084 9.68298 24.0198 9.30879 24.3303 9.0151C24.6408 8.72141 25.0363 8.52141 25.467 8.44038C25.8976 8.35935 26.344 8.40093 26.7496 8.55988C27.1553 8.71882 27.502 8.98798 27.7459 9.33333C27.9899 9.67867 28.1201 10.0847 28.1201 10.5C28.1201 11.057 27.8862 11.5911 27.4698 11.9849C27.0535 12.3788 26.4888 12.6 25.9001 12.6Z" fill="#2C3812"/>
</svg>
