<svg aria-hidden="true" style="position: absolute; width: 0; height: 0; overflow: hidden;" version="1.1" xmlns="http://www.w3.org/2000/svg" xmlns:xlink="http://www.w3.org/1999/xlink">
<defs>
<symbol id="card" viewBox="0 0 36 32">
<path fill="none" stroke="#2c3812" style="stroke: var(--color1, #2c3812)" stroke-linejoin="miter" stroke-linecap="butt" stroke-miterlimit="4" stroke-width="2.9091" d="M2.99 15.97c0-5.018 0-7.528 1.752-9.087 1.751-1.56 4.57-1.56 10.207-1.56h5.98c5.637 0 8.457 0 10.207 1.56 1.752 1.558 1.752 4.068 1.752 9.087s0 7.528-1.752 9.087c-1.751 1.56-4.57 1.56-10.207 1.56h-5.98c-5.637 0-8.457 0-10.207-1.56-1.752-1.558-1.752-4.068-1.752-9.087z"></path>
<path fill="none" stroke="#2c3812" style="stroke: var(--color1, #2c3812)" stroke-linejoin="miter" stroke-linecap="round" stroke-miterlimit="4" stroke-width="2.9091" d="M14.95 21.293h-5.98M20.929 21.293h-2.242M2.99 13.308h29.899"></path>
</symbol>
<symbol id="delivery" viewBox="0 0 34 32">
<path fill="#2c3812" style="fill: var(--color1, #2c3812)" d="M2.819 9.333v-0.667c-0.187 0-0.366 0.070-0.498 0.195s-0.206 0.295-0.206 0.471h0.705zM18.324 9.333h0.705c0-0.177-0.074-0.346-0.206-0.471s-0.311-0.195-0.498-0.195v0.667zM18.324 12v-0.667c-0.187 0-0.366 0.070-0.498 0.195s-0.206 0.295-0.206 0.471h0.705zM2.819 10h15.505v-1.333h-15.505v1.333zM17.619 9.333v16h1.41v-16h-1.41zM3.524 22.667v-13.333h-1.41v13.333h1.41zM18.324 12.667h7.048v-1.333h-7.048v1.333zM30.305 17.333v5.333h1.41v-5.333h-1.41zM19.029 25.333v-13.333h-1.41v13.333h1.41zM26.866 26.747c-0.396 0.375-0.934 0.585-1.494 0.585s-1.098-0.21-1.494-0.585l-0.998 0.944c0.327 0.31 0.716 0.555 1.143 0.723s0.886 0.254 1.349 0.254 0.921-0.086 1.349-0.254c0.428-0.168 0.816-0.413 1.143-0.723l-0.998-0.944zM23.877 23.92c0.396-0.375 0.934-0.585 1.494-0.585s1.098 0.21 1.494 0.585l0.998-0.944c-0.327-0.31-0.716-0.555-1.143-0.723s-0.886-0.254-1.349-0.254-0.921 0.086-1.349 0.254c-0.428 0.168-0.816 0.413-1.143 0.723l0.998 0.944zM9.951 26.747c-0.396 0.375-0.934 0.585-1.494 0.585s-1.098-0.21-1.494-0.585l-0.998 0.944c0.327 0.31 0.716 0.555 1.143 0.723s0.886 0.254 1.349 0.254c0.463 0 0.921-0.086 1.349-0.254s0.816-0.413 1.143-0.723l-0.998-0.944zM6.963 23.92c0.396-0.375 0.934-0.585 1.494-0.585s1.098 0.21 1.494 0.585l0.998-0.944c-0.327-0.31-0.716-0.555-1.143-0.723s-0.886-0.254-1.349-0.254-0.921 0.086-1.349 0.254c-0.428 0.168-0.816 0.413-1.143 0.723l0.998 0.944zM26.866 23.92c0.414 0.389 0.62 0.9 0.62 1.413h1.41c0-0.852-0.344-1.707-1.032-2.357l-0.998 0.944zM27.486 25.333c0 0.513-0.206 1.024-0.62 1.413l0.998 0.944c0.328-0.309 0.587-0.677 0.764-1.081s0.268-0.838 0.267-1.276h-1.41zM22.552 24.667h-4.229v1.333h4.229v-1.333zM23.877 26.747c-0.197-0.185-0.353-0.405-0.459-0.648s-0.161-0.503-0.161-0.765h-1.41c0 0.852 0.344 1.707 1.032 2.357l0.998-0.944zM23.257 25.333c0-0.513 0.206-1.024 0.62-1.413l-0.998-0.944c-0.328 0.309-0.587 0.677-0.764 1.081s-0.268 0.838-0.267 1.276h1.41zM6.963 26.747c-0.197-0.185-0.353-0.405-0.459-0.648s-0.161-0.503-0.161-0.765h-1.41c0 0.852 0.344 1.707 1.032 2.357l0.998-0.944zM6.343 25.333c0-0.513 0.206-1.024 0.62-1.413l-0.998-0.944c-0.328 0.309-0.587 0.677-0.764 1.081s-0.268 0.838-0.267 1.276h1.41zM18.324 24.667h-7.048v1.333h7.048v-1.333zM9.951 23.92c0.414 0.389 0.62 0.9 0.62 1.413h1.41c0-0.852-0.344-1.707-1.032-2.357l-0.998 0.944zM10.571 25.333c0 0.513-0.206 1.024-0.62 1.413l0.998 0.944c0.328-0.309 0.587-0.677 0.764-1.081s0.268-0.838 0.267-1.276h-1.41zM30.305 22.667c0 0.53-0.223 1.039-0.619 1.414s-0.934 0.586-1.495 0.586v1.333c0.935 0 1.831-0.351 2.492-0.976s1.032-1.473 1.032-2.357h-1.41zM25.371 12.667c1.308 0 2.563 0.492 3.488 1.367s1.445 2.062 1.445 3.3h1.41c0-1.591-0.668-3.117-1.858-4.243s-2.803-1.757-4.485-1.757v1.333zM2.114 22.667c0 0.884 0.371 1.732 1.032 2.357s1.557 0.976 2.492 0.976v-1.333c-0.561 0-1.099-0.211-1.495-0.586s-0.619-0.884-0.619-1.414h-1.41z"></path>
<path fill="none" stroke="#2c3812" style="stroke: var(--color1, #2c3812)" stroke-linejoin="miter" stroke-linecap="butt" stroke-miterlimit="4" stroke-width="0.9143" d="M2.819 8.667v0.667h-0.705M2.819 8.667c-0.187 0-0.366 0.070-0.498 0.195s-0.206 0.295-0.206 0.471M2.819 8.667h15.505M2.819 8.667v1.333h15.505v-1.333M2.114 9.333h1.41v13.333M2.114 9.333v13.333M19.029 9.333h-0.705v-0.667M19.029 9.333c0-0.177-0.074-0.346-0.206-0.471s-0.311-0.195-0.498-0.195M19.029 9.333v16M19.029 9.333h-1.41v16M18.324 11.333v0.667h-0.705M18.324 11.333c-0.187 0-0.366 0.070-0.498 0.195s-0.206 0.295-0.206 0.471M18.324 11.333h7.048M18.324 11.333v1.333h7.048M17.619 12h1.41v13.333M17.619 12v13.333M17.619 25.333h1.41M3.524 22.667h-1.41M3.524 22.667c0 0.53 0.223 1.039 0.619 1.414s0.934 0.586 1.495 0.586v1.333c-0.935 0-1.831-0.351-2.492-0.976s-1.032-1.473-1.032-2.357M25.371 12.667v-1.333M25.371 12.667c1.308 0 2.563 0.492 3.488 1.367s1.445 2.062 1.445 3.3M25.371 11.333c1.682 0 3.296 0.632 4.485 1.757s1.858 2.651 1.858 4.243M30.305 17.333v5.333M30.305 17.333h1.41M30.305 22.667h1.41M30.305 22.667c0 0.53-0.223 1.039-0.619 1.414s-0.934 0.586-1.495 0.586v1.333c0.935 0 1.831-0.351 2.492-0.976s1.032-1.473 1.032-2.357M31.714 22.667v-5.333M26.866 26.747c-0.396 0.375-0.934 0.585-1.494 0.585s-1.098-0.21-1.494-0.585M26.866 26.747l0.998 0.944M26.866 26.747c0.414-0.389 0.62-0.9 0.62-1.413M23.877 26.747l-0.998 0.944M23.877 26.747c-0.197-0.185-0.353-0.405-0.459-0.648s-0.161-0.503-0.161-0.765M22.879 27.691c0.327 0.31 0.716 0.555 1.143 0.723s0.886 0.254 1.349 0.254 0.921-0.086 1.349-0.254c0.428-0.168 0.816-0.413 1.143-0.723M22.879 27.691c-0.688-0.651-1.032-1.505-1.032-2.357M27.863 27.691c0.328-0.309 0.587-0.677 0.764-1.081s0.268-0.838 0.267-1.276M23.877 23.92c0.396-0.375 0.934-0.585 1.494-0.585s1.098 0.21 1.494 0.585M23.877 23.92l-0.998-0.944M23.877 23.92c-0.414 0.389-0.62 0.9-0.62 1.413M26.866 23.92l0.998-0.944M26.866 23.92c0.414 0.389 0.62 0.9 0.62 1.413M27.863 22.976c-0.327-0.31-0.716-0.555-1.143-0.723s-0.886-0.254-1.349-0.254-0.921 0.086-1.349 0.254c-0.428 0.168-0.816 0.413-1.143 0.723M27.863 22.976c0.688 0.651 1.032 1.505 1.032 2.357M22.879 22.976c-0.328 0.309-0.587 0.677-0.764 1.081s-0.268 0.838-0.267 1.276M9.951 26.747c-0.396 0.375-0.934 0.585-1.494 0.585s-1.098-0.21-1.494-0.585M9.951 26.747l0.998 0.944M9.951 26.747c0.414-0.389 0.62-0.9 0.62-1.413M6.963 26.747l-0.998 0.944M6.963 26.747c-0.197-0.185-0.353-0.405-0.459-0.648s-0.161-0.503-0.161-0.765M5.965 27.691c0.327 0.31 0.716 0.555 1.143 0.723s0.886 0.254 1.349 0.254c0.463 0 0.921-0.086 1.349-0.254s0.816-0.413 1.143-0.723M5.965 27.691c-0.688-0.651-1.032-1.505-1.032-2.357M10.949 27.691c0.328-0.309 0.587-0.677 0.764-1.081s0.268-0.838 0.267-1.276M6.963 23.92c0.396-0.375 0.934-0.585 1.494-0.585s1.098 0.21 1.494 0.585M6.963 23.92l-0.998-0.944M6.963 23.92c-0.414 0.389-0.62 0.9-0.62 1.413M9.951 23.92l0.998-0.944M9.951 23.92c0.414 0.389 0.62 0.9 0.62 1.413M10.949 22.976c-0.327-0.31-0.716-0.555-1.143-0.723s-0.886-0.254-1.349-0.254-0.921 0.086-1.349 0.254c-0.428 0.168-0.816 0.413-1.143 0.723M10.949 22.976c0.688 0.651 1.032 1.505 1.032 2.357M5.965 22.976c-0.328 0.309-0.587 0.677-0.764 1.081s-0.268 0.838-0.267 1.276M27.486 25.333h1.41M18.324 24.667h4.229v1.333h-4.229M18.324 24.667v1.333M18.324 24.667h-7.048v1.333h7.048M23.257 25.333h-1.41M6.343 25.333h-1.41M10.571 25.333h1.41"></path>
<path fill="none" stroke="#2c3812" style="stroke: var(--color1, #2c3812)" stroke-linejoin="round" stroke-linecap="butt" stroke-miterlimit="4" stroke-width="1.8286" d="M10.572 8c0-1.061-0.446-2.078-1.239-2.828s-1.869-1.172-2.99-1.172c-0.374 0-0.732 0.14-0.997 0.391s-0.413 0.589-0.413 0.943c0 1.061 0.446 2.078 1.239 2.828s1.869 1.172 2.99 1.172h1.41M10.572 8v1.333M10.572 8c0-1.061 0.445-2.078 1.239-2.828s1.869-1.172 2.99-1.172c0.374 0 0.732 0.14 0.997 0.391s0.413 0.589 0.413 0.943c0 1.061-0.445 2.078-1.239 2.828s-1.869 1.172-2.99 1.172h-1.409"></path>
</symbol>
</defs>
</svg>
