<svg width="18" height="15" viewBox="0 0 18 15" fill="none" xmlns="http://www.w3.org/2000/svg">
<path d="M12.0271 0.0945503V0.0913086H12.8711L13.1794 0.152901C13.385 0.192887 13.5717 0.245288 13.7394 0.310122C13.9071 0.374956 14.0694 0.4506 14.2263 0.53704C14.3832 0.623479 14.5255 0.711556 14.6532 0.801237C14.7798 0.889848 14.8934 0.983857 14.9941 1.08326C15.0936 1.18376 15.2489 1.20969 15.4599 1.16106C15.6709 1.11244 15.8981 1.0449 16.1416 0.958458C16.385 0.872019 16.6258 0.774769 16.8638 0.666707C17.1019 0.558646 17.2469 0.490035 17.2988 0.46086C17.3497 0.430615 17.3768 0.414407 17.38 0.412235L17.3832 0.407373L17.3995 0.399268L17.4157 0.391164L17.4319 0.38306L17.4482 0.374956L17.4514 0.370093L17.4563 0.366852L17.4612 0.36361L17.4644 0.358747L17.4806 0.353885L17.4968 0.350643L17.4936 0.374956L17.4887 0.399268L17.4806 0.423581L17.4725 0.447894L17.4644 0.464102L17.4563 0.48031L17.4482 0.504623C17.4427 0.520831 17.4373 0.542437 17.4319 0.569457C17.4265 0.596476 17.3751 0.704521 17.2777 0.893625C17.1803 1.08273 17.0586 1.27452 16.9125 1.46902C16.7665 1.66352 16.6355 1.81047 16.5198 1.90989C16.4029 2.01038 16.3255 2.08062 16.2876 2.1206C16.2498 2.16166 16.2038 2.19947 16.1497 2.23406L16.0685 2.28755L16.0523 2.29565L16.0361 2.30376L16.0328 2.30862L16.028 2.31186L16.0231 2.3151L16.0198 2.31996L16.0036 2.32807L15.9874 2.33617L15.9841 2.34104L15.9793 2.34428L15.9744 2.34752L15.9711 2.35238L15.9679 2.35724L15.963 2.36049L15.9582 2.36373L15.9549 2.36859H16.0361L16.4905 2.27134C16.7935 2.20651 17.083 2.12817 17.3589 2.03632L17.7971 1.89044L17.8458 1.87423L17.8702 1.86613L17.8864 1.85803L17.9026 1.84992L17.9188 1.84182L17.9351 1.83371L17.9675 1.82885L18 1.82561V1.85803L17.9919 1.86127L17.9838 1.86613L17.9805 1.87099L17.9757 1.87423L17.9708 1.87748L17.9675 1.88234L17.9643 1.8872L17.9594 1.89044L17.9546 1.89368L17.9513 1.89855L17.9481 1.90341L17.9432 1.90665L17.9351 1.92286L17.927 1.93907L17.9221 1.94231C17.9199 1.94555 17.8512 2.03739 17.716 2.21785C17.5807 2.39939 17.5077 2.49122 17.4968 2.49339C17.486 2.49664 17.4709 2.51284 17.4514 2.54202C17.433 2.57226 17.3183 2.69276 17.1073 2.90347C16.8963 3.11418 16.6897 3.30164 16.4873 3.4659C16.2839 3.63122 16.1811 3.83437 16.1789 4.07534C16.1757 4.31522 16.1632 4.58645 16.1416 4.889C16.1199 5.19156 16.0794 5.51842 16.0198 5.86961C15.9603 6.22079 15.8684 6.6179 15.7439 7.06092C15.6195 7.50395 15.468 7.93618 15.2894 8.3576C15.1109 8.77902 14.9243 9.15721 14.7295 9.49219C14.5347 9.82716 14.3562 10.1108 14.1939 10.3431C14.0316 10.5754 13.8666 10.7943 13.6988 10.9996C13.5311 11.2049 13.319 11.4361 13.0626 11.6933C12.8051 11.9494 12.6644 12.0899 12.6406 12.1147C12.6157 12.1385 12.5097 12.2271 12.3225 12.3805C12.1363 12.535 11.9362 12.6896 11.7219 12.8441C11.5088 12.9975 11.3129 13.1256 11.1344 13.2282C10.9558 13.3309 10.7405 13.4481 10.4884 13.5799C10.2373 13.7129 9.96573 13.836 9.67358 13.9495C9.38142 14.063 9.07304 14.1683 8.74842 14.2656C8.42381 14.3628 8.11001 14.4385 7.80703 14.4925C7.50407 14.5465 7.16051 14.5924 6.77637 14.6303L6.20018 14.687V14.6951H5.14518V14.687L5.00721 14.6789C4.91525 14.6735 4.8395 14.6681 4.77998 14.6627C4.72048 14.6573 4.49594 14.6275 4.1064 14.5735C3.71686 14.5195 3.41119 14.4655 3.18936 14.4114C2.96755 14.3574 2.63751 14.2548 2.19928 14.1035C1.76105 13.9522 1.38611 13.7993 1.07448 13.6448C0.763937 13.4913 0.569167 13.3941 0.490171 13.353C0.412263 13.313 0.324617 13.2633 0.227232 13.2039L0.0811542 13.1148L0.0779243 13.1099L0.0730388 13.1067L0.0681695 13.1034L0.0649234 13.0986L0.0486925 13.0905L0.0324617 13.0823L0.0292317 13.0775L0.0243463 13.0742L0.019477 13.071L0.0162308 13.0661L0.0130009 13.0613L0.00811542 13.058H0V13.0256L0.0162308 13.0289L0.0324617 13.0337L0.1055 13.0418C0.154193 13.0472 0.28675 13.0553 0.503156 13.0661C0.719578 13.077 0.949504 13.077 1.19297 13.0661C1.43643 13.0553 1.68531 13.031 1.93959 12.9932C2.19387 12.9554 2.49414 12.8906 2.8404 12.7987C3.18667 12.7068 3.50479 12.5977 3.79479 12.4713C4.08369 12.3438 4.28927 12.2487 4.41156 12.186C4.53274 12.1244 4.71777 12.0099 4.96664 11.8424L5.33995 11.5912L5.34319 11.5863L5.34806 11.5831L5.35295 11.5798L5.35618 11.575L5.35942 11.5701L5.36429 11.5669L5.36918 11.5636L5.37241 11.5588L5.38864 11.5539L5.40487 11.5507L5.40812 11.5344L5.41298 11.5182L5.41787 11.515L5.4211 11.5101L5.29125 11.502C5.20469 11.4966 5.12083 11.4912 5.03968 11.4858C4.95852 11.4804 4.83139 11.4561 4.65825 11.4129C4.48513 11.3697 4.29848 11.3048 4.09829 11.2184C3.89811 11.1319 3.70334 11.0293 3.51398 10.9104C3.32463 10.7916 3.18774 10.6927 3.10334 10.6138C3.02002 10.536 2.91181 10.4258 2.77872 10.2832C2.64671 10.1395 2.53201 9.99194 2.43463 9.84067C2.33724 9.68939 2.24419 9.51486 2.15547 9.31713L2.02074 9.02214L2.01262 8.99783L2.00451 8.97352L1.99964 8.95731L1.99639 8.9411L2.02074 8.94434L2.04509 8.9492L2.22362 8.97352C2.34266 8.98973 2.52932 8.99512 2.78359 8.98973C3.03788 8.98433 3.21371 8.97352 3.31109 8.95731C3.40848 8.9411 3.46799 8.93029 3.48963 8.92489L3.52209 8.91679L3.56267 8.90868L3.60325 8.90058L3.60649 8.89572L3.61136 8.89247L3.61625 8.88923L3.61948 8.88437L3.58702 8.87627L3.55455 8.86816L3.52209 8.86006L3.48963 8.85195L3.45717 8.84385C3.43553 8.83845 3.39767 8.82764 3.34355 8.81143C3.28946 8.79522 3.14338 8.73579 2.90532 8.63314C2.66728 8.53049 2.47791 8.43053 2.33724 8.33328C2.19622 8.23575 2.06176 8.12909 1.93472 8.01398C1.80812 7.89728 1.66908 7.74707 1.51758 7.56339C1.3661 7.37969 1.23085 7.16628 1.11181 6.92315C0.992792 6.68003 0.903522 6.44771 0.844004 6.22619C0.784724 6.00597 0.745615 5.78083 0.727158 5.55354L0.697926 5.21317L0.714157 5.21641L0.730388 5.22127L0.746619 5.22937L0.762849 5.23748L0.77908 5.24558L0.795311 5.25369L1.04689 5.36715C1.21462 5.44279 1.42291 5.50762 1.67178 5.56165C1.92066 5.61567 2.06943 5.6454 2.11812 5.65079L2.19116 5.6589H2.33724L2.33401 5.65403L2.32913 5.65079L2.32426 5.64755L2.32101 5.64269L2.31778 5.63783L2.31289 5.63458L2.30803 5.63134L2.30478 5.62648L2.28855 5.61838L2.27232 5.61027L2.26909 5.60541L2.2642 5.60217L2.25933 5.59893L2.25609 5.59406L2.23986 5.58596L2.22362 5.57785L2.22039 5.57299C2.21715 5.57082 2.17061 5.53625 2.08079 5.46926C1.99206 5.40118 1.89901 5.31312 1.80162 5.20506C1.70424 5.097 1.60685 4.98354 1.50947 4.86469C1.4119 4.74556 1.32501 4.6181 1.24977 4.48379C1.17404 4.34872 1.09396 4.1769 1.00956 3.96836C0.926245 3.76089 0.862945 3.5518 0.819657 3.34109C0.776386 3.13039 0.75204 2.92238 0.746619 2.71707C0.741214 2.51176 0.746619 2.33617 0.762849 2.1903C0.77908 2.04442 0.811542 1.87963 0.860234 1.69594C0.908927 1.51225 0.979271 1.31775 1.07124 1.11244L1.2092 0.804479L1.21731 0.780166L1.22543 0.755853L1.23031 0.752612L1.23354 0.747749L1.23679 0.742887L1.24166 0.739645L1.24654 0.742887L1.24977 0.747749L1.25302 0.752612L1.25789 0.755853L1.26278 0.759095L1.26601 0.763958L1.26925 0.76882L1.27412 0.772062L1.28224 0.78827L1.29035 0.804479L1.29524 0.80772L1.29847 0.812583L1.51758 1.05571C1.66366 1.21779 1.8368 1.39879 2.03697 1.59869C2.23716 1.79859 2.34807 1.90232 2.3697 1.90989C2.39135 1.91853 2.41839 1.94338 2.45086 1.98445C2.48332 2.02444 2.59153 2.12007 2.77547 2.27134C2.95943 2.42261 3.20019 2.59821 3.49775 2.79811C3.79532 2.99801 4.12534 3.19522 4.48783 3.38972C4.85033 3.58422 5.23987 3.75981 5.65645 3.91649C6.07304 4.07318 6.3652 4.17583 6.53291 4.22445C6.70064 4.27308 6.98738 4.3352 7.39315 4.41085C7.79892 4.48649 8.10461 4.53512 8.31019 4.55673C8.51579 4.57833 8.65646 4.59076 8.73219 4.594L8.84581 4.59725L8.84258 4.57293L8.83769 4.54862L8.80523 4.34602C8.78359 4.21095 8.77277 4.02185 8.77277 3.77872C8.77277 3.5356 8.79171 3.31138 8.82958 3.10607C8.86746 2.90076 8.92427 2.69276 9 2.48205C9.07575 2.27134 9.14988 2.10222 9.22236 1.97473C9.29595 1.8483 9.39225 1.70405 9.51127 1.54196C9.63031 1.37988 9.7845 1.2124 9.97385 1.0395C10.1632 0.866605 10.3796 0.712626 10.6231 0.577561C10.8665 0.442496 11.0911 0.339832 11.2967 0.269601C11.5023 0.19937 11.6754 0.153435 11.8161 0.13183C11.9567 0.110224 12.0271 0.097792 12.0271 0.0945503Z" fill="#F5EBE2"/>
</svg>
