<svg width="32" height="32" viewBox="0 0 32 32" fill="none" xmlns="http://www.w3.org/2000/svg">
<g id="favicon 32*32_variant1">
<rect width="32" height="32" fill="white"/>
<g id="Union">
<path d="M13.734 6C13.5631 6 13.4245 6.14425 13.4245 6.3222C13.4245 6.50015 13.5631 6.70231 13.734 6.70231C14.4311 6.75174 14.972 7.34882 14.972 8.0688V8.83818C14.972 9.01612 15.1106 9.16038 15.2815 9.16038H17.7574C17.9283 9.16038 18.0669 9.01612 18.0669 8.83818V8.0688C18.0669 7.34882 18.6078 6.75174 19.3049 6.70231C19.4758 6.70231 19.6143 6.50015 19.6143 6.3222C19.6143 6.14425 19.4758 6 19.3049 6H13.734Z" fill="#790204"/>
<path d="M9.82471 21.704V17.423C9.82471 13.1564 12.8731 9.69761 16.6335 9.69761C20.3939 9.69761 23.4423 13.1564 23.4423 17.423V21.625L28.0381 8.14136C28.2073 7.58926 28.098 7.09316 27.7102 6.65308C27.6819 6.62107 27.622 6.58106 27.5303 6.53306C27.4386 6.48505 27.3928 6.38503 27.3928 6.233C27.3928 6.08097 27.4386 6.00495 27.5303 6.00495H30.8625C30.9542 6.00495 31 6.07697 31 6.221C31 6.35702 30.9824 6.44104 30.9471 6.47304C30.9189 6.49705 30.8766 6.52505 30.8202 6.55706C30.5874 6.67708 30.33 7.10517 30.048 7.84131C29.2863 9.78568 28.232 12.7222 26.885 16.651C25.5381 20.5717 24.4732 23.5283 23.6904 25.5207C23.6672 25.5839 23.5845 25.6262 23.4423 25.6479V25.6644H23.2165C23.202 25.6646 23.1872 25.6647 23.1721 25.6647C23.157 25.6647 23.1421 25.6646 23.1277 25.6644H22.5686C22.0256 25.6644 21.5853 25.2108 21.5853 24.6512V17.423C21.5853 14.5139 19.1974 11.8045 16.6335 11.8045C15.4124 11.8045 14.2312 12.4191 13.3288 13.3772C13.7869 13.2242 14.2717 13.1421 14.7733 13.1421C17.5936 13.1421 19.8799 15.7362 19.8799 18.9361V25.1292C19.8799 25.4248 19.6473 25.6646 19.3604 25.6646C19.0735 25.6646 18.8408 25.4248 18.8398 25.1292L18.8392 24.9651C18.8384 24.7512 18.8376 24.5385 18.8376 24.2828V19.2232C18.8376 16.0232 16.5513 13.4291 13.731 13.4291C13.5715 13.4291 13.4138 13.4374 13.2581 13.4537C12.3056 14.5011 11.6817 15.936 11.6817 17.423V24.6512C11.6817 25.2108 11.2414 25.6644 10.6984 25.6644H9.82471V25.6588C9.77313 25.6628 9.7159 25.6647 9.65303 25.6647C9.34274 25.6647 9.16643 25.6167 9.12412 25.5207L7.5268 21.8L4.75529 15.0067L1.95205 7.84131C1.67701 7.11317 1.4055 6.67708 1.13752 6.53306C1.04584 6.48505 1 6.38503 1 6.233C1 6.08097 1.04584 6.00495 1.13752 6.00495H4.96685C5.05853 6.00495 5.10437 6.07697 5.10437 6.221C5.10437 6.35702 5.08674 6.44104 5.05148 6.47304C5.02327 6.49705 4.98096 6.52505 4.92454 6.55706C4.86812 6.58106 4.82228 6.61307 4.78702 6.65308C4.39915 7.09316 4.28984 7.58926 4.4591 8.14136L9.82228 21.704H9.82471Z" fill="#790204"/>
</g>
</g>
</svg>
