<svg xmlns="http://www.w3.org/2000/svg" fill="none" viewBox="0 0 137 20"><path fill="#FFF" d="M12.9511 0c-.1738 0-.3147.14671-.3147.3277 0 .18098.1409.38658.3147.38658.709.05027 1.2591.65753 1.2591 1.38979v.7825c0 .18098.1409.32769.3148.32769h2.5181c.1739 0 .3148-.14671.3148-.32769v-.7825c0-.73226.5501-1.33952 1.2591-1.38979.1738 0 .3147-.2056.3147-.38659C18.9317.14672 18.7908 0 18.617 0h-5.6659ZM35.7064.00475h-3.4858c-.0932 0-.1398.07731-.1398.23194 0 .15462.0466.25634.1398.30517.0933.04883.1543.08952.1829.12207.3443.39062.5165.88297.5165 1.47704V17.8635c0 .2767-.0502.5534-.1507.8301-.1004.2685-.1972.4557-.2904.5615-.0861.0976-.1578.1628-.2152.1953-.0574.0244-.104.0529-.1399.0855-.0287.0244-.043.1098-.043.2563 0 .1383.0466.2075.1398.2075h3.4858c.0933 0 .1399-.0773.1399-.2319 0-.1546-.0466-.2564-.1399-.3052-.0932-.0488-.1542-.0895-.1829-.1221-.3442-.3906-.5164-.8829-.5164-1.477V2.14097c0-.27669.0502-.54931.1507-.81787.1004-.27669.1936-.46386.2797-.56152.0932-.10579.1685-.1709.2259-.1953.0574-.03256.1004-.06104.1291-.08546.0359-.03255.0538-.118.0538-.25634 0-.14648-.0466-.21973-.1399-.21973ZM41.4175.00475c.0645 0 .1255.03256.1829.09766L53.6285 14.5798h.0753V2.14097c0-.58594-.1757-1.07828-.5271-1.47704-.0287-.03255-.0897-.07324-.1829-.12207-.0933-.04883-.1399-.15055-.1399-.30517 0-.15463.0466-.23194.1399-.23194h3.5181c.0932 0 .1398.07325.1398.21973 0 .13834-.0179.2238-.0538.25634-.0287.02442-.0717.0529-.1291.08545-.0574.02442-.1327.08952-.2259.19531-.0933.1058-.1937.29297-.3013.56152-.1004.26856-.1506.54118-.1506.81787V19.3527c0 .3012-.0358.4843-.1076.5494-.0645.0651-.1721.0976-.3227.0976-.1506 0-.2726-.0488-.3658-.1465L41.4713 3.56918V17.8635c0 .6266.1578 1.119.4734 1.477.0287.0326.0896.0733.1829.1221.0932.0488.1398.1506.1398.3052 0 .1546-.0466.2319-.1398.2319h-3.4643c-.0933 0-.1399-.0692-.1399-.2075 0-.1465.0144-.2319.0431-.2563.0358-.0326.0824-.0611.1398-.0855.0574-.0325.104-.0692.1399-.1099.3586-.4069.5379-.8992.5379-1.477V2.14097c0-.60221-.1685-1.09456-.5056-1.47704-.0287-.03255-.0897-.07324-.1829-.12207-.0933-.04883-.1399-.15055-.1399-.30517 0-.15463.0466-.23194.1399-.23194h2.7219ZM70.2492 7.45099c-.3443.39062-.7782.58593-1.3018.58593h-6.7887V1.98228h7.1437c.8105 0 1.3054.08138 1.4847.24414.1865.15462.3013.27262.3443.354.0502.07324.0932.13427.1291.1831.0359.04069.0682.06104.0968.06104.0359 0 .104-.02035.2045-.06104.1075-.04069.1613-.07731.1613-.10986 0-.03255-.0502-.19124-.1506-.47607l-.3443-.98876c-.1291-.37435-.2187-.66325-.2689-.8667-.0502-.21158-.1112-.31738-.1829-.31738H59.3722c-.0932 0-.1398.07731-.1398.23194 0 .15462.0466.25634.1398.30517.0933.04883.1542.08952.1829.12207.3443.39062.5164.88297.5164 1.47704V17.8635c0 .2767-.0502.5534-.1506.8301-.1004.2685-.1972.4557-.2905.5615-.086.0976-.1578.1628-.2151.1953-.0574.0244-.104.0529-.1399.0855-.0287.0244-.043.1098-.043.2563 0 .1383.0466.2075.1398.2075h11.4042c.0789-.0325.1398-.1424.1829-.3296.0502-.1953.1398-.4801.2689-.8545l.3443-.9887c.1004-.2848.1506-.4435.1506-.4761 0-.0325-.0538-.0692-.1613-.1099-.1005-.0406-.1722-.061-.2152-.061-.0359 0-.0933.061-.1722.1831-.0717.1221-.2008.2645-.3873.4273-.1793.1546-.6742.2319-1.4847.2319h-7.1437v-8.0078h6.7887c.2439 0 .4841.0529.7208.1587.2439.1058.4089.2116.4949.3174.0933.0977.1507.179.1722.2442.0287.0651.0538.118.0753.1586.0287.0326.104.0489.2259.0489.1291 0 .1937-.0529.1937-.1587V7.24347c0-.1058-.0682-.15869-.2044-.15869-.1363 0-.226.05289-.269.15869-.043.10579-.0789.17496-.1076.20752Z"/><path fill="#FFF" fill-rule="evenodd" d="M89.6114 18.1321 96.6906.15124c.0358-.09766.2116-.14649.5272-.14649.3155 0 .4949.04883.5379.14649L105.05 18.1321c.28.7405.556 1.184.828 1.3305.094.0488.14.1506.14.3052 0 .1546-.046.2319-.14.2319h-3.894c-.093 0-.14-.0692-.14-.2075 0-.1465.014-.2319.043-.2563.036-.0326.082-.0611.14-.0855.057-.0325.104-.0692.14-.1099.272-.3092.409-.594.409-.8544 0-.2686-.026-.4883-.076-.6592l-1.56-4.187h-7.7567l-1.5278 4.187c-.0502.1709-.0753.3011-.0753.3906v.1587c0 .3337.1363.6551.4089.9643.0287.0326.0896.0733.1829.1221.0932.0488.1398.1506.1398.3052 0 .1546-.0466.2319-.1398.2319h-3.389c-.0932 0-.1399-.0692-.1399-.2075 0-.1465.0144-.2319.0431-.2563.0358-.0326.0824-.0652.1398-.0977.2367-.1139.4985-.5493.7854-1.3061Zm4.3357-6.4331c-.0143.0244-.0179.057-.0107.0977.0072.0325.0215.0488.043.0488h6.1436c.021 0 .035-.0163.043-.0488.007-.0407.003-.0733-.011-.0977l-3.1094-7.66596h-.0753L93.9471 11.699ZM123.164 19.9997h5.412c1.212 0 2.349-.2848 3.411-.8545 1.068-.5778 1.961-1.3346 2.678-2.2705.725-.9358 1.295-2.006 1.711-3.2104.416-1.2125.624-2.4536.624-3.7231 0-1.9938-.373-3.68649-1.119-5.07809-.746-1.39972-1.685-2.48207-2.819-3.24704-1.599-1.07421-3.274-1.61132-5.024-1.61132h-4.874c-.093 0-.139.07731-.139.23194 0 .15462.046.25634.139.30517.094.04883.155.08952.183.12207.345.39062.517.88297.517 1.47704V17.8635c0 .2767-.05.5534-.151.8301-.1.2685-.197.4557-.29.5615-.086.0976-.158.1628-.215.1953-.058.0244-.104.0529-.14.0855-.029.0244-.043.1098-.043.2563 0 .1383.046.2075.139.2075Zm3.443-1.9165c-.437 0-.656-.1505-.656-.4516V2.202c0-.07324.021-.13427.065-.1831.05-.04883.104-.07324.161-.07324h1.657c1.198 0 2.255.21158 3.174.63476.918.41503 1.653.99283 2.205 1.73338 1.105 1.48111 1.657 3.35691 1.657 5.6274 0 1.8636-.33 3.4505-.99 4.7607-1.133 2.2461-3.156 3.3732-6.068 3.3813h-1.205Z" clip-rule="evenodd"/><path fill="#FFF" d="M110.686 2.18986c.108-.12206.237-.1831.387-.1831h1.991c.925 0 1.753.24007 2.485.72021.731.472 1.097 1.22476 1.097 2.25828s-.38 1.85546-1.14 2.4658c-.99.80566-2.367 1.20849-4.131 1.20849-.072 0-.108.04069-.108.12207v.74462c0 .25228.007.45166.021.59817 0 .0081.087.0285.259.061 1.212.1953 2.657 1.5788 4.335 4.1504.904 1.3834 1.618 2.8401 2.141 4.37.029.0814.043.1954.043.3418.008.1384-.01.232-.053.2808-.036.0488-.083.0895-.14.1221-.058.0244-.104.0529-.14.0854-.029.0244-.043.1099-.043.2564 0 .1383.046.2075.14.2075h3.486c.093 0 .139-.0936.139-.2808 0-.1871-.107-.3133-.322-.3784-.216-.0651-.485-.4313-.807-1.0986l-.882-1.7822c-.287-.5615-.732-1.2858-1.335-2.1729-.602-.887-1.122-1.5787-1.56-2.0751-.437-.5046-.878-.9563-1.323-1.355-.445-.3988-.739-.647-.882-.7446L114 9.89244c0-.02441.175-.05289.527-.08545.351-.04069.864-.23193 1.538-.57372 1.836-.92773 2.755-2.38849 2.755-4.38229 0-1.6927-.535-2.91339-1.604-3.66208-1.061-.75683-2.381-1.14339-3.959-1.15966h-5.519c-.093 0-.14.07324-.14.21972 0 .14649.047.24414.14.29297.093.04883.154.08952.183.12207.344.39062.516.88297.516 1.47704V17.8636c0 .2767-.05.5534-.15.83-.101.2686-.197.4558-.291.5616-.086.0976-.157.1627-.215.1953-.057.0244-.104.0529-.14.0854-.028.0244-.043.1099-.043.2564 0 .1383.047.2075.14.2075h3.486c.093 0 .14-.0773.14-.2319 0-.1547-.047-.2564-.14-.3052-.093-.0488-.154-.0895-.183-.1221-.344-.3906-.516-.883-.516-1.477V2.61711c0-.1709.053-.31331.161-.42725ZM8.97517 15.9717v-4.354c0-4.33931 3.10033-7.85704 6.92483-7.85704s6.9249 3.51773 6.9249 7.85704v4.2737l4.6742-13.71353c.1721-.56152.0609-1.06607-.3335-1.51366-.0287-.03255-.0897-.07324-.1829-.12207-.0933-.04882-.1399-.15055-.1399-.30517s.0466-.23193.1399-.23193h3.3889c.0933 0 .1399.07324.1399.21972 0 .13835-.0179.2238-.0538.25635-.0287.02441-.0717.0529-.1291.08545-.2367.12207-.4985.55745-.7854 1.30614-.7746 1.97752-1.8469 4.96415-3.2168 8.9599-1.37 3.9876-2.453 6.9946-3.2491 9.0209-.0236.0643-.1077.1074-.2524.1294v.0168h-.2297a3.3127 3.3127 0 0 1-.0903 0h-.5686c-.5523 0-1-.4614-1-1.0305v-7.3515c0-2.95861-2.4286-5.7142-5.0363-5.7142-1.2419 0-2.4433.62507-3.361 1.59946.4659-.15558.9589-.23907 1.4692-.23907 2.8683 0 5.1936 2.6383 5.1936 5.89281v6.2986c0 .3007-.2365.5445-.5284.5445-.2918 0-.5284-.2438-.5294-.5445l-.0007-.1669c-.0008-.2175-.0016-.4338-.0016-.6939v-5.1459c0-3.2545-2.3253-5.89279-5.1937-5.89279-.1621 0-.3226.00843-.4809.02493-.9687 1.06532-1.6033 2.52466-1.6033 4.03696v7.3515c0 .5691-.4477 1.0305-1.00002 1.0305h-.88861v-.0057c-.05246.004-.11066.006-.17461.006-.31558 0-.49489-.0488-.53793-.1465l-1.62455-3.7841-2.81876-6.90916L.96828 1.8727C.68855 1.13215.4124.68863.13986.54214.04662.49332 0 .3916 0 .23697S.04662.00504.13986.00504H4.0345c.09324 0 .13986.07324.13986.21972 0 .13835-.01793.2238-.05379.25635-.02869.02441-.07173.0529-.12911.08545-.05738.02441-.104.05696-.13986.09765-.39448.44759-.50565.95214-.33352 1.51366L8.9727 15.9717h.00247ZM77.7931 19.6101c0 .181.1409.3277.3147.3277h5.6658c.1739 0 .3148-.1467.3148-.3277s-.1409-.3866-.3148-.3866c-.7089-.0502-1.259-.6575-1.259-1.3897v-.7825c0-.181-.141-.3277-.3148-.3277h-2.5181c-.1739 0-.3148.1467-.3148.3277v.7825c0 .7322-.5502 1.3395-1.2591 1.3897-.1738 0-.3147.2056-.3147.3866ZM73.2121 0h3.4966c.0935 0 .1403.07324.1403.21972 0 .13835-.018.2238-.054.25635-.0288.02441-.0719.0529-.1295.08545-.0575.02441-.1331.08952-.2266.1953-.0864.09766-.1799.28484-.2806.56153-.1007.26855-.1511.54117-.1511.81786v6.1836c0 3.15589 2.1523 5.71429 4.9337 5.71429 2.7815 0 4.9338-2.5584 4.9338-5.71429v-6.1836c0-.59407-.1727-1.08642-.518-1.47704-.0288-.03255-.09-.07324-.1835-.12207-.0935-.04882-.1403-.15055-.1403-.30517S85.0797 0 85.1732 0h3.4966c.0936 0 .1403.07324.1403.21972 0 .13835-.018.2238-.0539.25635-.0288.02441-.072.0529-.1295.08545-.0576.02441-.1331.08952-.2267.1953-.0863.09766-.1798.28484-.2806.56153-.1007.26855-.151.54117-.151.81786v6.1836c0 4.33939-3.2029 7.85709-7.0275 7.85709-3.8245 0-7.0273-3.5177-7.0273-7.85709v-6.1836c0-.59407-.1727-1.08642-.5181-1.47704-.0287-.03255-.0899-.07324-.1834-.12207-.0936-.04882-.1403-.15055-.1403-.30517S73.1185 0 73.2121 0Z"/></svg>