<svg width="60" height="70" viewBox="0 0 60 70" fill="none" xmlns="http://www.w3.org/2000/svg">
<mask id="mask0_1047_1314" style="mask-type:alpha" maskUnits="userSpaceOnUse" x="-17" y="-12" width="95" height="95">
<circle cx="30.3443" cy="35.3443" r="47.3443" fill="#D9D9D9"/>
</mask>
<g mask="url(#mask0_1047_1314)">
<path d="M10.6621 53.3823C10.6621 53.3823 15.1948 51.5816 16.033 51.5195L16.0951 52.2336C16.0951 52.2336 12.4938 53.7859 12.2765 54.0342C12.0902 54.2516 10.6621 53.3823 10.6621 53.3823Z" fill="#7E5D6D"/>
<path d="M66.6063 93.6798H-11.9084C-11.9084 93.6798 -11.4428 79.2745 -6.72381 68.9984C-3.15355 61.237 5.41508 56.1144 11.6553 53.8791C13.4249 53.2582 14.7909 52.5752 16.0638 52.2337C16.0638 52.3889 16.1569 53.5376 16.1569 53.6618C16.1569 53.6618 19.7893 48.2598 30.8726 48.8497C35.9951 49.1291 40.0932 50.5262 40.0932 50.5262C40.6831 50.402 39.8448 53.4445 40.3726 53.2892C40.5589 53.2272 40.9314 55.0899 41.0867 55.0278C45.0916 56.0834 49.9968 59.0638 57.1063 65.0245C65.1782 71.7925 66.6063 93.6798 66.6063 93.6798Z" fill="#7D0006"/>
<path d="M51.4871 62.1065C53.4932 62.1065 55.1194 60.4802 55.1194 58.4741C55.1194 56.4681 53.4932 54.8418 51.4871 54.8418C49.481 54.8418 47.8547 56.4681 47.8547 58.4741C47.8547 60.4802 49.481 62.1065 51.4871 62.1065Z" fill="#FFFF8D"/>
<path d="M10.6619 53.3828C11.2517 53.1966 12.2763 53.3828 12.5867 53.9106C13.7975 55.8976 16.7158 61.7031 17.9266 73.2211C18.889 82.2243 17.4298 98.4302 17.4298 98.4302L-12.7156 97.0021C-12.7156 97.0021 -11.8152 81.6966 -9.17636 71.4204C-6.56852 61.4547 0.199455 56.9842 10.6619 53.3828Z" fill="white"/>
<path d="M10.4446 52.7308C11.4691 52.4513 12.711 52.6997 13.2698 53.6621C14.9462 56.4873 16.0018 59.654 16.84 62.8206C17.8335 66.7013 18.4855 70.6752 18.827 74.6491C19.3237 82.6278 18.858 90.5445 18.2371 98.5232C18.2061 98.9579 17.8335 99.2683 17.3989 99.2373L-12.7466 97.8092C-13.1812 97.8092 -13.5227 97.4366 -13.5227 96.971C-13.2122 92.4383 -12.7466 87.9677 -12.1567 83.4661C-11.5047 78.9644 -10.8217 74.4938 -9.54885 70.1164C-6.5995 60.337 1.34821 55.8353 10.4446 52.7308ZM10.9103 54.0657C6.71913 55.4938 2.1554 56.5183 -1.32173 59.4366C-2.9982 60.8647 -4.24003 62.7896 -5.41976 64.6213C-7.87238 68.3157 -8.74166 72.7242 -9.48676 77.0706C-10.6355 83.6834 -11.3185 90.3893 -11.8773 97.0641C-11.8773 97.0641 -12.6534 96.2259 -12.6224 96.2259L17.523 97.654L16.6848 98.368C16.9332 94.4252 17.1815 90.4824 17.3057 86.5396C17.7093 76.7912 17.1815 66.7945 13.6423 57.636C13.1766 56.4873 12.6799 55.3696 12.0279 54.3141C11.7796 54.0657 11.1897 53.9726 10.9103 54.0657Z" fill="#7D0006"/>
<path d="M41.8938 55.2759C41.8938 55.2759 51.4869 73.3135 48.6928 97.405H69.4003C69.4003 97.405 69.3072 78.2808 64.6503 67.8805C59.9935 57.5112 43.6945 54.4688 43.6945 54.4688C43.6945 54.4688 42.6699 54.9965 41.8938 55.2759Z" fill="white"/>
<path d="M42.639 55.5558C42.7321 55.4626 42.7632 55.2764 42.7321 55.1522V55.1211C42.8874 55.4626 43.0736 55.8041 43.2289 56.1456C47.6994 66.1113 49.8727 77.0705 49.9968 87.9675C50.0279 88.961 49.9347 91.0721 49.9037 92.0656C49.8727 93.68 49.5932 95.8842 49.5001 97.4986L48.724 96.5983H69.4315L68.6243 97.4054C68.6243 95.1081 68.5001 92.7796 68.3759 90.4822C67.8481 82.6898 66.6995 69.1849 61.2664 63.4103C57.0442 58.8777 49.5932 56.1456 43.5704 55.2453L44.0671 55.1832C43.6325 55.4005 43.1357 55.6179 42.7011 55.8041L42.4527 55.8973L42.3906 55.9283C42.4838 55.8973 42.6079 55.711 42.639 55.5558ZM41.1488 54.9969C41.273 54.7796 41.5524 54.5313 41.8318 54.4381L42.0491 54.345C42.4838 54.1587 42.9494 53.9414 43.3841 53.7241C43.5393 53.662 43.6945 53.6309 43.8498 53.693C45.0295 54.0345 46.1472 54.376 47.2648 54.7486C48.3825 55.1522 49.4691 55.5558 50.5557 56.0215C53.7844 57.4185 56.9511 59.0639 59.6521 61.2992C61.8253 63.0688 63.9985 65.0247 65.2093 67.6326C67.4135 72.6309 68.438 78.0329 69.1831 83.4038C69.8351 88.0607 70.1455 92.7175 70.2076 97.4054C70.2076 97.8401 69.8661 98.2126 69.4004 98.2126H48.6929C48.2272 98.2126 47.8547 97.778 47.9168 97.3123C48.041 95.6979 48.2893 93.5558 48.3204 91.9724C48.3514 91.01 48.4445 88.8989 48.4135 87.9675C48.3514 78.6228 46.6128 69.2469 43.322 60.492C42.7321 58.9398 42.0802 57.3875 41.3661 55.9283C41.1798 55.68 41.0867 55.2764 41.1488 54.9969Z" fill="#7D0006"/>
<path d="M41.8938 55.2762L41.1487 55.0589C41.1487 55.0589 42.2353 54.5311 42.701 54.2207L42.9804 54.0654C42.9804 54.0654 44.4706 54.7484 44.9984 54.9968C45.5261 55.2452 43.1667 56.3939 43.1667 56.3939C43.1667 56.3939 41.9869 55.3073 41.8938 55.2762Z" fill="#7E5D6D"/>
<path d="M8.08528 64.0312C8.08528 64.0312 3.80096 67.0427 4.20456 70.2404C4.60815 73.4381 17.8026 93.4626 17.8026 93.4626C17.8026 93.4626 19.3549 82.5966 17.5853 70.3025C17.5853 70.3025 16.3124 68.595 13.984 66.8875C12.4317 65.8009 10.4758 64.6832 8.08528 64.0312Z" fill="white"/>
<path d="M8.24041 64.8382C8.33355 64.8382 8.42668 64.7761 8.51982 64.714L8.45773 64.7451C6.68812 65.8627 4.51492 67.8807 4.67015 70.147C4.85642 71.1095 5.3842 72.0719 5.84988 72.9722C6.84335 74.866 7.92995 76.7287 9.0476 78.5915C11.2829 82.2859 13.6424 85.9183 16.0639 89.4885L18.5166 93.0588L17.0574 93.3693C17.3058 91.5065 17.461 89.5817 17.5541 87.6568C17.8646 81.9134 17.6473 76.1389 16.8401 70.4575L16.9953 70.83C15.8466 69.4019 14.4185 68.1601 12.9283 67.1356C11.5313 66.2042 10.0411 65.4591 8.42668 64.9624L8.36459 64.9314C8.27145 64.9003 8.27145 64.8693 8.24041 64.8382ZM7.961 63.2549C8.24041 63.2859 8.58191 63.348 8.86132 63.4412C11.5623 64.2794 14.046 65.7696 16.1571 67.6634C16.9332 68.3464 17.5852 69.0294 18.2682 69.8676C18.3613 69.9608 18.3924 70.0849 18.4234 70.2091C19.2306 76.0147 19.4479 81.8823 19.1685 87.75C19.0754 89.7059 18.9201 91.6307 18.6718 93.6176C18.6097 94.3627 17.5852 94.58 17.2126 93.9281C15.1326 90.451 12.5868 86.2598 10.5378 82.7827C9.23387 80.5474 7.40217 77.5049 6.19139 75.2696C5.50838 73.9967 4.79433 72.7238 4.26655 71.3578C4.04923 70.8611 3.92505 70.2402 3.92505 69.6503C4.14237 67.1666 5.94302 65.2418 7.58845 63.5032C7.61949 63.3791 7.80577 63.2859 7.961 63.2549Z" fill="#7D0006"/>
<path d="M58.224 70.2714C58.3481 68.2844 53.7534 65.0557 53.7534 65.0557C51.9217 65.5834 50.6178 66.4217 49.6864 67.322C47.6063 69.2779 47.3269 71.4821 47.3269 71.4821L47.4511 72.041C49.6553 81.6341 49.0034 94.1145 49.0034 94.1145C49.0034 94.1145 58.0998 72.2583 58.224 70.2714Z" fill="white"/>
<path d="M57.8513 70.2401C57.6961 68.4084 54.8089 66.5146 53.2876 65.7074L53.9706 65.8316C51.1765 66.6077 48.6928 68.6878 48.103 71.6061L48.0719 71.2957C48.5066 73.1584 48.8791 75.0832 49.0964 76.977C49.8415 82.6894 49.9968 88.4019 49.7794 94.1453C49.7794 94.1764 48.2582 93.8038 48.2582 93.8038C49.8415 90.4819 51.9216 85.5457 53.3808 82.0996C54.219 80.1437 54.9951 78.1568 55.7713 76.1698C56.5164 74.214 57.3857 72.2581 57.8513 70.2401ZM58.4102 70.2711C58.2239 71.3577 57.8203 72.3512 57.4788 73.3757C56.4232 76.3872 55.2125 79.3676 54.1259 82.379C53.1013 85.111 51.2076 90.1715 50.2451 92.8724L49.7174 94.3937C49.4069 95.263 48.103 94.9836 48.1961 94.0522C48.4134 88.4329 48.2582 82.7515 47.5131 77.1633C47.2958 75.3006 46.9232 73.4689 46.5196 71.6682C46.4576 71.3267 46.5817 70.9852 46.6749 70.6747C47.5752 67.5081 50.4314 65.1486 53.536 64.3104C53.7843 64.2172 54.0327 64.2793 54.219 64.4345C54.933 65.2417 56.0196 66.2973 56.7026 67.1355C57.4167 68.0048 58.4102 68.9983 58.4102 70.2711Z" fill="#7D0006"/>
<path d="M47.3272 71.2959C47.3272 71.2959 45.2471 63.224 44.2226 60.6472C43.1981 58.1015 41.2732 55.2142 41.1801 55.059C34.6294 48.8809 22.6458 48.8809 24.9742 46.5835C27.551 44.0377 38.2307 45.7763 42.1115 47.7011C45.5886 49.5328 60.3043 58.0704 60.801 60.9266C61.2977 64.0933 49.252 63.907 47.3272 71.2959Z" fill="white"/>
<path d="M47.3271 72.1028C46.9856 72.0717 46.613 71.7613 46.5199 71.4198V71.3887L46.4888 71.2645L46.4268 71.0162L46.3026 70.4884C45.4954 67.3838 44.7192 64.124 43.6637 61.1126C42.9186 59.1256 41.832 57.2629 40.6833 55.4312L40.7764 55.5243C39.6588 54.4377 38.3238 53.5685 36.9578 52.7923C34.1326 51.2711 31.0591 50.3086 27.9856 49.4083C26.93 49.0047 24.3532 48.5701 24.198 47.2662C24.198 45.9001 26.3091 45.3103 27.3026 45.124C31.4006 44.5031 35.5918 45.2482 39.5346 46.3348C40.5281 46.6452 41.5215 46.9868 42.4529 47.4524C42.7944 47.6387 43.7258 48.1665 44.0673 48.3528C46.8924 49.9671 49.6555 51.6747 52.3875 53.4753C55.1196 55.276 57.8826 57.0145 60.18 59.4051C62.0428 61.3299 60.9251 62.5717 58.8761 63.472C55.9578 64.776 52.7601 65.6763 50.4006 67.8185C49.5624 68.5946 48.8794 69.4949 48.4758 70.5194C48.3205 70.8609 48.3205 71.0162 48.1653 71.4198C48.0101 71.6681 47.6065 72.0096 47.3271 72.1028ZM47.3271 70.5194C47.1408 70.3952 46.7993 70.5194 46.7062 70.6747C46.6441 70.7988 46.7062 70.6747 46.7372 70.6436C46.8304 70.3953 46.9545 70.1158 47.0787 69.8675C49.314 65.5521 54.4366 64.4655 58.5346 62.758C60.1179 62.0439 61.2977 61.423 59.6522 59.7776C57.3859 57.4802 54.5918 55.8037 51.8908 54.0962C49.1277 52.4198 46.3026 50.8364 43.4464 49.3152L42.3908 48.7564C39.9692 47.4524 37.2372 46.8936 34.5362 46.459C32.1768 46.1485 27.2094 45.5897 25.4709 47.2662C25.4709 47.2662 25.5019 47.2041 25.5019 47.1109C25.5019 47.0178 25.4709 46.9868 25.4709 46.9557C25.4709 46.9557 25.564 47.0488 25.6882 47.1109C26.4954 47.5456 27.4268 47.7939 28.3581 48.0734C31.4938 49.0047 34.6915 49.9671 37.6098 51.5505C39.131 52.3887 40.6212 53.3511 41.863 54.624C43.0738 56.4868 44.2225 58.4426 45.0607 60.5227C46.1784 63.6273 46.9856 66.856 47.8549 70.0227L47.979 70.5505L48.0411 70.8299L48.0722 70.9541V70.9851C48.0101 70.7057 47.6065 70.4573 47.3271 70.5194Z" fill="#7D0006"/>
<path d="M17.5852 70.3335C17.5852 70.3335 15.412 68.0362 12.8041 66.4218C7.0296 62.8515 -1.44589 61.2061 -1.53903 58.443C-1.60112 55.3384 8.70607 48.8499 15.5361 46.6456C25.8123 43.7894 27.1472 47.1734 27.2714 48.6015C27.3335 49.2845 16.126 52.8858 16.1881 53.5999V53.6309C16.1881 53.6309 14.76 54.0966 15.7845 61.2061C16.0329 62.9757 17.1195 66.0182 17.5852 70.3335Z" fill="white"/>
<path d="M17.9267 71.0473C17.6473 71.1715 17.1816 71.0784 16.9643 70.83L16.9332 70.7679L16.8401 70.6748C16.7469 70.5506 16.4054 70.2091 16.2812 70.1159C15.5361 69.3708 14.729 68.6257 13.9218 67.9738C11.6865 66.1731 9.04759 64.9934 6.43975 63.8137C4.42177 62.9444 2.34171 62.1682 0.41687 61.0816C-2.59457 59.4052 -2.43934 57.7287 -0.172999 55.3692C2.99367 52.2646 6.78125 49.8741 10.7551 47.9182C12.2453 47.2042 13.7976 46.5522 15.3809 46.0555C18.827 45.1241 26.8989 43.3235 27.7682 48.415C27.7682 48.5081 27.7992 48.5702 27.7682 48.6944C27.7371 48.8186 27.675 48.8806 27.644 48.9427C27.2714 49.3153 26.7747 49.5016 26.3401 49.6878C24.3221 50.5261 22.242 51.2091 20.162 51.9231C18.8891 52.3888 17.5541 52.7614 16.3744 53.4133C16.3123 53.4754 16.2192 53.5375 16.2502 53.6306C15.6914 54.0963 15.7224 54.9346 15.6293 55.5865C15.5672 57.6666 15.9087 59.8398 16.3744 61.8578C16.9332 63.8757 17.6162 65.9869 18.0198 68.0669C18.144 68.7189 18.3303 69.3088 18.2992 69.9607C18.2371 70.3643 18.0819 70.7679 17.9267 71.0473ZM17.2437 69.6192C17.0884 69.495 16.809 69.5261 16.6848 69.6503C16.5296 68.5326 16.3433 67.415 16.095 66.2973C15.6603 64.2483 14.9773 62.1061 14.7911 59.964L14.6979 58.8774C14.6048 57.294 14.3564 54.3757 15.5362 53.165C15.6293 53.1029 15.6293 53.0408 15.9397 52.9166L15.3809 53.6617C15.3499 53.5065 15.5051 53.1339 15.5672 53.0718C15.7535 52.8235 15.9087 52.7614 16.126 52.6061C17.2747 51.9542 18.5165 51.5195 19.7273 51.0228C21.0933 50.495 24.4773 49.1911 25.7812 48.6323C26.0607 48.5081 26.4332 48.3529 26.6505 48.1976C26.5884 48.2908 26.5574 48.2908 26.4953 48.5081C26.4643 48.5702 26.4953 48.8496 26.4643 48.6944C26.0296 45.8382 21.559 46.3349 19.3858 46.6453C15.1326 47.3284 11.1897 49.0048 7.40216 51.0538C4.9185 52.4509 2.4038 53.9411 0.354779 55.9591C-0.328227 56.6731 -1.10437 57.4803 -1.16646 58.4427C-1.01123 59.8398 1.53452 60.7712 2.71426 61.361C5.38419 62.5097 8.14726 63.4722 10.7862 64.714C13.1456 65.8006 15.3499 67.2908 17.3058 68.9983C17.5231 69.1846 17.8956 69.5261 18.0819 69.7123C18.0509 69.6503 17.8335 69.5261 17.6473 69.495C17.5231 69.5261 17.3679 69.5571 17.2437 69.6192Z" fill="#7D0006"/>
<path d="M39.8135 64.2483C39.1615 67.446 34.9393 69.3708 27.8298 66.4836C20.4409 63.5032 17.2432 56.3937 16.436 54.2826C20.8135 46.0865 17.771 40.4052 17.771 40.4052C27.8609 39.5359 36.6779 51.3333 36.6779 51.3333L38.0439 57.1699C38.1681 57.6666 38.4164 58.1012 38.789 58.4117C39.4409 59.5604 40.2171 62.1993 39.8135 64.2483Z" fill="white"/>
<path d="M16.281 54.3758C16.8709 53.4755 17.2434 52.4199 17.4918 51.3954C17.9575 49.2532 18.1127 47.08 18.1437 44.9068V44.0996C18.0506 43.2925 17.7712 42.4542 17.4607 41.7091C17.0571 40.7157 18.5163 40.0947 18.982 41.0882C19.0441 41.2124 19.0441 41.4297 19.0441 41.5539C19.1372 45.7761 19.3235 51.2091 16.6535 54.7173C16.4673 54.9036 16.0947 54.6242 16.281 54.3758Z" fill="#7D0006"/>
<path d="M37.0194 51.2716C37.4851 51.5511 37.6403 51.9236 37.7024 52.2961C37.8887 53.0412 37.8266 53.8484 38.0129 54.6246C38.1681 55.3697 38.6338 56.0837 38.758 56.8599C38.9132 57.6671 39.3789 59.3746 39.5651 60.2128C39.6272 60.3991 39.5031 60.6164 39.2857 60.6475C39.1616 60.6785 39.0684 60.6475 38.9753 60.5854C38.5717 60.2439 38.3854 59.9024 38.137 59.4677C37.7335 58.7226 37.454 58.0396 37.2057 57.2014C36.9884 56.4563 37.0815 55.6491 36.8952 54.8729C36.74 54.1278 36.3053 53.4138 36.1501 52.6377C36.057 52.2651 36.0259 51.8615 36.3053 51.3958C36.4916 51.2095 36.8021 51.1475 37.0194 51.2716Z" fill="#7D0006"/>
<path d="M39.2548 59.4675C33.325 59.157 28.4819 57.2943 23.7629 48.8809C27.7368 52.389 32.4247 53.724 37.361 54.3449L38.0129 57.2011C38.1371 57.6978 38.8822 59.157 39.2548 59.4675Z" fill="#7D0006"/>
<path d="M39.0067 58.3187C40.0623 60.3056 40.6832 62.7893 40.0312 64.9935C39.5345 66.5458 38.1064 67.6945 36.5541 68.1291C32.9528 69.0915 28.7927 67.5703 25.5949 65.8628C21.6521 63.6585 18.7338 59.9641 16.8711 55.9281C16.7469 55.6177 17.1815 55.3693 17.3678 55.6798C18.0198 56.9837 18.7649 58.2566 19.6031 59.4053C20.4413 60.585 21.4038 61.6716 22.4904 62.634C25.657 65.4902 29.9413 67.2598 34.2257 67.2598C38.6342 67.1357 40.3106 64.8072 39.2861 60.5229C39.1309 59.8399 38.8825 59.1259 38.541 58.536C38.3547 58.2876 38.8204 58.0082 39.0067 58.3187Z" fill="#7D0006"/>
<path d="M51.0212 21.0323C51.58 23.6402 51.8594 25.7513 50.3382 32.7055C48.848 39.6287 52.4803 41.0568 43.8806 52.1402C40.3725 56.6728 31.8659 55.4 24.9738 50.7121C22.6453 49.1287 21.6519 45.0617 19.9133 42.1745C18.5473 39.9081 17.9264 42.2676 16.1257 40.3117C13.6731 37.6418 10.7238 32.2709 12.1829 22.7709C14.5424 7.37218 26.7434 5.57152 35.7777 7.27904C44.8741 9.0176 49.531 14.1712 51.0212 21.0323Z" fill="white"/>
<path d="M17.678 43.0751C16.964 41.8643 16.0326 40.8087 15.1633 39.6911C14.3251 38.5424 13.6421 37.2695 13.0832 35.9656C9.3888 26.9003 10.8169 14.1404 19.8823 8.80058C23.6388 6.62738 28.1715 6.0996 32.3937 6.4411C41.428 7.09306 49.7172 11.2532 51.6731 20.8153C52.7287 25.0375 51.3006 29.3839 50.4934 33.513C50.1208 35.562 50.4313 37.6731 50.4002 39.7842C50.3692 41.9264 49.7793 44.0686 48.9721 46.0555C48.4754 47.4215 47.6061 48.6323 46.7058 49.7499C45.2156 51.5506 43.7254 53.3823 41.8316 54.7793C41.397 55.0898 40.6208 55.245 40.093 55.3071C38.6339 55.5244 37.2058 55.5865 35.7466 55.4934C30.0342 55.245 23.9182 52.4819 21.6208 46.9558C21.5277 46.7385 21.8381 46.5833 21.9623 46.7695C24.9427 51.4885 30.4068 53.8169 35.8398 54.1274C37.5163 54.2205 39.2238 54.1895 40.8692 53.848C41.6764 53.4444 42.3904 52.7303 43.0734 52.0784C44.7499 50.4019 46.4574 48.6012 47.6682 46.5522C49.1274 43.7891 49.9346 40.7777 49.6862 37.6421C49.6241 36.245 49.5931 34.7859 49.8725 33.3888C50.1208 31.9918 50.4313 30.6568 50.6176 29.2287C50.8038 27.8627 50.897 26.4656 50.897 25.0996C50.7417 21.0947 49.4378 16.9656 46.8921 13.861C41.2728 6.87574 27.9852 5.04404 20.5032 9.82509C15.7842 12.7434 13.58 18.2074 12.8659 23.5163C11.7793 29.8806 12.0898 36.1519 17.1502 40.7777L18.6404 42.33C19.2303 43.013 18.1747 43.8202 17.678 43.0751Z" fill="#7D0006"/>
<path d="M21.3413 33.2022C21.3413 33.2022 20.3789 28.5453 15.8462 29.1042C11.9344 29.6009 10.5684 38.9767 19.4475 41.5846" fill="white"/>
<path d="M19.044 37.5184C18.33 37.1148 17.8332 36.4318 17.8022 35.5935C17.8332 34.9726 17.9264 34.2586 17.7711 33.6376C17.678 33.0478 17.0571 32.8925 16.5914 32.9236C16.0947 33.0167 15.7842 33.6377 15.6911 34.1344C15.6911 34.1654 15.66 34.2586 15.66 34.2896C15.629 34.4448 15.3806 34.4448 15.3185 34.2896C14.9149 33.0788 15.8153 31.7439 17.1192 31.8991C18.9509 32.0233 19.1992 33.9481 18.8577 35.4073C18.6715 36.0282 18.9198 36.587 19.2613 37.1148L19.3234 37.2079C19.4787 37.3942 19.2303 37.6425 19.044 37.5184Z" fill="#7D0006"/>
<path d="M43.8805 29.9113C44.3462 32.1156 45.2154 34.1646 46.3021 36.0894C47.2645 38.4489 44.7808 40.6842 42.5766 40.5911C42.3282 40.5911 42.2971 40.2496 42.5145 40.1875C43.9115 39.7529 45.1844 38.8215 45.4017 37.3934C45.4949 36.9587 45.3707 36.5862 45.1534 36.2136C44.1288 34.2888 43.5079 32.0845 43.6632 29.9113C43.6632 29.7561 43.8805 29.7561 43.8805 29.9113Z" fill="#7D0006"/>
<path d="M21.1862 33.2334C20.4721 31.4017 18.9199 29.6632 16.8398 29.6942C16.6535 29.6632 16.3431 29.7253 16.1568 29.7253C15.629 29.7563 15.1944 29.9426 14.7908 30.3151C12.8038 32.3021 13.1453 35.8102 14.7597 38.0145C15.3186 38.7906 16.0326 39.4736 16.8398 40.0325C17.647 40.5913 18.5473 41.0259 19.5097 41.3985C19.727 41.4606 19.6339 41.8021 19.4166 41.771C17.3365 41.3364 15.3496 40.3119 13.9836 38.6044C11.8725 36.0586 11.4378 31.8053 13.9525 29.3217C14.5114 28.825 15.2875 28.4524 16.0636 28.4524C16.312 28.4524 16.6846 28.3903 16.9329 28.4524C18.2369 28.5145 19.4787 29.1665 20.2859 30.191C20.9999 31.0602 21.4035 32.1158 21.5277 33.1714C21.5277 33.3576 21.2483 33.4197 21.1862 33.2334Z" fill="#7D0006"/>
</g>
<path d="M41.5213 43.6962C39.5344 45.59 35.7778 44.0688 34.7844 41.7714C34.6602 41.492 34.9706 41.2436 35.219 41.3678C35.7468 41.6472 36.2125 41.9266 36.7092 42.1439C38.1373 42.7959 39.6275 43.3237 41.2108 43.1685C41.5213 43.1064 41.7386 43.4789 41.5213 43.6962Z" fill="#7D0006"/>
<path d="M33.7599 30.8745C33.7599 30.9055 33.7599 30.9366 33.7599 30.9366L33.7288 31.8058C33.6978 32.5509 33.0768 33.1098 32.3317 33.0787C31.5866 33.0477 31.0278 32.3957 31.0899 31.6816L31.121 30.8124C31.121 30.6571 31.1831 30.4709 31.2451 30.3467L33.7288 30.4709C33.7288 30.595 33.7599 30.7192 33.7599 30.8745Z" fill="#7D0006"/>
<path d="M46.737 31.5569L46.7059 32.3641C46.6749 33.0471 46.085 33.5748 45.402 33.5438C44.719 33.5128 44.1912 32.9229 44.2222 32.2399L44.2533 31.4327C44.2533 31.2775 44.2843 31.1222 44.3464 30.998L46.6749 31.0912C46.7059 31.2464 46.737 31.4016 46.737 31.5569Z" fill="#7D0006"/>
<path d="M36.8644 26.6207C37.5474 26.7138 38.0752 25.9998 37.8268 25.3168C37.7026 24.9442 37.4853 24.6027 37.1438 24.3854C36.0882 23.7334 32.1454 23.6714 30.0653 25.1616C28.2026 26.5276 33.7598 26.1861 36.8644 26.6207Z" fill="#7D0006"/>
<path d="M45.4641 26.9627C44.9052 26.9627 44.5637 26.2486 44.8431 25.6587C44.9984 25.3483 45.2157 25.0689 45.5262 24.9136C46.4886 24.448 49.0654 24.7274 50.2141 26.3107C51.2386 27.7078 48.0409 26.9316 45.4641 26.9627Z" fill="#7D0006"/>
<path d="M35.7466 30.8739L30.624 30.7808C30.0031 30.7497 30.0342 29.8183 30.6551 29.8494L35.7776 30.2219C36.2123 30.253 36.1812 30.8739 35.7466 30.8739Z" fill="#7D0006"/>
<path d="M48.0411 31.4015L44.2535 31.4636C43.6326 31.4636 43.6015 30.5633 44.2224 30.5322C44.2535 30.5322 44.2535 30.5322 44.2845 30.5322L48.0721 30.9358C48.3515 30.9669 48.3205 31.3705 48.0411 31.4015Z" fill="#7D0006"/>
<path d="M53.3807 13.6438C55.5849 5.665 46.6438 0.666635 44.2532 4.26794C42.5147 6.87578 35.8088 4.85781 25.6258 4.67154C15.4428 4.45422 12.7107 9.85617 12.5866 15.6617C12.5866 15.6617 8.11597 18.0212 8.39538 26.3415C8.6748 34.9722 17.5539 41.9264 18.6405 46.3039C18.6405 46.3039 18.7647 46.8627 17.5849 40.8709C10.817 37.6111 12.2451 29.5702 15.8774 29.1045C18.6405 28.763 20.0996 30.3774 20.7826 31.6813C21.062 32.0539 23.7009 35.2826 23.763 24.7271C23.7941 17.5245 30.8104 15.165 38.7892 18.0833C42.9493 19.6045 47.3268 20.7222 50.3382 18.549C50.8349 19.9771 51.3627 21.5604 50.9591 23.4853C52.1699 22.3676 53.1944 20.7222 53.4738 18.7042C53.6601 17.4934 53.3496 16.4379 52.6666 15.5065C52.946 14.9787 53.1944 14.3268 53.3807 13.6438Z" fill="#7D0006"/>
</svg>
