<svg width="60" height="70" viewBox="0 0 60 70" fill="none" xmlns="http://www.w3.org/2000/svg">
<g clip-path="url(#clip0_1047_1304)">
<mask id="mask0_1047_1304" style="mask-type:alpha" maskUnits="userSpaceOnUse" x="-14" y="-10" width="95" height="95">
<ellipse cx="33.3443" cy="37.3443" rx="47.3443" ry="47.3443" fill="#D9D9D9"/>
</mask>
<g mask="url(#mask0_1047_1304)">
<path d="M59.2992 76.4321C59.0819 76.5873 58.8335 76.7426 58.6162 76.8978C58.3678 77.053 58.1505 77.2082 57.9021 77.3324C57.6848 77.4566 57.4985 77.5808 57.2812 77.705C57.2502 77.736 57.2191 77.736 57.1881 77.7671C56.474 78.2017 55.7289 78.6053 54.9838 78.9779C54.7665 79.102 54.5181 79.2262 54.3008 79.3194C54.3008 79.3194 54.2698 79.3504 54.2387 79.3504C53.9904 79.4746 53.742 79.5988 53.4936 79.723C52.9969 79.9713 52.4691 80.1886 51.9724 80.406C51.724 80.5301 51.4446 80.6233 51.1962 80.7164C50.9479 80.8096 50.6685 80.9337 50.4201 81.0269C50.1717 81.12 49.8923 81.2442 49.644 81.3373C49.644 81.3373 49.644 81.3373 49.6129 81.3373C49.3645 81.4305 49.0851 81.5236 48.8368 81.6167C48.2779 81.803 47.6881 81.9893 47.1292 82.1756C46.943 82.2377 46.7257 82.2998 46.5394 82.3618C45.9495 82.5481 45.3596 82.7033 44.7698 82.8275C44.5525 82.8896 44.3351 82.9207 44.0868 82.9828C43.5279 83.1069 42.9381 83.2311 42.3793 83.3553C42.2551 83.3864 42.1619 83.3864 42.0378 83.4174C41.8515 83.4484 41.6342 83.4795 41.4479 83.5105C41.1685 83.5416 40.9201 83.6037 40.6407 83.6347C40.5165 83.6658 40.3923 83.6658 40.2681 83.6968C40.1129 83.7279 39.9266 83.7589 39.7404 83.7589C39.2436 83.821 38.7159 83.8831 38.2191 83.9452C38.0639 83.9762 37.8776 83.9762 37.7224 84.0073H37.6913C37.474 84.0383 37.2567 84.0383 37.0394 84.0694C36.8221 84.1004 36.6047 84.1004 36.3874 84.1004C36.2632 84.1004 36.108 84.1315 35.9838 84.1315C35.7355 84.1315 35.5181 84.1625 35.3008 84.1625C34.9904 84.1625 34.7109 84.1935 34.4005 84.1935C34.09 84.1935 33.8106 84.1935 33.5002 84.1935C33.2828 84.1935 33.0655 84.1935 32.8482 84.1935C19.7469 84.0073 7.98056 78.4501 -0.432839 69.6331C-0.432839 69.6331 -0.43284 69.602 -0.463886 69.602C-1.39526 69.1364 -0.743298 63.8275 3.01324 61.0024C7.73219 57.4321 19.1881 55.6625 19.1881 55.6625C19.1881 55.6625 23.5655 54.9484 39.8025 58.3324C48.4953 60.1331 56.5672 62.9893 59.5165 67.9566C60.3237 69.3226 62.2796 71.9926 61.9381 74.0105C61.7518 75.0971 60.2306 75.5939 59.2992 76.4321Z" fill="white"/>
<path d="M62.2221 74.0174L62.2296 74.0353C62.2251 74.0487 62.2179 74.0671 62.2064 74.0923C62.1933 74.1209 62.1803 74.1467 62.1633 74.1804C62.1608 74.1855 62.1581 74.1907 62.1554 74.1962C61.455 75.2731 60.36 76.0335 59.2163 76.8277C59.0981 76.9097 58.9794 76.9921 58.8606 77.0753C55.2746 79.4961 51.2569 81.3365 47.1146 82.5331L47.1142 82.5332C36.5173 85.6045 24.8638 84.8644 14.7106 80.5904C18.2574 81.9665 21.9887 82.8763 25.7381 83.3233C35.5704 84.6378 45.953 83.2941 54.7825 78.6126C56.0369 77.9539 57.2654 77.2299 58.4341 76.4089C58.5049 76.361 58.5761 76.313 58.6476 76.2649C59.5053 75.6867 60.405 75.0802 61.1552 74.2908L61.5059 74.2863L61.5369 73.7275L61.4385 73.722C61.353 73.2577 61.2088 72.8099 61.0529 72.3861C60.9542 72.1179 60.8578 71.876 60.7648 71.6423C60.645 71.3416 60.5308 71.0547 60.4241 70.7435L60.42 70.7316L60.4153 70.72C59.9827 69.6384 59.5058 68.4599 58.9287 67.4335C57.743 65.2934 55.7203 63.8088 53.6685 62.704L53.6681 62.7038C51.5449 61.5629 49.2416 60.7442 46.8974 60.0566C46.8294 60.0366 46.7615 60.0168 46.6935 59.997C47.3939 60.1739 48.0918 60.3632 48.7832 60.5692C51.7606 61.4567 54.5721 62.6445 56.8768 64.4669C58.3155 65.612 59.284 67.1052 60.0781 68.7693C60.5754 69.8114 60.9875 70.8791 61.4063 71.9641C61.6681 72.6424 61.9326 73.3275 62.2221 74.0174ZM-0.508146 70.0521C-0.549798 70.0065 -0.591338 69.9609 -0.632767 69.9152L-0.629032 69.9101C-0.588857 69.9576 -0.548561 70.0049 -0.508146 70.0521ZM-0.715279 69.8079C-0.708406 69.816 -0.70153 69.8242 -0.69465 69.8324L-0.73637 69.799C-0.952849 69.5898 -1.04796 69.2361 -1.05049 68.8119C-1.04831 68.7824 -1.04597 68.7528 -1.04348 68.7233C-1.04519 68.8113 -1.04291 68.8972 -1.03603 68.9805C-1.01274 69.2624 -0.931822 69.5698 -0.715279 69.8079ZM0.971884 62.9429C1.29033 62.3697 1.59072 61.8361 2.00747 61.4715L2.00757 61.4716L2.01642 61.4635C4.66183 59.034 8.35089 57.4825 12.1661 56.5078C9.1018 57.4042 6.12869 58.6191 3.47595 60.4342L3.46053 60.4447L3.44594 60.4564C3.34628 60.5361 3.23475 60.6223 3.11797 60.7125C2.9039 60.8778 2.67218 61.0568 2.46348 61.2349C2.12865 61.5207 1.79163 61.853 1.53604 62.2545C1.1613 62.8411 0.340757 64.3582 -0.271061 65.8581C-0.538319 66.5134 -0.773479 67.1838 -0.911931 67.7827C-0.590165 66.1202 0.17187 64.5431 0.971884 62.9429Z" fill="#7D0006" stroke="#7D0006"/>
<path d="M3.66504 60.319C3.66504 60.319 5.21733 60.5052 7.35948 61.8092C11.3644 64.2618 17.6356 79.5053 6.70752 88.6327C6.70752 88.6327 4.75164 100.058 6.70752 102.231C6.70752 102.231 42.4722 104.031 57.902 102.231C57.902 102.231 59.951 95.5249 58.9575 88.3533C57.7157 79.2569 58.0882 69.6948 52.0964 61.5298C49.3644 57.8043 35.6732 54.5755 27.7565 54.6376C19.7467 54.7307 16.4248 55.569 14.3137 56.0967C12.1716 56.6556 3.82027 58.6735 3.66504 60.319Z" fill="#7D0006" stroke="#7D0006" stroke-width="5.1257" stroke-miterlimit="10" stroke-linecap="round" stroke-linejoin="round"/>
<path d="M4.59644 61.5608C8.35297 58.1147 7.91833 61.033 14.9657 59.8843C17.6667 59.4497 20.8644 57.2144 24.9935 57.3075C27.9739 57.3696 31.2026 59.6049 35.0213 60.1016C38.0948 60.5052 41.7582 59.1082 45.4216 59.8533C48.4951 60.5052 51.3513 63.2062 54.8906 64.1686" stroke="white" stroke-width="4" stroke-miterlimit="10" stroke-linecap="round" stroke-linejoin="round"/>
<path d="M4.87598 65.6903C9.28447 63.0514 8.44624 65.8145 15.4315 64.8521C18.1946 64.4795 21.4855 62.1822 25.5835 62.2132C28.626 62.2442 31.9168 64.4485 35.7665 64.821C38.9021 65.1315 42.5655 63.6103 46.26 64.2312C49.4266 64.79 52.376 67.4599 55.9462 68.2982" stroke="white" stroke-width="4" stroke-miterlimit="10" stroke-linecap="round" stroke-linejoin="round"/>
<path d="M5.15527 69.8496C9.99841 67.9248 8.94285 70.5326 15.8661 69.7875C18.7223 69.4771 22.0752 67.1797 26.1732 67.1797C29.2778 67.1797 32.6618 69.3529 36.5115 69.6633C39.7092 69.9117 43.4036 68.2352 47.0981 68.763C50.3268 69.2287 53.4004 71.8365 57.0327 72.5506" stroke="white" stroke-width="4" stroke-miterlimit="10" stroke-linecap="round" stroke-linejoin="round"/>
<path d="M42.8132 66.2483C42.1613 69.446 37.9391 71.3708 30.8296 68.4836C23.4407 65.5032 20.243 58.3937 19.4358 56.2826C23.8132 48.0865 20.7708 42.4052 20.7708 42.4052C30.8606 41.5359 39.6776 53.3333 39.6776 53.3333L41.0436 59.1699C41.1678 59.6666 41.4162 60.1012 41.7887 60.4117C42.4407 61.5604 43.2168 64.1993 42.8132 66.2483Z" fill="white"/>
<path d="M21.5502 43.8475C21.5634 44.4349 21.5769 45.0403 21.5835 45.6566C21.4512 44.911 21.1942 44.1703 20.923 43.5192C20.8731 43.3951 20.8902 43.3176 20.9134 43.2692C20.9415 43.2105 21.0008 43.1512 21.0874 43.1151C21.1737 43.0792 21.2619 43.0769 21.3313 43.1003C21.391 43.1204 21.4669 43.1688 21.5283 43.2989C21.5286 43.3001 21.5289 43.3015 21.5293 43.3031C21.5322 43.3165 21.5355 43.3374 21.5381 43.3663C21.5435 43.4259 21.5438 43.4897 21.5438 43.5539H21.5437L21.5439 43.5649C21.546 43.6586 21.5481 43.7528 21.5502 43.8475Z" fill="#7D0006" stroke="#7D0006"/>
<path d="M40.209 54.3783L40.2122 54.398L40.2171 54.4174C40.2984 54.7429 40.3273 55.0891 40.3589 55.4882L40.3606 55.5096C40.3905 55.8873 40.4241 56.3118 40.5247 56.734C40.6077 57.1279 40.7646 57.5085 40.902 57.8422C40.9129 57.8686 40.9237 57.8947 40.9343 57.9205C41.0873 58.2933 41.2123 58.6157 41.264 58.9389L41.2652 58.9466L41.2667 58.9543C41.3475 59.3746 41.5067 60.0183 41.6648 60.6467C41.6908 60.7503 41.7169 60.8536 41.7427 60.9558C41.8238 61.2773 41.9019 61.5869 41.9678 61.8576C41.8383 61.6878 41.7291 61.4966 41.5877 61.2491C41.5831 61.241 41.5785 61.2329 41.5738 61.2246C41.1892 60.5139 40.9235 59.8647 40.6851 59.0604C40.5938 58.7467 40.5648 58.41 40.5374 58.0142C40.5357 57.9898 40.534 57.9651 40.5323 57.9402C40.5076 57.5798 40.4796 57.17 40.3829 56.7636C40.2974 56.3576 40.141 55.9669 40.002 55.6196C39.9969 55.6067 39.9917 55.594 39.9867 55.5812C39.8368 55.2067 39.7074 54.8756 39.6402 54.5396L39.6378 54.5279L39.6349 54.5164C39.566 54.2407 39.5496 54.004 39.6938 53.7248C39.7074 53.7179 39.7232 53.7123 39.7399 53.7092C39.759 53.7058 39.77 53.7071 39.7742 53.7079C40.0707 53.8901 40.1642 54.1099 40.209 54.3783Z" fill="#7D0006" stroke="#7D0006"/>
<path d="M40.5252 59.3124L40.5251 59.3124L40.5276 59.3224C40.6059 59.6353 40.8495 60.1711 41.0993 60.6394C41.1452 60.7254 41.1924 60.8113 41.2402 60.8955C38.7378 60.6732 36.4661 60.1029 34.3156 58.7863C32.3523 57.5844 30.4597 55.7417 28.5838 52.913C32.0584 55.2333 35.9417 56.2629 39.9509 56.7961L40.5252 59.3124Z" fill="#7D0006" stroke="#7D0006"/>
<path d="M37.2254 69.7598V69.76L37.2395 69.7596C39.0481 69.7087 40.4977 69.2962 41.5052 68.4708C40.9302 69.0185 40.199 69.4288 39.4219 69.6469C37.4015 70.1859 35.168 69.8993 33.0208 69.2219C34.3959 69.5727 35.8098 69.7598 37.2254 69.7598Z" fill="#7D0006" stroke="#7D0006"/>
<path d="M54.0209 23.0323C54.5797 25.6402 52.717 28.4343 52.717 35.3885C52.717 42.498 51.4131 50.2284 46.0422 55.5993C41.4163 60.2251 36.1075 60.0388 29.8673 55.1647C28.998 54.4816 25.9556 52.1843 25.1794 51.4081C24.2791 50.5078 23.7824 49.8558 23.3477 49.1728C22.9752 48.5519 23.0683 44.9506 22.5405 44.1124C21.1745 41.846 20.8951 44.2986 19.1255 42.3117C16.6729 39.6418 13.7235 34.2709 15.1827 24.7709C17.5422 9.37218 29.7431 7.57152 38.7774 9.27904C47.8739 11.0176 52.5307 16.1712 54.0209 23.0323Z" fill="white"/>
<path d="M49.7597 14.5421L49.7604 14.5427C52.0684 16.7907 53.5487 19.8008 54.2148 22.9498L54.2149 22.95C54.4087 23.8638 54.2742 24.893 54.0341 25.8241C54.0339 25.8247 54.0338 25.8253 54.0336 25.8259L54.0219 25.8702C53.8174 26.6437 53.6141 27.4126 53.4269 28.1836C53.474 27.9278 53.5238 27.6702 53.5742 27.41C53.6088 27.2314 53.6436 27.0517 53.6779 26.8704C53.8686 25.8625 54.0406 24.8181 54.0242 23.7698L54.0236 23.7332L54.0177 23.697C53.4745 20.3739 51.9415 17.1776 49.6362 14.7123L49.6345 14.7104C48.3237 13.323 46.7315 12.1752 44.9706 11.2664C46.7219 12.0878 48.3444 13.1587 49.7597 14.5421ZM26.4712 9.8637C17.743 12.9559 15.4612 21.7404 14.9942 29.8633C14.9508 30.5405 14.9406 31.2167 14.9651 31.8885C14.0488 25.6579 15.3469 18.9691 19.4405 14.2646C21.6172 11.7722 24.549 10.2452 27.7117 9.47035C27.2899 9.58833 26.8759 9.71942 26.4712 9.8637ZM21.0988 44.8048C20.7963 44.3063 20.4603 43.8273 20.1126 43.3624L21.3431 44.6453C21.355 44.6655 21.3595 44.6804 21.3613 44.6895C21.3639 44.7018 21.3638 44.7137 21.3607 44.7271C21.3537 44.7573 21.3291 44.8006 21.282 44.8352C21.235 44.8698 21.1956 44.8741 21.1791 44.8722C21.1722 44.8714 21.1646 44.8694 21.1543 44.8629C21.1442 44.8565 21.124 44.8409 21.0988 44.8048ZM49.7514 50.107C49.9923 49.6475 50.2175 49.1847 50.4278 48.7188C49.741 50.5194 48.9243 52.2537 47.8372 53.8222C46.2186 56.099 43.8077 57.9013 41.0731 58.4305L41.0685 58.4315C37.3424 59.1886 33.7399 57.8561 30.6162 55.7002C31.407 56.154 32.2163 56.5674 33.0479 56.9256C36.6913 58.6019 40.0764 58.6851 42.9674 57.4197C45.8462 56.1597 48.1634 53.5943 49.7514 50.107Z" fill="#7D0006" stroke="#7D0006"/>
<path d="M24.3413 35.2022C24.3413 35.2022 23.3789 30.5453 18.8462 31.1042C14.9344 31.6009 13.5684 40.9767 22.4475 43.5846" fill="white"/>
<path d="M21.374 37.2787C21.3394 37.3977 21.3169 37.5143 21.3047 37.6283C21.3039 37.6172 21.3033 37.606 21.3027 37.5947C21.3076 37.5033 21.3143 37.4048 21.3215 37.3008C21.3573 36.7789 21.4026 36.1202 21.2612 35.5356C21.1784 35.0621 20.876 34.7595 20.5383 34.5965C20.2484 34.4565 19.9271 34.4133 19.6542 34.4195C19.7828 34.3875 19.9193 34.3778 20.0601 34.3946L20.0727 34.3961L20.0854 34.397C20.4529 34.4219 20.7116 34.5336 20.899 34.6837C21.0893 34.8361 21.2343 35.0511 21.3338 35.3233C21.5363 35.8771 21.5282 36.6107 21.374 37.2787Z" fill="#7D0006" stroke="#7D0006"/>
<path d="M48.5904 37.9705C48.3327 37.4856 48.1024 36.9841 47.9053 36.4713C48.1965 37.0966 48.5134 37.708 48.8503 38.3063C49.1909 39.1706 48.9781 40.0256 48.4286 40.7226C48.6579 40.3578 48.8214 39.9453 48.8938 39.483C49.0163 38.8889 48.8353 38.3929 48.5904 37.9705Z" fill="#7D0006" stroke="#7D0006"/>
<path d="M22.6281 32.1969C21.865 31.5846 20.9388 31.1876 19.8708 31.1939C19.7182 31.1765 19.5567 31.1904 19.4516 31.2003C19.4069 31.2045 19.3685 31.2084 19.3348 31.2117C19.2536 31.2199 19.2006 31.2253 19.1568 31.2253H19.1421L19.1274 31.2261C18.4808 31.2642 17.9376 31.4992 17.4516 31.9477L17.4443 31.9545L17.4372 31.9616C16.3242 33.0746 15.8833 34.5941 15.925 36.0972C15.9627 37.4582 16.3952 38.8403 17.1226 39.9697C15.35 37.5483 15.1229 33.8429 17.2944 31.6868C17.7848 31.2546 18.4429 30.9524 19.0636 30.9524C19.1578 30.9524 19.2849 30.9439 19.3924 30.9367C19.4419 30.9333 19.4872 30.9303 19.5233 30.9285C19.676 30.9209 19.7658 30.926 19.8117 30.9375L19.8597 30.9495L19.9091 30.9518C20.9314 31.0005 21.9164 31.4599 22.6281 32.1969Z" fill="#7D0006" stroke="#7D0006"/>
</g>
<path d="M38.5479 44.1157C38.8626 44.2879 39.1819 44.4588 39.5051 44.6004C40.7875 45.1856 42.1869 45.7055 43.69 45.6956C42.9149 46.136 41.9209 46.1538 40.9363 45.8305C39.9549 45.5082 39.0735 44.8727 38.5479 44.1157Z" fill="#7D0006" stroke="#7D0006"/>
<path d="M34.5572 33.7228L34.5582 33.711L34.5586 33.6991L34.5896 32.8315C34.6097 32.3657 34.9894 32.0304 35.4455 32.0684L35.4558 32.0693L35.4662 32.0697C35.9326 32.0891 36.2686 32.4692 36.2306 32.9257L36.2296 32.9375L36.2292 32.9494L36.1982 33.8164C36.1788 34.2409 35.804 34.5989 35.3216 34.5787C34.8551 34.5593 34.5191 34.1793 34.5572 33.7228Z" fill="#7D0006" stroke="#7D0006"/>
<path d="M47.6907 34.2629L47.6909 34.2594L47.7218 33.4542C47.7409 33.0536 48.091 32.734 48.5035 32.7527C48.9048 32.771 49.2252 33.1214 49.2065 33.5345L49.2063 33.538L49.1754 34.3432C49.1563 34.7437 48.8062 35.0634 48.3937 35.0446C47.9924 35.0264 47.672 34.6759 47.6907 34.2629Z" fill="#7D0006" stroke="#7D0006"/>
<path d="M37.5593 32.5049C36.7209 32.0761 35.7851 31.818 34.7572 31.9851C35.5439 31.6437 36.593 31.7442 37.2669 32.2496L37.2876 32.2651L37.3097 32.2784C37.3096 32.2783 37.3096 32.2783 37.3098 32.2784C37.3107 32.279 37.3177 32.2835 37.331 32.2936C37.3456 32.3047 37.3642 32.3197 37.3866 32.3391C37.4315 32.3779 37.4855 32.4289 37.5441 32.4891C37.5491 32.4943 37.5542 32.4996 37.5593 32.5049Z" fill="#7D0006" stroke="#7D0006"/>
<path d="M48.0985 32.7028C48.2057 32.6578 48.3196 32.6251 48.4357 32.6044C48.2831 32.6402 48.132 32.6954 47.9844 32.7724L47.9759 32.7768L47.9676 32.7816C47.8356 32.857 47.7274 32.9395 47.6394 33.0409C47.7468 32.8978 47.9031 32.7847 48.0985 32.7028Z" fill="#7D0006" stroke="#7D0006"/>
<path d="M40.2716 27.2749L40.2722 27.2783C40.3384 27.6591 39.9988 27.8901 39.7431 27.8049C38.9743 27.5487 38.0503 27.3191 37.1453 27.1057C36.9192 27.0524 36.6946 27.0002 36.4734 26.9487C35.7993 26.7919 35.1566 26.6424 34.6003 26.4926C34.2322 26.3934 33.9137 26.297 33.6582 26.2024C33.5568 26.1648 33.471 26.1295 33.3995 26.0969C34.4397 25.6331 35.8489 25.5474 37.1499 25.6948C37.8057 25.7691 38.4139 25.9005 38.9069 26.0599C39.4152 26.2242 39.7491 26.4018 39.9025 26.5398C40.1059 26.7228 40.2223 26.9792 40.2716 27.2749L40.2716 27.2749ZM33.1352 26.251C33.1351 26.251 33.1356 26.2505 33.1366 26.2494C33.1357 26.2505 33.1352 26.251 33.1352 26.251Z" fill="#7D0006" stroke="#7D0006"/>
<path d="M48.3692 27.822L48.371 27.8093L48.3722 27.7965C48.3957 27.5378 48.4869 27.318 48.6314 27.1734C48.7498 27.055 48.9781 26.91 49.3115 26.7814C49.6372 26.6559 50.0325 26.558 50.4563 26.5139C51.309 26.4251 52.2077 26.5591 52.8816 27.0328C52.8734 27.0368 52.8649 27.0409 52.8561 27.0451C52.7181 27.1104 52.5344 27.1787 52.3057 27.2515C51.9516 27.3643 51.5302 27.4756 51.0635 27.5988C50.9231 27.6359 50.7787 27.674 50.6308 27.7136C50.0034 27.8815 49.3264 28.0722 48.6989 28.3051C48.657 28.3189 48.5832 28.3176 48.4952 28.2278C48.4059 28.1367 48.3455 27.988 48.3692 27.822Z" fill="#7D0006" stroke="#7D0006"/>
<path d="M53.4301 19.9787C53.4685 20.1736 53.5029 20.3651 53.5334 20.5516C53.3096 20.3562 53.0353 20.2108 52.7166 20.151L52.7166 20.151L52.7097 20.1498C51.8633 20.0033 51.0376 20.1262 50.2411 20.2447C50.1884 20.2526 50.1358 20.2604 50.0834 20.2681C49.2194 20.3954 48.3332 20.5092 47.2913 20.3645L47.2895 20.3643C45.5385 20.1273 43.9287 19.7635 42.384 19.3878C42.0685 19.311 41.7551 19.2336 41.4433 19.1566C40.2361 18.8583 39.0549 18.5665 37.8847 18.3465C34.9169 17.7886 31.9591 17.6792 28.5069 19.0278C24.7448 20.4856 23.9974 24.2476 23.9311 27.5907C23.9069 28.8109 23.9732 30.0257 24.0315 31.0951C24.0536 31.5003 24.0746 31.8846 24.0891 32.2404C24.1056 32.6457 24.1137 33.0118 24.1076 33.335C23.9008 32.9582 23.6367 32.5597 23.3024 32.1847C22.3769 31.1468 20.9241 30.3065 18.7541 30.5776C17.6177 30.7185 16.7052 31.4761 16.1101 32.4959C15.5143 33.5172 15.209 34.8399 15.2855 36.2278C15.4348 38.9353 17.0373 41.9176 20.8248 43.5227C20.6483 44.0001 20.1382 44.4833 19.3811 44.6536C18.5025 44.8513 17.2963 44.601 16.1572 43.2341C13.732 40.3238 8.86725 32.764 12.1544 21.685C15.3964 10.7586 30.1981 4.87905 44.1461 10.5498C45.2813 11.0156 46.2222 11.7541 47.1715 12.5081L47.2362 12.5595C48.1413 13.2786 49.0814 14.0255 50.1577 14.407C51.0318 14.7276 51.7354 15.5007 52.2873 16.5435C52.8364 17.5812 53.2025 18.8258 53.4301 19.9787Z" fill="#7D0006" stroke="#7D0006"/>
<path d="M17.233 45.2639C16.0027 43.0606 13.6726 38.6543 12.0647 34.0918C12.1573 34.2506 12.2512 34.4113 12.3457 34.5721C12.8123 35.3661 13.2958 36.1653 13.6931 36.7086C14.0274 37.1657 14.3388 37.79 14.7056 38.5255C14.7221 38.5584 14.7386 38.5916 14.7553 38.6251C15.1345 39.385 15.5646 40.2342 16.1086 41.0115C16.6543 41.7915 17.329 42.5208 18.2118 43.0324C18.9628 43.4676 19.845 43.7338 20.8916 43.7557C20.844 44.0447 20.7608 44.4515 20.6158 44.9721C20.3387 45.9671 19.8354 47.3793 18.9219 49.1816C18.8777 49.0441 18.8292 48.8975 18.7763 48.7433C18.4445 47.7755 17.9363 46.4952 17.233 45.2639Z" fill="#7D0006" stroke="#7D0006"/>
<path d="M16.5755 40.7078C16.5743 40.7173 16.5731 40.7279 16.5717 40.7398C16.566 40.7902 16.5588 40.8625 16.5519 40.9555C16.538 41.1416 16.5252 41.4108 16.528 41.7546C16.5336 42.4424 16.6014 43.4289 16.8469 44.6464C17.3383 47.0837 18.5401 50.4371 21.3665 54.1635C26.6385 61.1142 27.0983 68.2266 25.2787 75.8042C25.2601 75.7906 25.2412 75.7767 25.2217 75.7625C24.7656 75.4283 24.0559 74.9098 23.0406 74.1721C21.0101 72.6968 17.7572 70.3444 12.8668 66.8358C8.06792 63.3928 5.14307 58.7723 4.94487 53.6789C4.74877 48.6395 7.21743 43.0159 13.4288 37.4857C13.5097 37.507 13.6092 37.5355 13.7225 37.5722C14.0441 37.6766 14.4678 37.8447 14.8902 38.0993C15.7259 38.6028 16.508 39.4083 16.5755 40.7078Z" fill="#7D0006" stroke="#7D0006"/>
<path d="M39.6009 15.2502L39.601 15.25L39.5913 15.2443C39.2267 15.0289 38.8144 15.107 38.5103 15.1942C38.2708 15.2628 37.988 15.3733 37.6922 15.4889C37.5948 15.527 37.4959 15.5656 37.3967 15.6035C36.5657 15.9208 35.49 16.2774 34.0875 16.2924C31.4448 16.2934 29.1123 17.6496 26.7854 19.4681C25.7293 20.2935 24.6558 21.2296 23.5452 22.198C23.4279 22.3002 23.3103 22.4028 23.1922 22.5057C21.9511 23.5867 20.6559 24.7027 19.2573 25.7709C15.9507 28.2883 15.065 32.5482 14.9668 36.054C14.9173 37.8217 15.0667 39.4346 15.2279 40.6044C15.2281 40.6059 15.2283 40.6073 15.2285 40.6088C14.6424 39.8342 13.9075 38.7814 13.1791 37.5214C11.5639 34.7272 10.007 30.9593 10.1258 26.9644C10.1561 26.3616 10.2164 25.7567 10.2783 25.1375C11.3751 16.3523 17.6971 8.53606 26.5305 6.56972L26.5317 6.56946C33.0763 5.09634 38.0713 5.55626 41.8179 6.97702C45.5639 8.39756 48.0971 10.7918 49.6988 13.247C51.3072 15.7125 51.9643 18.2205 51.9771 19.8379C51.9802 20.2397 51.9434 20.5724 51.8793 20.8282C51.8135 21.0907 51.7283 21.2354 51.6635 21.3026C51.6162 21.3515 51.5888 21.3557 51.547 21.3501C51.4756 21.3405 51.3252 21.2849 51.0973 21.0786C47.4735 17.7984 44.9162 16.5862 43.1001 16.4491L43.0972 16.4489C41.859 16.3625 40.6949 15.9302 39.6009 15.2502Z" fill="#7D0006" stroke="#7D0006"/>
<path d="M53.6519 6.9209L53.653 6.92151C58.3554 9.55368 59.5782 14.3445 59.0361 18.5722C58.7651 20.6858 58.0542 22.6242 57.1447 24.0306C56.2169 25.465 55.1657 26.2279 54.2531 26.2584C53.8259 26.2726 53.2766 26.0768 52.6084 25.6253C51.9495 25.1801 51.2294 24.5233 50.4744 23.7089C48.9654 22.0814 47.3707 19.8835 45.9093 17.6624C44.4502 15.4449 43.1346 13.2204 42.1832 11.5491C41.7076 10.7138 41.3236 10.0175 41.0586 9.53039C40.97 9.36769 40.8948 9.22835 40.8339 9.11498C41.0253 8.95445 41.308 8.7276 41.6691 8.4664C42.3936 7.94236 43.4274 7.28464 44.6665 6.74582C47.1469 5.66721 50.3926 5.08569 53.6519 6.9209Z" fill="#7D0006" stroke="#7D0006"/>
<path d="M43.9947 14.3573L44.012 14.3807L44.0319 14.402L44.032 14.402L44.0321 14.4022L44.0329 14.403L44.0365 14.4069L44.0519 14.4235C44.0656 14.4383 44.0863 14.4608 44.1133 14.4904C44.1673 14.5495 44.2466 14.6373 44.3466 14.7501C44.5466 14.9759 44.8292 15.3018 45.1572 15.7005C45.8147 16.4994 46.649 17.5832 47.3688 18.734C48.0944 19.8943 48.6765 21.0806 48.8699 22.0914C48.9658 22.5927 48.9599 23.0203 48.8538 23.3692C48.7513 23.7062 48.548 23.9959 48.1928 24.2269C47.8257 24.4621 47.4841 24.4622 47.136 24.3236C46.7607 24.1742 46.3787 23.8594 46.0224 23.4629C45.6716 23.0725 45.3761 22.6374 45.1665 22.2948C45.0624 22.1246 44.981 21.9799 44.9261 21.8786C44.8987 21.828 44.8779 21.7884 44.8643 21.762L44.8494 21.7328L44.8461 21.7262L44.8456 21.7252L44.8455 21.725L44.8455 21.7249L44.8455 21.7249L44.4447 20.9108L43.9712 21.6841L43.971 21.6843L43.9709 21.6845L43.9708 21.6846L43.9706 21.6849L43.9675 21.6899C43.9641 21.6953 43.9584 21.7041 43.9505 21.7163C43.9346 21.7405 43.9096 21.7777 43.8759 21.8253C43.8083 21.9208 43.706 22.0578 43.571 22.2173C43.2997 22.5379 42.9038 22.9408 42.4007 23.2827C41.4121 23.9545 40.0177 24.3944 38.2619 23.4886L38.2591 23.4872C36.5793 22.6339 36.2559 20.9783 36.4115 19.3708C36.4884 18.5757 36.6818 17.8324 36.8583 17.2843C36.9462 17.0113 37.029 16.7895 37.0893 16.6372C37.113 16.5771 37.1332 16.528 37.1488 16.4909C37.1857 16.4552 37.2374 16.4057 37.3026 16.3449C37.4472 16.2099 37.6575 16.0195 37.9174 15.8004C38.4392 15.3605 39.1516 14.813 39.9278 14.3655C40.7122 13.9133 41.5176 13.5891 42.2341 13.5451C42.9174 13.5032 43.5185 13.7119 43.9947 14.3573Z" fill="#7D0006" stroke="#7D0006"/>
<path d="M22.7062 21.2422C22.7041 21.2311 22.7021 21.2203 22.7002 21.2099C22.766 21.1412 22.8509 21.0535 22.9535 20.9499C23.2254 20.6754 23.6211 20.2892 24.1137 19.8453C25.1009 18.9557 26.467 17.8436 27.9965 16.935C29.5324 16.0226 31.193 15.3395 32.7768 15.2581C34.2691 15.1815 35.7138 15.6358 36.9676 17.0018C36.9606 17.0359 36.9526 17.0735 36.9436 17.1145C36.8946 17.3394 36.8169 17.6647 36.7034 18.06C36.4759 18.852 36.1065 19.9179 35.5394 21.0183C34.3999 23.2293 32.5068 25.5005 29.4336 26.0804C27.8751 26.3744 26.7001 26.1884 25.8092 25.778C24.9146 25.3659 24.2664 24.709 23.7962 23.9984C23.3247 23.2857 23.0399 22.5299 22.8734 21.9464C22.7905 21.656 22.7378 21.4119 22.7062 21.2422Z" fill="#7D0006" stroke="#7D0006"/>
<path d="M30.9579 41.7947L31.0993 41.9233L31.1064 41.9643L31.1213 42.0497L31.0841 42.1426L31.0835 42.1443C31.0817 42.1438 31.0799 42.1433 31.0781 42.1428C31.0559 42.1366 31.0351 42.129 31.0158 42.1205C30.9495 42.072 30.9219 42.0061 30.9142 41.9676C30.9056 41.9247 30.9082 41.8609 30.9579 41.7947ZM34.9156 41.2272C34.9196 41.2141 34.9244 41.2003 34.93 41.1855C34.9349 41.1835 34.9398 41.1816 34.9446 41.1797C34.9784 41.1663 35.0084 41.1555 35.0339 41.1476C35.0229 41.1674 35.012 41.1872 35.0017 41.2068L34.9774 41.2126L34.9156 41.2272ZM34.901 40.151C34.9009 40.151 34.9018 40.151 34.9035 40.151L34.901 40.151ZM34.8074 40.3676C34.8074 40.3674 34.8075 40.3672 34.8075 40.367L34.8074 40.3676Z" fill="#7D0006" stroke="#7D0006"/>
<path d="M51.4289 40.356L51.4393 40.3519L51.4537 40.3461C51.4499 40.3493 51.4461 40.3524 51.4423 40.3556L51.319 40.294C51.3184 40.297 51.3177 40.3001 51.317 40.3031V40.3031V40.3034V40.3037V40.304V40.3043V40.3046V40.3049V40.3052V40.3055V40.3058V40.3061V40.3064V40.3067V40.307V40.3073V40.3076V40.3079V40.3082V40.3085V40.3088V40.3091V40.3094V40.3097V40.3099V40.3102V40.3105V40.3108V40.3111V40.3114V40.3117V40.312V40.3123V40.3126V40.3128V40.3131V40.3134V40.3137V40.314V40.3143V40.3146V40.3149V40.3151V40.3154V40.3157V40.316V40.3163V40.3166V40.3168V40.3171V40.3174V40.3177V40.318V40.3182V40.3185V40.3188V40.3191V40.3193V40.3196V40.3199V40.3202V40.3204V40.3207V40.321V40.3213V40.3215V40.3218V40.3221V40.3224V40.3226V40.3229V40.3232V40.3234V40.3237V40.324V40.3242V40.3245V40.3248V40.325V40.3253V40.3256V40.3258V40.3261V40.3264V40.3266V40.3269V40.3272V40.3274V40.3277V40.3279V40.3282V40.3285V40.3287V40.329V40.3292V40.3295V40.3298V40.33V40.3303V40.3305V40.3308V40.331V40.3313V40.3315V40.3318V40.332V40.3323V40.3325V40.3328V40.333V40.3333V40.3335V40.3338V40.334V40.3343V40.3345V40.3348V40.335V40.3353V40.3355V40.3358V40.336V40.3362V40.3365V40.3367V40.337V40.3372V40.3374V40.3377V40.3379V40.3382V40.3384V40.3386V40.3389V40.3391V40.3393V40.3396V40.3398V40.34V40.3403V40.3405V40.3407V40.341V40.3412V40.3414V40.3416V40.3419V40.3421V40.3423V40.3426V40.3428V40.343V40.3432V40.3435V40.3437V40.3439V40.3441V40.3443V40.3446V40.3448V40.345V40.3452V40.3454V40.3457V40.3459V40.3461V40.3463V40.3465V40.3467V40.3469V40.3472V40.3474V40.3476V40.3478V40.348V40.3482V40.3484V40.3486V40.3488V40.349V40.3492V40.3495V40.3497V40.3499V40.3501V40.3503V40.3505V40.3507V40.3509V40.3511V40.3513V40.3515V40.3517V40.3519V40.3521V40.3523V40.3525V40.3527V40.3528V40.353V40.3532V40.3534V40.3536V40.3538V40.354V40.3542V40.3544V40.3546V40.3548V40.3549V40.3551V40.3553V40.3555V40.3557V40.3559V40.356H51.3972H51.4289ZM51.4289 40.356L51.3925 40.3706L51.379 40.4087C51.3997 40.3912 51.4207 40.3737 51.4418 40.356H51.4289ZM51.6145 40.294H51.5841L51.5582 40.3043L51.6305 40.3187L51.6145 40.294ZM51.6145 40.294H51.817V40.2844L51.6494 40.2678L51.6083 40.2843L51.6145 40.294ZM51.5546 40.2008L51.4229 39.9963C51.5591 39.9585 51.6774 39.9813 51.7611 40.0968C51.7168 40.1315 51.6733 40.1662 51.6305 40.2008H51.5546ZM51.5065 40.356H51.5453H51.5065ZM51.5165 40.294C51.5159 40.2945 51.5152 40.295 51.5146 40.2956L51.5065 40.294H51.5165ZM50.1635 41.3414C50.06 41.3854 49.992 41.2807 50.0474 41.2253L50.1635 41.3414ZM51.4871 40.2008H51.3513H51.4871Z" fill="#7D0006" stroke="#7D0006"/>
</g>
<defs>
<clipPath id="clip0_1047_1304">
<rect width="95" height="95" fill="white" transform="translate(-14 -10)"/>
</clipPath>
</defs>
</svg>
