<svg width="60" height="70" viewBox="0 0 60 70" fill="none" xmlns="http://www.w3.org/2000/svg">
<mask id="mask0_1047_1324" style="mask-type:alpha" maskUnits="userSpaceOnUse" x="-15" y="-12" width="95" height="95">
<circle cx="32.3443" cy="35.3443" r="47.3443" fill="#D9D9D9"/>
</mask>
<g mask="url(#mask0_1047_1324)">
<path d="M13.2205 54.6242C14.3071 56.549 18.4362 64.2794 19.0882 71.1095L22.9379 72.4134C22.9379 72.4134 20.0196 59.4983 14.8039 53.5065C14.8039 53.5065 14.183 53.2271 13.4068 53.7549C13.1585 53.9722 13.0343 54.3137 13.2205 54.6242Z" fill="#7D0006"/>
<path d="M46.2533 71.2029C46.2533 71.2029 46.4395 62.6032 42.714 56.9529C42.6209 56.7977 42.7451 56.5803 42.9314 56.6114C43.1797 56.6735 43.5523 56.7666 44.1422 57.046C45.1356 57.5117 48.3644 62.448 48.6438 70.5509C48.6438 70.5199 46.5637 71.2029 46.2533 71.2029Z" fill="#7D0006"/>
<path d="M56.8709 63.1308C55.2565 61.4233 50.3823 58.8775 49.5441 58.9396C49.5751 59.0017 49.5751 59.0948 49.6062 59.188C50.9101 63.8759 49.8546 70.2403 45.1046 71.2958C40.1683 72.3824 36.0392 72.5376 26.1356 71.5442C18.8709 70.8301 12.0408 64.3105 8.56371 57.853C8.22221 57.201 7.81861 56.5491 7.38397 55.9592C7.1356 55.7729 6.66992 55.804 6.32841 56.0834C5.45913 56.7974 4.31044 56.7354 4.31044 57.4184C4.31044 57.4184 -2.27126 59.4674 -4.56865 73.9037C-5.87257 82.0687 -7.70427 92.6553 -7.76636 96.2566H62.9248C62.4281 91.4135 62.9248 69.8367 56.8709 63.1308Z" fill="#7D0006"/>
<path d="M56.2811 63.69C55.3497 62.7586 54.1389 62.0446 52.9902 61.3615C51.9347 60.7406 50.6308 60.0576 49.5442 59.7472L50.2582 58.7537L50.2893 58.94C51.1585 62.5723 50.9723 66.8877 48.4576 69.8681C47.5883 70.8615 46.3154 71.5756 45.0115 71.7929C42.5899 72.2896 40.0752 72.5691 37.5915 72.5691C33.2451 72.538 28.9608 72.1965 24.6765 71.6066C21.634 70.9547 18.8089 69.4334 16.3563 67.5397C12.9102 64.8697 10.2713 61.3615 7.81867 57.7913C7.47717 57.2946 7.07357 56.8289 6.63893 56.4253L6.79416 56.6115C6.85625 56.6736 6.8873 56.6426 6.85625 56.6426C6.85625 56.6426 6.79416 56.6426 6.76311 56.6736C6.73207 56.6736 6.73207 56.6736 6.70102 56.7357C6.20429 57.1704 5.3971 57.3877 4.90037 57.6671C4.93141 57.6671 4.99351 57.4808 4.99351 57.4498L4.43468 58.1949L4.34155 58.2259L4.21736 58.288C-0.0359049 60.5854 -2.08492 66.0494 -3.20257 70.52C-4.28917 75.6115 -4.94113 80.8583 -5.81041 85.9808C-6.30715 89.3959 -6.92806 92.904 -7.08329 96.288L-7.89048 95.4808H62.9249L62.1487 96.3501C61.4968 87.7504 61.8383 70.3027 56.2811 63.69ZM57.4608 62.6034C63.4527 69.5887 63.0801 87.1295 63.7321 96.1949C63.7631 96.6295 63.4527 97.0331 63.018 97.0642C62.987 97.1262 -7.73525 97.0331 -7.7663 97.0642C-8.20094 97.0642 -8.57349 96.7227 -8.57349 96.288C-8.51139 94.4563 -8.26303 92.6867 -8.04571 90.9481C-7.33166 85.7325 -6.46238 80.5478 -5.62414 75.3632C-5.09636 71.8861 -4.38231 68.3158 -2.98525 65.0249C-1.58819 61.7651 0.491873 58.3501 3.84481 56.7668C3.90691 56.7357 3.969 56.7047 4.06213 56.6736L3.50331 57.4187C3.47226 56.3321 4.652 56.0527 5.3971 55.7423C5.89383 55.4628 6.29743 55.0593 6.91834 55.0593C7.2288 55.0282 7.78762 55.1524 8.03599 55.5249C8.47063 56.3942 8.84318 57.2635 9.21573 58.1328C9.83664 59.5298 10.6438 60.8338 11.5752 62.0445C14.9281 66.2978 19.4608 70.0233 24.8628 71.1099C26.6634 71.4204 28.5262 71.4825 30.3268 71.6377C35.201 71.9792 40.1063 72.0413 44.8563 70.8615C45.9739 70.6132 46.9363 70.0233 47.6504 69.154C49.7615 66.4841 49.7615 62.5723 48.8301 59.4057L48.768 59.1573C48.6128 58.6916 48.9853 58.1638 49.4821 58.1638C50.3824 58.1949 51.0654 58.6295 51.8726 58.971C53.8595 59.9645 55.8154 61.02 57.4608 62.6034Z" fill="#7D0006"/>
<path d="M46.9985 74.6488C41.907 76.822 25.1733 77.3187 16.6668 72.7239C11.2959 69.8367 7.81876 63.4723 6.14229 61.0197C4.90046 59.1569 4.27954 57.4184 4.27954 57.4184C4.27954 56.7354 5.45928 56.7974 6.29751 56.0834C6.63902 55.804 7.10471 55.7729 7.35307 55.9592C7.78771 56.5801 8.19131 57.201 8.53281 57.853C12.0099 64.2795 17.505 70.737 26.1047 71.5442C36.0083 72.4755 40.1374 72.3824 45.0737 71.2958C49.8237 70.2402 50.8792 63.8759 49.5753 59.188C49.5442 59.1259 49.5443 59.0327 49.5132 58.9396C50.3514 58.8775 51.9658 59.0327 52.5557 60.5229C52.5867 60.5229 54.9773 71.2648 46.9985 74.6488Z" fill="white"/>
<path d="M47.1846 75.0835C45.1356 75.9218 42.9934 76.2322 40.8512 76.4806C38.7091 76.729 36.5669 76.8221 34.4248 76.8221C29.0539 76.76 23.5898 76.2633 18.5294 74.3385C12.7548 72.2584 9.02935 67.0117 5.92478 62.0443C4.99341 60.6783 4.12412 59.2813 3.59635 57.6979C3.44112 57.2943 3.68948 56.7355 4.03099 56.4871C4.49667 56.1146 5.02445 56.1146 5.49014 55.9283C5.80059 55.8352 5.98687 55.6489 6.26628 55.4937C6.76301 55.2764 7.32184 55.0901 7.94275 55.3695C11.513 63.162 17.3807 70.613 26.5702 71.2649C32.6552 71.8237 38.8643 72.4447 44.8872 71.0476C47.3088 70.644 48.8921 68.4708 49.4509 66.1734C50.0718 63.845 49.8856 61.3303 49.2336 59.0329C49.1715 58.8156 49.3267 58.5983 49.5441 58.5983C50.879 58.4741 52.5244 59.0639 52.9901 60.461C53.5179 63.2551 53.5179 66.1113 52.7107 68.8123C51.9035 71.5754 49.8545 73.9969 47.1846 75.0835ZM46.812 74.2143C49.2957 73.2208 51.1274 71.1097 51.9656 68.595C52.8039 66.0492 52.897 63.2241 52.3692 60.5852C51.9967 59.5607 50.6927 59.126 49.5751 59.2813L49.8856 58.8466C50.9411 62.8205 50.7238 68.5329 46.781 70.9234C46.2222 71.2339 45.6012 71.4512 44.9803 71.5754C43.7695 71.8237 42.5277 72.0411 41.3169 72.1963C36.3807 72.7241 31.4133 72.3205 26.5081 71.9169C18.0947 71.4822 11.6061 64.8695 8.00484 57.729C7.75648 57.1702 7.47707 56.6424 7.19765 56.0836L7.25974 56.1456C6.79406 55.8662 6.29733 56.5182 5.86268 56.6734C5.45909 56.8907 5.02445 56.9839 4.68295 57.2012C4.62086 57.2633 4.58981 57.3254 4.58981 57.4185V57.3254C5.30386 59.2813 6.60778 61.0509 7.72543 62.7894C10.5506 67.1358 13.9656 71.5133 18.995 73.3139C26.0114 76.1081 39.6094 76.7911 46.812 74.2143Z" fill="#7D0006"/>
<path d="M41.8132 64.2483C41.1613 67.446 36.9391 69.3708 29.8296 66.4836C22.4407 63.5032 19.243 56.3937 18.4358 54.2826C22.8132 46.0865 19.7708 40.4052 19.7708 40.4052C29.8606 39.5359 38.6776 51.3333 38.6776 51.3333L40.0436 57.1699C40.1678 57.6666 40.4162 58.1012 40.7887 58.4117C41.4407 59.5604 42.2168 62.1993 41.8132 64.2483Z" fill="white"/>
<path d="M18.2807 54.3758C18.8706 53.4755 19.2432 52.4199 19.4915 51.3954C19.9572 49.2532 20.1124 47.08 20.1435 44.9068V44.0996C20.0504 43.2925 19.7709 42.4542 19.4605 41.7091C19.0569 40.7157 20.516 40.0947 20.9817 41.0882C21.0438 41.2124 21.0438 41.4297 21.0438 41.5539C21.137 45.7761 21.3232 51.2091 18.6533 54.7173C18.467 54.9036 18.0945 54.6242 18.2807 54.3758Z" fill="#7D0006"/>
<path d="M39.0192 51.2716C39.4848 51.5511 39.6401 51.9236 39.7022 52.2961C39.8884 53.0412 39.8263 53.8484 40.0126 54.6246C40.1678 55.3697 40.6335 56.0837 40.7577 56.8599C40.9129 57.6671 41.3786 59.3746 41.5649 60.2128C41.627 60.3991 41.5028 60.6164 41.2855 60.6475C41.1613 60.6785 41.0682 60.6475 40.975 60.5854C40.5714 60.2439 40.3852 59.9024 40.1368 59.4677C39.7332 58.7226 39.4538 58.0396 39.2054 57.2014C38.9881 56.4563 39.0812 55.6491 38.895 54.8729C38.7397 54.1278 38.3051 53.4138 38.1499 52.6377C38.0567 52.2651 38.0257 51.8615 38.3051 51.3958C38.4914 51.2095 38.8018 51.1475 39.0192 51.2716Z" fill="#7D0006"/>
<path d="M41.2545 59.4675C35.3248 59.157 30.4817 57.2943 25.7627 48.8809C29.7366 52.389 34.4245 53.724 39.3607 54.3449L40.0127 57.2011C40.1369 57.6978 40.882 59.157 41.2545 59.4675Z" fill="#7D0006"/>
<path d="M41.0065 58.3187C42.062 60.3056 42.6829 62.7893 42.031 64.9935C41.5342 66.5458 40.1061 67.6945 38.5538 68.1291C34.9525 69.0915 30.7924 67.5703 27.5947 65.8628C23.6519 63.6585 20.7336 59.9641 18.8708 55.9281C18.7467 55.6177 19.1813 55.3693 19.3676 55.6798C20.0195 56.9837 20.7646 58.2566 21.6029 59.4053C22.4411 60.585 23.4035 61.6716 24.4901 62.634C27.6568 65.4902 31.9411 67.2598 36.2254 67.2598C40.6339 67.1357 42.3104 64.8072 41.2859 60.5229C41.1306 59.8399 40.8823 59.1259 40.5408 58.536C40.3545 58.2876 40.8202 58.0082 41.0065 58.3187Z" fill="#7D0006"/>
<path d="M53.0209 21.0323C53.5797 23.6402 51.717 26.4343 51.717 33.3885C51.717 40.498 50.4131 48.2284 45.0422 53.5993C40.4163 58.2251 35.1075 58.0388 28.8673 53.1647C27.998 52.4817 24.9556 50.1843 24.1794 49.4081C23.2791 48.5078 22.7824 47.8558 22.3477 47.1728C21.9752 46.5519 22.0683 42.9506 21.5405 42.1124C20.1745 39.846 19.8951 42.2986 18.1255 40.3117C15.6729 37.6418 12.7235 32.2709 14.1827 22.7709C16.5422 7.37218 28.7431 5.57152 37.7775 7.27904C46.8739 9.0176 51.5307 14.1712 53.0209 21.0323Z" fill="white"/>
<path d="M19.6779 43.075C18.9638 41.8953 18.0635 40.8397 17.2253 39.7531C16.387 38.6044 15.704 37.3937 15.1452 36.0897C11.9785 28.4214 12.4442 18.3937 18.0635 11.9361C21.9132 7.52765 27.9981 6.0685 33.5864 6.37895C39.1746 6.72046 44.9802 8.14856 49.1092 12.1845C51.4998 14.5129 53.021 17.6175 53.704 20.8463C53.9213 21.8708 53.7661 22.9884 53.5177 23.9508C52.8037 26.6518 52.1207 29.2286 52.0586 32.0227C52.0896 36.1829 51.9655 40.4361 50.7547 44.441C49.8854 47.111 48.8609 49.7809 47.2465 52.1093C45.57 54.4688 43.0553 56.3626 40.1681 56.9214C34.3625 58.1012 28.9295 54.4378 25.0798 50.4639C24.9246 50.2776 25.1419 50.0603 25.3282 50.1845C27.5324 51.861 29.7988 53.4133 32.2514 54.4688C39.3298 57.7286 45.1975 54.7172 48.3021 47.8871C50.9099 42.9198 51.655 37.5489 51.4377 31.9917C51.4377 30.5946 51.4998 29.1976 51.686 27.8005C51.8723 25.7825 52.5553 23.7646 52.5243 21.7776C51.9965 18.5489 50.5063 15.4443 48.271 13.0538C42.9622 7.43451 32.7792 5.78908 25.6387 8.33484C17.2253 11.3152 14.9589 19.7907 14.4932 27.8937C14.1828 32.7368 15.6109 37.4868 19.2743 40.8087L20.7334 42.3299C21.2302 43.0129 20.1746 43.8201 19.6779 43.075Z" fill="#7D0006"/>
<path d="M23.3413 33.2022C23.3413 33.2022 22.3789 28.5453 17.8462 29.1042C13.9344 29.6009 12.5684 38.9767 21.4475 41.5846" fill="white"/>
<path d="M21.044 37.5174C20.33 37.1138 19.8332 36.4308 19.8022 35.5926C19.8332 34.9716 19.9264 34.2576 19.7711 33.6367C19.678 33.0468 19.0571 32.8916 18.5914 32.9226C18.0947 33.0158 17.7842 33.6367 17.6911 34.1334C17.6911 34.1644 17.66 34.2576 17.66 34.2886C17.629 34.4439 17.3806 34.4439 17.3185 34.2886C16.9149 33.0778 17.8153 31.7429 19.1192 31.8981C20.9509 32.0223 21.1992 33.9471 20.8577 35.4063C20.6715 36.0272 20.9198 36.586 21.2613 37.1138L21.3234 37.2069C21.4787 37.3932 21.2303 37.6416 21.044 37.5174Z" fill="#7D0006"/>
<path d="M45.8805 29.9113C46.3462 32.1156 47.2154 34.1646 48.3021 36.0894C49.2645 38.4489 46.7808 40.6842 44.5766 40.5911C44.3282 40.5911 44.2971 40.2496 44.5145 40.1875C45.9115 39.7529 47.1844 38.8215 47.4017 37.3934C47.4949 36.9587 47.3707 36.5862 47.1534 36.2136C46.1288 34.2888 45.5079 32.0845 45.6632 29.9113C45.6632 29.7561 45.8805 29.7561 45.8805 29.9113Z" fill="#7D0006"/>
<path d="M23.1862 33.2334C22.4721 31.4017 20.9199 29.6632 18.8398 29.6942C18.6535 29.6632 18.3431 29.7253 18.1568 29.7253C17.629 29.7563 17.1944 29.9426 16.7908 30.3151C14.8038 32.3021 15.1453 35.8102 16.7597 38.0145C17.3186 38.7906 18.0326 39.4736 18.8398 40.0325C19.647 40.5913 20.5473 41.0259 21.5097 41.3985C21.727 41.4606 21.6339 41.8021 21.4166 41.771C19.3365 41.3364 17.3496 40.3119 15.9836 38.6044C13.8725 36.0586 13.4378 31.8053 15.9525 29.3217C16.5114 28.825 17.2875 28.4524 18.0636 28.4524C18.312 28.4524 18.6846 28.3903 18.9329 28.4524C20.2369 28.5145 21.4787 29.1665 22.2859 30.191C22.9999 31.0602 23.4035 32.1158 23.5277 33.1714C23.5277 33.3576 23.2483 33.4197 23.1862 33.2334Z" fill="#7D0006"/>
</g>
<path d="M43.5213 43.6962C41.5344 45.59 37.7778 44.0688 36.7844 41.7714C36.6602 41.492 36.9706 41.2436 37.219 41.3678C37.7468 41.6472 38.2125 41.9266 38.7092 42.1439C40.1373 42.7959 41.6275 43.3237 43.2108 43.1685C43.5213 43.1064 43.7386 43.4789 43.5213 43.6962Z" fill="#7D0006"/>
<path d="M34.3007 33.0783C33.5556 33.0473 32.9968 32.4264 33.0589 31.6813L33.09 30.812C33.121 30.0669 33.7419 29.5081 34.487 29.5701C35.2321 29.6012 35.7909 30.2221 35.7288 30.9672L35.6978 31.8365C35.6668 32.5505 35.0458 33.1094 34.3007 33.0783Z" fill="#7D0006"/>
<path d="M47.371 33.5441C46.688 33.5131 46.1602 32.9232 46.1912 32.2402L46.2223 31.433C46.2533 30.75 46.8432 30.2222 47.5262 30.2533C48.2092 30.2843 48.737 30.8742 48.7059 31.5572L48.6749 32.3644C48.6439 33.0474 48.054 33.5751 47.371 33.5441Z" fill="#7D0006"/>
<path d="M37.0947 31.4019C36.0702 30.7189 34.9526 30.2532 33.7107 30.5016C33.3071 30.5637 32.9035 30.6878 32.6552 30.9672C32.562 31.0914 32.3447 31.0604 32.3447 30.8741C32.3758 30.2532 32.9035 29.8496 33.4003 29.6012C34.3627 29.1045 35.6977 29.1976 36.5669 29.8496C36.8774 30.0359 37.933 31.1846 37.3741 31.4329C37.25 31.495 37.1879 31.464 37.0947 31.4019Z" fill="#7D0006"/>
<path d="M45.9739 31.5572C45.9739 30.2533 47.5883 29.7876 48.5817 30.2533C49.1405 30.5016 49.5441 30.9984 49.6994 31.5882C49.7615 31.7745 49.482 31.9297 49.3579 31.7745C48.8301 31.1536 47.9298 30.8431 47.2157 31.2157C46.9984 31.3399 46.9673 31.433 46.9052 31.5572C46.9052 32.1781 46.0049 32.1471 45.9739 31.5572Z" fill="#7D0006"/>
<path d="M38.585 26.2793C39.237 26.4966 39.8889 25.9067 39.7648 25.1927C39.7027 24.8201 39.5474 24.4476 39.237 24.1681C38.3056 23.3299 34.4559 22.5848 32.1275 23.6714C30.0785 24.6649 35.6046 25.2858 38.585 26.2793Z" fill="#7D0006"/>
<path d="M47.8677 26.7758C47.3399 26.9621 46.7811 26.4032 46.8743 25.7513C46.9053 25.4098 47.0295 25.0683 47.2779 24.8199C48.023 24.0748 50.5687 23.4849 52.1831 24.6336C53.5801 25.596 50.2893 25.8755 47.8677 26.7758Z" fill="#7D0006"/>
<path d="M53.1059 29.7875C53.4163 27.8316 53.6336 26.0309 53.7578 24.3234C56.2725 21.9639 56.4898 12.2776 50.4359 12.2156C50.4359 12.2156 49.2872 5.94431 43.9474 5.04399C39.9114 4.36098 38.1418 5.07503 32.181 6.22373C32.0879 6.25477 31.9948 6.28582 31.8706 6.28582C24.73 6.81359 18.7072 9.98026 15.9751 13.7989C13.6778 17.0276 12.6532 19.7597 12.4049 23.392C12.4049 23.6093 12.3738 23.8267 12.3738 24.044V24.1061C12.3428 24.7891 12.3428 25.5031 12.3738 26.2482C12.2497 27.9868 11.7219 30.3463 10.0144 32.0848C7.96534 34.1649 7.03397 35.9656 7.56175 39.5358C3.09116 42.2058 -1.75198 46.7695 3.06011 58.3806C5.60586 56.8593 8.74149 55.7107 11.7529 55.2139C12.7153 55.0587 13.7399 54.9345 14.8265 54.8724C19.1729 54.562 22.1532 50.4639 21.284 46.2107C21.1287 45.3724 21.0046 44.4721 21.0046 43.4476C21.0046 42.8267 21.0356 42.2368 21.0977 41.678C12.5601 38.977 13.9261 29.7875 17.8068 29.2907C19.2039 29.1044 20.2284 29.4459 21.0356 29.9427C21.1908 30.2221 21.3771 30.4705 21.5634 30.7188C26.4997 37.2695 21.4082 38.3561 23.6124 42.5473C24.8853 44.9688 26.3134 45.6518 26.3134 45.6518C26.2202 44.6894 22.4327 42.1747 25.1957 38.977C27.9588 35.7793 25.4131 33.7303 25.351 31.3087C25.2578 28.2662 25.8787 26.093 26.6549 24.5718C27.8346 23.6093 29.449 22.9263 31.6532 22.8022C43.4196 22.1502 45.9653 18.7973 46.4 16.7172C47.2382 19.1077 48.7595 22.3675 51.3363 24.3544C51.4604 24.5407 51.6157 24.727 51.7398 24.9133C51.5225 28.6077 52.7333 41.3054 47.9212 49.9361C46.6173 52.2956 45.065 54.3446 43.3265 54.6551C42.0846 54.8724 41.8363 55.2139 40.8428 55.4623C39.9425 55.7107 40.0356 55.959 40.0356 55.959C40.0356 59.6535 45.5928 58.5048 48.3869 58.8152C50.9016 59.0946 53.0748 60.4296 53.0748 60.4296C53.0748 60.4296 55.1859 57.6976 54.7202 51.4884C54.1925 44.5963 50.7464 45.2172 53.1059 29.7875Z" fill="#7D0006"/>
<path d="M28.9298 39.2254C29.7991 38.7597 30.6373 38.263 31.5997 38.0146C31.6929 38.0146 31.7549 37.9836 31.9412 38.0456C32.5932 38.5424 30.6994 39.7842 30.3579 40.0947C30.451 39.9705 30.42 39.7532 30.2648 39.6911C30.2337 39.6911 30.2337 39.66 30.2027 39.66C30.1406 39.66 30.1406 39.66 30.1406 39.66C30.9167 39.3806 31.6929 39.0702 32.438 38.6976C32.8726 38.5113 33.4625 38.1077 33.9282 38.0767C34.1144 38.0767 34.3317 38.263 34.3007 38.4492C34.2697 38.6976 34.2076 38.7907 34.1455 38.946C34.0834 39.0702 33.9592 39.2564 33.9282 39.3806C33.9282 39.4117 33.8971 39.3496 33.8971 39.3496C33.8971 39.3806 34.0834 39.3806 34.1144 39.3496C34.6112 39.2875 35.1389 39.1012 35.6357 38.9149C35.7288 38.8839 35.7909 39.0081 35.6978 39.0702C35.17 39.4117 34.6112 39.7842 33.9282 39.8463C33.4935 39.8773 33.2762 39.4737 33.4314 39.1012C33.4935 38.8839 33.6487 38.6355 33.7108 38.4492C33.7108 38.5113 33.7729 38.6045 33.835 38.6355C33.8971 38.6666 33.9281 38.6355 33.8971 38.6666C33.5866 38.7597 32.9657 39.1012 32.6863 39.2254C31.8791 39.5979 31.103 39.9394 30.2337 40.1878C30.1716 40.1878 30.1716 40.2188 30.0785 40.1878C29.8301 40.1568 29.768 39.8463 29.9543 39.6911C30.3268 39.3806 30.7615 39.1322 31.103 38.8218C31.2893 38.6666 31.5066 38.4492 31.6308 38.263C31.6308 38.294 31.6618 38.3561 31.6929 38.3871C31.4134 38.4182 30.8546 38.5734 30.5131 38.7286C30.0164 38.9149 29.4886 39.1322 28.9919 39.3496C28.9298 39.4117 28.8366 39.2564 28.9298 39.2254Z" fill="#7D0006"/>
<path d="M49.0474 39.2253C49.3268 38.9149 50.5065 37.4247 50.817 38.2008C50.817 38.2629 50.817 38.325 50.817 38.356C50.6928 38.977 50.2892 39.5047 49.9787 40.0325C50.0408 39.8773 49.9166 39.66 49.7614 39.6289C49.6993 39.6289 49.6683 39.6289 49.6372 39.6289C49.6062 39.6289 49.6372 39.6289 49.6683 39.5979C50.2892 39.1943 50.7549 38.6975 51.3758 38.2629C51.5 38.2008 51.6552 38.1077 51.8104 38.2008C51.9657 38.325 51.9346 38.5113 51.8725 38.6355C51.8104 38.7907 51.7483 38.9149 51.6862 39.0701C51.6552 39.1011 51.6241 39.1322 51.5621 39.1011C51.531 39.1011 51.531 39.0701 51.531 39.039C51.531 38.977 51.531 38.5734 51.531 38.5113C51.5 38.4492 51.531 38.4802 51.531 38.5113C51.531 38.5423 51.5931 38.6044 51.6552 38.6044C51.6862 38.6044 51.7483 38.6044 51.7483 38.6044C51.2206 39.2253 50.5996 39.8152 49.8856 40.2188C49.6683 40.3119 49.4199 40.1257 49.4509 39.8773C49.4509 39.8462 49.482 39.7841 49.513 39.7531C49.7304 39.4426 49.9787 39.1322 50.165 38.8217C50.2581 38.6665 50.3823 38.4492 50.4134 38.294C50.4134 38.356 50.5375 38.4492 50.5686 38.4181C50.0719 38.6044 49.6372 39.008 49.2026 39.3185C49.0784 39.4116 48.9853 39.2874 49.0474 39.2253Z" fill="#7D0006"/>
</svg>
