<svg width="493" height="72" viewBox="0 0 493 72" fill="none" xmlns="http://www.w3.org/2000/svg">
<path d="M46.6052 0C45.9796 0 45.4725 0.528171 45.4725 1.1797C45.4725 1.83123 45.9796 2.57141 46.6052 2.57141C49.1563 2.75239 51.136 4.93853 51.136 7.57465V10.3916C51.136 11.0432 51.6431 11.5713 52.2687 11.5713H61.3303C61.9559 11.5713 62.463 11.0432 62.463 10.3916V7.57465C62.463 4.93853 64.4427 2.75239 66.9938 2.57141C67.6194 2.57141 68.1265 1.83123 68.1265 1.1797C68.1265 0.528171 67.6194 0 66.9938 0H46.6052Z" fill="#F5EBE2"/>
<path d="M128.491 0.0171144H115.947C115.612 0.0171144 115.444 0.295433 115.444 0.852069C115.444 1.40871 115.612 1.77491 115.947 1.95069C116.283 2.12647 116.502 2.27296 116.605 2.39014C117.844 3.79638 118.464 5.56883 118.464 7.70748V64.3086C118.464 65.3047 118.283 66.3008 117.922 67.2969C117.56 68.2637 117.212 68.9375 116.876 69.3183C116.567 69.6699 116.309 69.9043 116.102 70.0215C115.896 70.1093 115.728 70.2119 115.599 70.3291C115.496 70.417 115.444 70.7246 115.444 71.2519C115.444 71.75 115.612 71.999 115.947 71.999H128.491C128.827 71.999 128.994 71.7207 128.994 71.164C128.994 70.6074 128.827 70.2412 128.491 70.0654C128.155 69.8896 127.936 69.7431 127.833 69.6259C126.594 68.2197 125.974 66.4473 125.974 64.3086V7.70748C125.974 6.7114 126.155 5.72996 126.517 4.76317C126.878 3.76709 127.213 3.09326 127.523 2.7417C127.859 2.36085 128.13 2.12647 128.336 2.03858C128.543 1.9214 128.697 1.81886 128.801 1.73097C128.93 1.61378 128.994 1.30617 128.994 0.808124C128.994 0.280784 128.827 0.0171144 128.491 0.0171144Z" fill="#F5EBE2"/>
<path d="M149.042 0.0171144C149.275 0.0171144 149.494 0.134301 149.701 0.368674L192.984 52.4874H193.255V7.70748C193.255 5.59813 192.623 3.82568 191.358 2.39014C191.255 2.27296 191.036 2.12647 190.7 1.95069C190.365 1.77491 190.197 1.40871 190.197 0.852069C190.197 0.295433 190.365 0.0171144 190.7 0.0171144H203.36C203.696 0.0171144 203.863 0.280784 203.863 0.808124C203.863 1.30617 203.799 1.61378 203.67 1.73097C203.567 1.81886 203.412 1.9214 203.205 2.03858C202.999 2.12647 202.728 2.36085 202.392 2.7417C202.057 3.12256 201.695 3.79638 201.308 4.76317C200.947 5.72996 200.766 6.7114 200.766 7.70748V69.6699C200.766 70.7539 200.637 71.413 200.379 71.6474C200.147 71.8818 199.76 71.999 199.217 71.999C198.675 71.999 198.237 71.8232 197.901 71.4716L149.236 12.849V64.3086C149.236 66.5644 149.804 68.3369 150.939 69.6259C151.043 69.7431 151.262 69.8896 151.598 70.0654C151.933 70.2412 152.101 70.6074 152.101 71.164C152.101 71.7207 151.933 71.999 151.598 71.999H139.131C138.796 71.999 138.628 71.75 138.628 71.2519C138.628 70.7246 138.68 70.417 138.783 70.3291C138.912 70.2119 139.08 70.1093 139.286 70.0215C139.493 69.9043 139.66 69.7724 139.789 69.6259C141.08 68.1611 141.725 66.3887 141.725 64.3086V7.70748C141.725 5.53953 141.119 3.76709 139.906 2.39014C139.802 2.27296 139.583 2.12647 139.247 1.95069C138.912 1.77491 138.744 1.40871 138.744 0.852069C138.744 0.295433 138.912 0.0171144 139.247 0.0171144H149.042Z" fill="#F5EBE2"/>
<path d="M252.794 26.8235C251.555 28.2298 249.994 28.9329 248.11 28.9329H223.68V7.1362H249.387C252.304 7.1362 254.085 7.42917 254.73 8.0151C255.401 8.57174 255.814 8.99654 255.969 9.2895C256.15 9.55317 256.305 9.7729 256.434 9.94868C256.563 10.0952 256.679 10.1684 256.782 10.1684C256.911 10.1684 257.156 10.0952 257.518 9.94868C257.905 9.80219 258.098 9.67036 258.098 9.55317C258.098 9.43599 257.918 8.8647 257.556 7.83932L256.317 4.27978C255.853 2.93213 255.53 1.8921 255.35 1.15968C255.169 0.397971 254.95 0.0171144 254.691 0.0171144H213.653C213.318 0.0171144 213.15 0.295433 213.15 0.852069C213.15 1.40871 213.318 1.77491 213.653 1.95069C213.989 2.12647 214.208 2.27296 214.311 2.39014C215.55 3.79638 216.17 5.56883 216.17 7.70748V64.3086C216.17 65.3047 215.989 66.3008 215.628 67.2969C215.266 68.2637 214.918 68.9375 214.582 69.3183C214.273 69.6699 214.015 69.9043 213.808 70.0215C213.602 70.1093 213.434 70.2119 213.305 70.3291C213.201 70.417 213.15 70.7246 213.15 71.2519C213.15 71.75 213.318 71.999 213.653 71.999H254.691C254.975 71.8818 255.195 71.4863 255.35 70.8125C255.53 70.1093 255.853 69.084 256.317 67.7363L257.556 64.1768C257.918 63.1514 258.098 62.5801 258.098 62.4629C258.098 62.3457 257.905 62.2139 257.518 62.0674C257.156 61.9209 256.898 61.8477 256.743 61.8477C256.614 61.8477 256.408 62.0674 256.124 62.5069C255.866 62.9463 255.401 63.459 254.73 64.0449C254.085 64.6016 252.304 64.8799 249.387 64.8799H223.68V36.052H248.11C248.987 36.052 249.852 36.2424 250.704 36.6233C251.581 37.0041 252.175 37.385 252.485 37.7658C252.82 38.1174 253.027 38.4104 253.104 38.6447C253.207 38.8791 253.298 39.0695 253.375 39.216C253.478 39.3332 253.749 39.3918 254.188 39.3918C254.653 39.3918 254.885 39.2014 254.885 38.8205V26.0765C254.885 25.6956 254.64 25.5052 254.149 25.5052C253.659 25.5052 253.336 25.6956 253.182 26.0765C253.027 26.4573 252.898 26.7064 252.794 26.8235Z" fill="#F5EBE2"/>
<path fill-rule="evenodd" clip-rule="evenodd" d="M322.47 65.2754L347.945 0.544454C348.074 0.192894 348.706 0.0171144 349.842 0.0171144C350.977 0.0171144 351.623 0.192894 351.778 0.544454L378.027 65.2754C379.033 67.9414 380.027 69.5381 381.008 70.0654C381.343 70.2412 381.511 70.6074 381.511 71.164C381.511 71.7207 381.343 71.999 381.008 71.999H366.993C366.657 71.999 366.489 71.75 366.489 71.2519C366.489 70.7246 366.541 70.417 366.644 70.3291C366.773 70.2119 366.941 70.1093 367.148 70.0215C367.354 69.9043 367.522 69.7724 367.651 69.6259C368.632 68.5127 369.122 67.4873 369.122 66.5498C369.122 65.583 369.032 64.792 368.851 64.1768L363.237 49.1036H335.324L329.826 64.1768C329.645 64.792 329.555 65.2607 329.555 65.583V66.1543C329.555 67.3555 330.045 68.5127 331.026 69.6259C331.129 69.7431 331.349 69.8896 331.684 70.0654C332.02 70.2412 332.188 70.6074 332.188 71.164C332.188 71.7207 332.02 71.999 331.684 71.999H319.489C319.153 71.999 318.986 71.75 318.986 71.2519C318.986 70.7246 319.037 70.417 319.141 70.3291C319.27 70.2119 319.437 70.0947 319.644 69.9775C320.496 69.5674 321.438 68 322.47 65.2754ZM338.072 42.1164C338.021 42.2043 338.008 42.3215 338.034 42.468C338.059 42.5851 338.111 42.6437 338.188 42.6437H360.295C360.372 42.6437 360.424 42.5851 360.45 42.468C360.476 42.3215 360.463 42.2043 360.411 42.1164L349.222 14.519H348.951L338.072 42.1164Z" fill="#F5EBE2"/>
<path fill-rule="evenodd" clip-rule="evenodd" d="M443.212 71.999H462.686C467.048 71.999 471.139 70.9736 474.959 68.9228C478.804 66.8428 482.018 64.1182 484.599 60.7491C487.206 57.3799 489.257 53.5274 490.754 49.1915C492.251 44.8263 493 40.3586 493 35.7883C493 28.6106 491.658 22.5169 488.974 17.5072C486.289 12.4682 482.908 8.57174 478.83 5.81785C473.074 1.95069 467.048 0.0171144 460.75 0.0171144H443.212C442.876 0.0171144 442.709 0.295433 442.709 0.852069C442.709 1.40871 442.876 1.77491 443.212 1.95069C443.548 2.12647 443.767 2.27296 443.87 2.39014C445.109 3.79638 445.729 5.56883 445.729 7.70748V64.3086C445.729 65.3047 445.548 66.3008 445.187 67.2969C444.825 68.2637 444.477 68.9375 444.141 69.3183C443.831 69.6699 443.573 69.9043 443.367 70.0215C443.16 70.1093 442.993 70.2119 442.864 70.3291C442.76 70.417 442.709 70.7246 442.709 71.2519C442.709 71.75 442.876 71.999 443.212 71.999ZM455.601 65.0996C454.027 65.0996 453.239 64.5576 453.239 63.4737V7.92721C453.239 7.66354 453.317 7.44381 453.472 7.26803C453.652 7.09225 453.846 7.00436 454.052 7.00436H460.014C464.325 7.00436 468.132 7.76608 471.436 9.2895C474.739 10.7836 477.385 12.8637 479.372 15.5297C483.347 20.8617 485.334 27.6146 485.334 35.7883C485.334 42.4973 484.147 48.2101 481.773 52.9269C477.695 61.0127 470.416 65.0703 459.937 65.0996H455.601Z" fill="#F5EBE2"/>
<path d="M398.308 7.88351C398.695 7.44406 399.159 7.22434 399.702 7.22434H406.864C410.193 7.22434 413.174 8.08859 415.807 9.81709C418.44 11.5163 419.756 14.2262 419.756 17.9469C419.756 21.6676 418.388 24.6265 415.652 26.8238C412.09 29.7242 407.135 31.1743 400.786 31.1743C400.527 31.1743 400.398 31.3208 400.398 31.6138V34.2944C400.398 35.2026 400.424 35.9204 400.476 36.4477C400.476 36.477 400.786 36.5503 401.405 36.6675C405.767 37.3706 410.968 42.351 417.007 51.6088C420.259 56.5892 422.827 61.8333 424.712 67.3411C424.815 67.634 424.866 68.0442 424.866 68.5715C424.892 69.0696 424.828 69.4065 424.673 69.5822C424.544 69.758 424.376 69.9045 424.17 70.0217C423.963 70.1096 423.795 70.2121 423.666 70.3293C423.563 70.4172 423.511 70.7248 423.511 71.2522C423.511 71.7502 423.679 71.9992 424.015 71.9992H436.559C436.894 71.9992 437.062 71.6623 437.062 70.9885C437.062 70.3147 436.675 69.8606 435.9 69.6262C435.126 69.3918 434.158 68.0735 432.997 65.6711L429.822 59.2552C428.79 57.2337 427.189 54.6263 425.021 51.433C422.853 48.2396 420.982 45.7494 419.408 43.9623C417.833 42.1459 416.246 40.52 414.646 39.0844C413.045 37.6489 411.987 36.7554 411.471 36.4038L410.232 35.6128C410.232 35.5249 410.864 35.4224 412.129 35.3052C413.394 35.1587 415.239 34.4702 417.665 33.2398C424.273 29.8999 427.577 24.6412 427.577 17.4635C427.577 11.3698 425.654 6.97532 421.808 4.28003C417.988 1.55544 413.239 0.163847 407.561 0.105254H387.7C387.364 0.105254 387.196 0.368924 387.196 0.896263C387.196 1.4236 387.364 1.77516 387.7 1.95094C388.035 2.12672 388.255 2.27321 388.358 2.39039C389.597 3.79663 390.216 5.56908 390.216 7.70773V64.3089C390.216 65.3049 390.036 66.301 389.674 67.2971C389.313 68.2639 388.964 68.9377 388.629 69.3186C388.319 69.6701 388.061 69.9045 387.855 70.0217C387.648 70.1096 387.48 70.2121 387.351 70.3293C387.248 70.4172 387.196 70.7248 387.196 71.2522C387.196 71.7502 387.364 71.9992 387.7 71.9992H400.244C400.579 71.9992 400.747 71.7209 400.747 71.1643C400.747 70.6076 400.579 70.2414 400.244 70.0656C399.908 69.8899 399.689 69.7434 399.585 69.6262C398.346 68.22 397.727 66.4475 397.727 64.3089V9.42159C397.727 8.80636 397.921 8.29367 398.308 7.88351Z" fill="#F5EBE2"/>
<path d="M32.2975 57.4982V41.8239C32.2975 26.2022 43.4543 13.5384 57.2169 13.5384C70.9795 13.5384 82.1363 26.2022 82.1363 41.8239V57.2091L98.9565 7.84034C99.5759 5.81888 99.1758 4.00248 97.7563 2.39117C97.653 2.27398 97.4336 2.1275 97.0981 1.95172C96.7626 1.77594 96.5948 1.40973 96.5948 0.853094C96.5948 0.296458 96.7626 0.0181395 97.0981 0.0181395H109.293C109.629 0.0181395 109.797 0.281809 109.797 0.809149C109.797 1.30719 109.732 1.61481 109.603 1.73199C109.5 1.81988 109.345 1.92242 109.139 2.03961C108.287 2.47906 107.345 4.04643 106.312 6.74172C103.525 13.8608 99.6662 24.6127 94.7365 38.9973C89.8067 53.3527 85.9094 64.1778 83.0444 71.4727C82.9595 71.7039 82.6568 71.8591 82.1363 71.9383V71.9987H81.3098C81.2569 71.9996 81.2027 72 81.1474 72C81.092 72 81.0379 71.9996 80.9849 71.9987H78.9387C76.9512 71.9987 75.3401 70.3379 75.3401 68.289V41.8239C75.3401 31.1727 66.6005 21.2526 57.2169 21.2526C52.7477 21.2526 48.4246 23.5029 45.1222 27.0106C46.7985 26.4506 48.5728 26.15 50.4089 26.15C60.7309 26.15 69.0985 35.6479 69.0985 47.3641V70.0391C69.0985 71.1217 68.2472 71.9994 67.197 71.9994C66.1469 71.9994 65.2955 71.1217 65.2917 70.0391L65.2895 69.4384C65.2865 68.6552 65.2835 67.8765 65.2835 66.9403V48.415C65.2835 36.6988 56.9159 27.2009 46.594 27.2009C46.0104 27.2009 45.4331 27.2313 44.8632 27.2907C41.3773 31.1258 39.0937 36.3793 39.0937 41.8239V68.289C39.0937 70.3379 37.4826 71.9987 35.4952 71.9987H32.2975V71.9783C32.1087 71.9928 31.8993 72 31.6692 72C30.5335 72 29.8883 71.8242 29.7334 71.4727L23.8874 57.8497L13.744 32.9769L3.48438 6.74172C2.47778 4.07573 1.48409 2.47906 0.5033 1.95172C0.167767 1.77594 0 1.40973 0 0.853094C0 0.296458 0.167767 0.0181395 0.5033 0.0181395H14.5183C14.8538 0.0181395 15.0216 0.281809 15.0216 0.809149C15.0216 1.30719 14.957 1.61481 14.828 1.73199C14.7247 1.81988 14.5699 1.92242 14.3634 2.03961C14.1569 2.1275 13.9891 2.24468 13.8601 2.39117C12.4405 4.00248 12.0405 5.81888 12.6599 7.84034L32.2886 57.4982H32.2975Z" fill="#F5EBE2"/>
<path d="M279.941 70.5965C279.941 71.248 280.448 71.7762 281.074 71.7762H301.463C302.088 71.7762 302.595 71.248 302.595 70.5965C302.595 69.9449 302.088 69.2048 301.463 69.2048C298.911 69.0238 296.932 66.8376 296.932 64.2015V61.3845C296.932 60.733 296.425 60.2048 295.799 60.2048H286.737C286.112 60.2048 285.605 60.733 285.605 61.3845V64.2015C285.605 66.8376 283.625 69.0238 281.074 69.2048C280.448 69.2048 279.941 69.9449 279.941 70.5965Z" fill="#F5EBE2"/>
<path d="M263.456 0H276.039C276.376 0 276.544 0.263669 276.544 0.791007C276.544 1.28905 276.479 1.59666 276.35 1.71385C276.246 1.80174 276.091 1.90428 275.884 2.02146C275.677 2.10935 275.405 2.34373 275.068 2.72458C274.758 3.07614 274.421 3.74996 274.059 4.74604C273.696 5.71283 273.515 6.69426 273.515 7.69035V29.9513C273.515 41.3125 281.26 50.5226 291.269 50.5226C301.278 50.5226 309.023 41.3125 309.023 29.9513V7.69035C309.023 5.5517 308.402 3.77926 307.159 2.37302C307.056 2.25584 306.836 2.10935 306.499 1.93357C306.162 1.75779 305.994 1.39159 305.994 0.834952C305.994 0.278317 306.162 0 306.499 0H319.082C319.418 0 319.587 0.263669 319.587 0.791007C319.587 1.28905 319.522 1.59666 319.392 1.71385C319.289 1.80174 319.134 1.90428 318.926 2.02146C318.719 2.10935 318.447 2.34373 318.111 2.72458C317.8 3.07614 317.464 3.74996 317.101 4.74604C316.739 5.71283 316.557 6.69426 316.557 7.69035V29.9513C316.557 45.573 305.032 58.2368 291.269 58.2368C277.506 58.2368 265.981 45.573 265.981 29.9513V7.69035C265.981 5.5517 265.359 3.77926 264.117 2.37302C264.013 2.25584 263.793 2.10935 263.456 1.93357C263.12 1.75779 262.952 1.39159 262.952 0.834952C262.952 0.278317 263.12 0 263.456 0Z" fill="#F5EBE2"/>
</svg>
