<svg width="60" height="70" viewBox="0 0 60 70" fill="none" xmlns="http://www.w3.org/2000/svg">
<mask id="mask0_1047_3599" style="mask-type:alpha" maskUnits="userSpaceOnUse" x="-17" y="-13" width="96" height="95">
<circle cx="30.8443" cy="34.3443" r="47.3443" fill="#D9D9D9"/>
</mask>
<g mask="url(#mask0_1047_3599)">
<path d="M40.4381 49.8369C40.4381 49.8369 37.4888 49.0918 31.0002 47.0118C24.5117 44.9317 16.1293 46.2977 16.1293 46.2977C16.1293 46.2977 14.0803 46.3288 13.3042 47.8811C12.528 49.4334 12.5901 52.6311 11.4104 53.5003C11.131 53.6866 10.3548 53.9039 9.20613 54.2144C7.34338 54.7422 4.51822 55.4252 1.7241 56.9775C-0.355963 58.1572 -3.30531 61.7585 -3.771 68.185C-3.86413 69.4579 -3.83309 82.6213 -4.42296 83.8941C-9.32818 93.8598 -9.11086 89.3892 -9.11086 89.3892H66.765C66.765 89.3892 61.6734 82.0003 60.3695 74.7356C59.0035 67.1605 56.644 62.752 54.7192 61.2928C50.2486 57.9088 45.4055 56.8222 43.5427 55.984L43.3254 53.1899C43.3564 53.1588 42.1457 49.3713 40.4381 49.8369Z" fill="#7D0006" stroke="#7D0006" stroke-width="3.5345" stroke-miterlimit="10" stroke-linecap="round" stroke-linejoin="round"/>
<path d="M43.605 54.8971C44.2259 58.1259 44.9089 61.5099 43.9775 64.7386C42.7978 69.4266 38.9171 72.6243 34.0119 72.438C30.6279 72.3759 27.4302 71.072 24.5119 69.4887C19.6687 66.7877 15.6638 62.5344 13.5217 57.4119C13.087 56.3563 12.7145 55.3628 12.4972 54.2452C12.4661 54.121 12.5592 53.9658 12.7145 53.9347C12.8387 53.9037 12.9628 53.9968 12.9939 54.121C13.2733 55.1145 13.7079 56.17 14.1736 57.1014C16.5331 61.9135 20.3828 65.9494 25.0396 68.5262C28.672 70.4821 33.0184 72.1586 37.1164 71.0099C42.5184 69.4887 44.3501 63.1864 43.5119 58.1569C43.3877 57.0703 43.2324 56.0148 43.0772 54.9282C43.0151 54.6798 43.5429 54.5556 43.605 54.8971Z" fill="white"/>
<path d="M16.1914 62.3178C14.1734 63.156 12.3417 64.522 10.8515 66.1054C10.3237 66.6331 9.8891 67.2541 9.45446 67.8439C9.23714 68.1233 8.77145 67.8129 8.98877 67.5335C10.2306 65.5465 11.845 63.839 13.7698 62.5351C14.4218 62.1005 15.0737 61.6969 15.8188 61.3554C16.0983 61.2312 16.4087 61.3554 16.5329 61.6037C16.6571 61.8521 16.5018 62.1936 16.1914 62.3178Z" fill="white"/>
<path d="M44.2567 60.3618C46.8955 61.4484 49.1929 63.4042 50.4348 65.981C50.4968 66.1052 50.4348 66.2294 50.3416 66.2915C50.2174 66.3536 50.0933 66.2915 50.0312 66.1984C49.3482 65.0497 48.4789 64.0252 47.3923 63.218C46.3678 62.4418 45.1259 61.7588 43.8841 61.3863C43.2011 61.1379 43.5736 60.1134 44.2567 60.3618Z" fill="white"/>
<path d="M40.3135 63.2483C39.6615 66.446 35.4393 68.3708 28.3298 65.4836C20.9409 62.5032 17.7432 55.3937 16.936 53.2826C21.3135 45.0865 18.271 39.4052 18.271 39.4052C28.3609 38.5359 37.1779 50.3333 37.1779 50.3333L38.5439 56.1699C38.6681 56.6666 38.9164 57.1012 39.289 57.4117C39.9409 58.5604 40.7171 61.1993 40.3135 63.2483Z" fill="white"/>
<path d="M16.781 53.3758C17.3709 52.4755 17.7434 51.4199 17.9918 50.3954C18.4575 48.2532 18.6127 46.08 18.6437 43.9068V43.0996C18.5506 42.2925 18.2712 41.4542 17.9607 40.7091C17.5571 39.7157 19.0163 39.0947 19.482 40.0882C19.5441 40.2124 19.5441 40.4297 19.5441 40.5539C19.6372 44.7761 19.8235 50.2091 17.1535 53.7173C16.9673 53.9036 16.5947 53.6242 16.781 53.3758Z" fill="#7D0006"/>
<path d="M37.5194 50.2716C37.9851 50.5511 38.1403 50.9236 38.2024 51.2962C38.3887 52.0412 38.3266 52.8484 38.5129 53.6246C38.6681 54.3697 39.1338 55.0837 39.258 55.8599C39.4132 56.6671 39.8789 58.3746 40.0651 59.2128C40.1272 59.3991 40.0031 59.6164 39.7857 59.6475C39.6616 59.6785 39.5684 59.6475 39.4753 59.5854C39.0717 59.2439 38.8854 58.9024 38.637 58.4677C38.2334 57.7226 37.954 57.0396 37.7057 56.2014C37.4884 55.4563 37.5815 54.6491 37.3952 53.8729C37.24 53.1278 36.8053 52.4138 36.6501 51.6377C36.557 51.2651 36.5259 50.8615 36.8053 50.3958C36.9916 50.2095 37.3021 50.1475 37.5194 50.2716Z" fill="#7D0006"/>
<path d="M39.7548 58.4675C33.825 58.157 28.9819 56.2943 24.2629 47.8809C28.2368 51.389 32.9247 52.724 37.861 53.3449L38.5129 56.2011C38.6371 56.6978 39.3822 58.157 39.7548 58.4675Z" fill="#7D0006"/>
<path d="M39.5067 57.3187C40.5623 59.3056 41.1832 61.7893 40.5312 63.9935C40.0345 65.5458 38.6064 66.6945 37.0541 67.1291C33.4528 68.0915 29.2927 66.5703 26.0949 64.8628C22.1521 62.6585 19.2338 58.9641 17.3711 54.9281C17.2469 54.6177 17.6815 54.3693 17.8678 54.6798C18.5198 55.9837 19.2649 57.2566 20.1031 58.4053C20.9413 59.585 21.9038 60.6716 22.9904 61.634C26.157 64.4902 30.4413 66.2598 34.7257 66.2598C39.1342 66.1357 40.8106 63.8072 39.7861 59.5229C39.6309 58.8399 39.3825 58.1259 39.041 57.536C38.8547 57.2876 39.3204 57.0082 39.5067 57.3187Z" fill="#7D0006"/>
<path d="M51.5212 20.0325C52.08 22.6404 51.6453 24.3789 51.397 31.5815C51.1486 38.66 49.0996 48.6567 46.5849 51.1714C44.66 53.0652 38.4819 54.5554 32.9868 53.1583C30.1927 52.4443 27.8333 50.8299 25.9084 49.6812C23.4868 48.2221 21.3757 43.7204 19.6372 40.8332C18.2712 38.5668 18.3953 41.2989 16.6257 39.343C14.1731 36.673 11.2238 31.3021 12.6829 21.8021C15.0424 6.40343 27.2434 4.60277 36.2777 6.31029C45.3741 8.01781 50.031 13.1714 51.5212 20.0325Z" fill="white"/>
<path d="M18.1782 42.0747C17.4642 40.895 16.5328 39.8394 15.6946 38.7218C14.4527 37.0143 13.5214 35.0584 12.9004 33.0404C10.1995 24.4097 11.8449 13.109 20.0099 8.01752C27.4299 3.29857 41.8351 5.00608 47.858 11.4636C50.1243 13.792 51.5835 16.8345 52.2044 20.0012C52.2354 20.1875 52.3286 20.529 52.3596 20.7152C52.3906 20.8705 52.4838 21.0567 52.4527 21.243C52.3906 21.926 52.2665 22.609 52.2044 23.292C51.7387 27.4211 51.8629 31.6433 51.3351 35.7724C50.8694 40.1188 50.2485 44.4652 48.9446 48.6564C48.541 49.9293 47.7648 51.078 46.7403 51.9162C44.4429 53.8411 41.4315 54.493 38.5442 54.6172C32.7697 54.8966 26.9021 52.8476 23.5491 47.9734C23.425 47.7871 23.6733 47.5698 23.8286 47.7561C26.6227 50.7675 30.4103 52.6924 34.4462 53.127C38.9168 53.6548 45.6537 53.2512 47.6096 48.4701C49.8759 41.7022 51.0557 34.5306 51.1799 27.4211C51.1799 25.6826 51.0867 23.944 51.0867 22.1744C51.0867 21.9571 51.1178 21.4603 51.1178 21.243C51.1178 21.212 51.1178 21.243 51.1178 21.243C51.1178 21.2741 51.1178 21.2741 51.1178 21.243C50.8694 20.6221 50.7763 19.9391 50.59 19.3182C49.907 16.7414 48.6652 14.2888 46.8955 12.3329C41.0279 5.75118 27.9576 4.10576 20.6308 9.04203C14.8253 12.8917 13.273 20.2806 12.8694 26.8002C12.5279 31.6744 13.956 36.4554 17.6504 39.8084L19.1096 41.3296C19.7305 42.0126 18.675 42.8198 18.1782 42.0747Z" fill="#7D0006"/>
<path d="M21.8418 32.2022C21.8418 32.2022 20.8794 27.5453 16.3467 28.1042C12.4349 28.6009 11.0689 37.9767 19.948 40.5846" fill="white"/>
<path d="M19.544 36.5174C18.83 36.1138 18.3332 35.4308 18.3022 34.5926C18.3332 33.9716 18.4264 33.2576 18.2711 32.6367C18.178 32.0468 17.5571 31.8916 17.0914 31.9226C16.5947 32.0158 16.2842 32.6367 16.1911 33.1334C16.1911 33.1645 16.16 33.2576 16.16 33.2886C16.129 33.4439 15.8806 33.4439 15.8185 33.2886C15.4149 32.0778 16.3153 30.7429 17.6192 30.8981C19.4509 31.0223 19.6992 32.9471 19.3577 34.4063C19.1715 35.0272 19.4198 35.586 19.7613 36.1138L19.8234 36.2069C19.9787 36.3932 19.7303 36.6416 19.544 36.5174Z" fill="#7D0006"/>
<path d="M44.381 28.9113C44.8467 31.1156 45.7159 33.1646 46.8025 35.0894C47.765 37.4489 45.2813 39.6842 43.077 39.5911C42.8287 39.5911 42.7976 39.2496 43.015 39.1875C44.412 38.7529 45.6849 37.8215 45.9022 36.3934C45.9954 35.9587 45.8712 35.5862 45.6538 35.2136C44.6293 33.2888 44.0084 31.0845 44.1637 28.9113C44.1637 28.7561 44.381 28.7561 44.381 28.9113Z" fill="#7D0006"/>
<path d="M21.6864 32.2334C20.9724 30.4017 19.4201 28.6632 17.34 28.6942C17.1538 28.6632 16.8433 28.7253 16.657 28.7253C16.1293 28.7563 15.6946 28.9426 15.291 29.3151C13.3041 31.3021 13.6456 34.8102 15.26 37.0145C15.8188 37.7906 16.5328 38.4736 17.34 39.0325C18.1472 39.5913 19.0476 40.0259 20.01 40.3985C20.2273 40.4606 20.1342 40.8021 19.9168 40.771C17.8368 40.3364 15.8498 39.3119 14.4838 37.6044C12.3727 35.0586 11.9381 30.8053 14.4528 28.3217C15.0116 27.825 15.7877 27.4524 16.5639 27.4524C16.8123 27.4524 17.1848 27.3903 17.4332 27.4524C18.7371 27.5145 19.9789 28.1665 20.7861 29.191C21.5002 30.0602 21.9038 31.1158 22.0279 32.1714C22.0279 32.3576 21.7485 32.4197 21.6864 32.2334Z" fill="#7D0006"/>
</g>
<path d="M42.0213 42.6962C40.0344 44.59 36.2778 43.0688 35.2844 40.7714C35.1602 40.492 35.4706 40.2436 35.719 40.3678C36.2468 40.6472 36.7125 40.9266 37.2092 41.1439C38.6373 41.7959 40.1275 42.3237 41.7108 42.1685C42.0213 42.1064 42.2386 42.4789 42.0213 42.6962Z" fill="#7D0006"/>
<path d="M32.8007 32.0783C32.0556 32.0473 31.4968 31.4264 31.5589 30.6813L31.59 29.812C31.621 29.0669 32.2419 28.5081 32.987 28.5701C33.7321 28.6012 34.2909 29.2221 34.2288 29.9672L34.1978 30.8365C34.1668 31.5505 33.5458 32.1094 32.8007 32.0783Z" fill="#7D0006"/>
<path d="M45.871 32.5441C45.188 32.5131 44.6602 31.9232 44.6912 31.2402L44.7223 30.433C44.7533 29.75 45.3432 29.2222 46.0262 29.2533C46.7092 29.2843 47.237 29.8742 47.2059 30.5572L47.1749 31.3644C47.1439 32.0474 46.554 32.5751 45.871 32.5441Z" fill="#7D0006"/>
<path d="M35.5947 30.4019C34.5702 29.7189 33.4526 29.2532 32.2107 29.5016C31.8071 29.5637 31.4036 29.6878 31.1552 29.9672C31.062 30.0914 30.8447 30.0604 30.8447 29.8741C30.8758 29.2532 31.4035 28.8496 31.9003 28.6012C32.8627 28.1045 34.1977 28.1976 35.067 28.8496C35.3774 29.0359 36.433 30.1846 35.8741 30.4329C35.75 30.495 35.6879 30.464 35.5947 30.4019Z" fill="#7D0006"/>
<path d="M44.4739 30.5572C44.4739 29.2533 46.0883 28.7876 47.0817 29.2533C47.6406 29.5016 48.0441 29.9984 48.1994 30.5882C48.2615 30.7745 47.9821 30.9297 47.8579 30.7745C47.3301 30.1536 46.4298 29.8431 45.7157 30.2157C45.4984 30.3399 45.4673 30.433 45.4053 30.5572C45.4053 31.1781 44.5049 31.1471 44.4739 30.5572Z" fill="#7D0006"/>
<path d="M37.085 25.2793C37.737 25.4966 38.3889 24.9067 38.2648 24.1927C38.2027 23.8201 38.0474 23.4476 37.737 23.1681C36.8056 22.3299 32.9559 21.5848 30.6275 22.6714C28.5785 23.6649 34.1046 24.2858 37.085 25.2793Z" fill="#7D0006"/>
<path d="M46.3677 25.7758C45.8399 25.9621 45.2811 25.4032 45.3743 24.7513C45.4053 24.4098 45.5295 24.0683 45.7779 23.8199C46.523 23.0748 49.0687 22.4849 50.6831 23.6336C52.0801 24.596 48.7893 24.8755 46.3677 25.7758Z" fill="#7D0006"/>
<path d="M55.4039 47.4457C51.8026 38.2562 52.2682 35.369 53.1375 27.6386C54.8761 12.4261 49.381 8.7317 46.4937 7.27255C34.1996 1.03235 20.1048 4.07483 14.796 12.6435C11.4741 17.9833 11.3499 22.2676 9.48719 28.4147C6.28948 38.9392 -1.40987 43.5961 0.980654 54.369C4.2715 64.9866 25.3205 69.6745 24.9169 58.6222C24.6686 51.9474 19.6702 51.0471 19.5771 41.8265C19.5771 41.2056 19.6081 40.6157 19.6702 40.0569C11.1016 37.3559 12.4676 28.1663 16.3483 27.6696C19.0493 27.3281 20.4774 28.8493 21.1914 30.1222C21.2535 30.3085 21.3467 30.4637 21.4398 30.65C22.0607 31.7056 29.3875 29.7186 34.9758 26.2725C38.2356 24.2546 43.3271 20.7775 44.7241 16.9588C44.7862 16.8036 45.7797 21.5846 50.4365 27.7938C50.2192 31.4882 51.1506 40.7088 46.4316 48.315C43.0166 53.8722 38.7323 54.369 38.7323 54.369C38.7323 58.0634 45.2829 57.8771 48.015 58.498C51.43 59.2431 54.814 61.2922 54.814 61.2922C54.814 61.2922 58.7258 55.9212 55.4039 47.4457Z" fill="#7D0006"/>
<path d="M18.3645 33.1649C18.3645 33.1649 15.8808 32.7924 16.0671 36.2695C16.1602 38.0391 16.1602 39.0015 16.1292 39.4983C16.0982 39.8398 16.3155 40.1502 16.6259 40.2744C16.9985 40.4296 17.4021 40.2744 17.5883 39.9019C17.8678 39.4051 18.1782 38.7221 18.1782 38.1633C18.1782 37.2319 19.1717 36.3937 19.1717 36.3937C19.1717 36.3937 18.2714 35.6175 18.3645 33.1649Z" fill="white"/>
<path d="M18.2713 33.2583C18.2713 33.2894 18.3023 33.3204 18.3333 33.3204C18.3333 33.3204 18.3333 33.3204 18.3023 33.3204H18.2402C16.75 33.4446 16.2843 34.7485 16.3464 36.0835C16.3775 36.9528 16.4396 37.822 16.4085 38.6603C16.4706 39.126 16.1912 39.7469 16.6569 39.9953C16.9363 40.1505 17.3088 40.0263 17.433 39.7158C17.7124 39.157 17.9918 38.5982 17.9918 37.9773C18.116 37.2632 18.5817 36.7044 19.0784 36.2698V36.5181C18.4265 35.8351 18.2713 34.9037 18.1781 34.0345C18.2092 33.8171 18.2092 33.4756 18.2713 33.2583ZM18.4886 33.041C18.5817 33.9103 18.5817 34.8106 18.9543 35.5868C19.0474 35.8041 19.2026 36.0524 19.3889 36.2077C19.5131 36.3008 19.5131 36.4871 19.3889 36.5802C18.9543 36.9838 18.5817 37.4805 18.5196 38.0394C18.5196 38.7224 18.2402 39.3743 17.9298 39.9642C17.6814 40.492 16.9673 40.7714 16.4396 40.4609C16.0981 40.2747 15.8497 39.9021 15.8497 39.4985C15.8497 39.1881 15.8807 38.9397 15.8807 38.6292C15.8807 37.76 15.8186 36.9217 15.7876 36.0524C15.7876 35.4936 15.8186 34.8417 16.067 34.2828C16.3775 33.4136 17.3399 32.8237 18.2713 32.9789C18.3644 32.9789 18.4575 33.01 18.4886 33.041Z" fill="#7D0006"/>
<path d="M17.9609 69.9235C18.9854 65.4529 17.6504 60.4235 16.5017 55.9529C16.036 54.1833 15.5704 52.5069 15.353 51.0477C14.9494 48.5951 15.2289 46.2667 16.2223 44.0935C17.4331 41.3925 17.2468 39.0951 17.2468 39.002L16.6259 39.064C16.6259 39.0951 16.8122 41.3304 15.6635 43.8451C14.639 46.1114 14.3285 48.564 14.7321 51.1408C14.9805 52.631 15.4151 54.3386 15.8808 56.1082C17.0295 60.4856 18.3334 65.4529 17.34 69.7683C16.7811 72.1588 17.8677 76.0706 19.42 79.9823C19.6684 80.0134 19.8857 80.0444 20.1341 80.0755C18.5508 76.1637 17.4331 72.2209 17.9609 69.9235Z" fill="#7D0006"/>
<path d="M16.1602 38.0701C16.1912 38.7531 16.1602 39.2188 16.1602 39.4982C16.1291 39.8397 16.3465 40.1502 16.6569 40.2744C17.0295 40.4296 17.4331 40.2744 17.6193 39.9018C17.8987 39.4051 18.2092 38.7221 18.2092 38.1632C18.2092 38.1322 18.2092 38.0701 18.2092 38.0391C17.5883 38.2874 16.8432 38.4737 16.1602 38.0701Z" fill="white"/>
<path d="M16.2533 38.1947C16.2843 38.6293 16.3154 39.0329 16.3154 39.4676C16.2843 39.6538 16.3464 39.8401 16.4706 39.9953C16.8742 40.3989 17.433 40.1506 17.5882 39.6538C17.8366 39.1571 18.0539 38.6293 18.0539 38.0705L18.2712 38.2257C17.5882 38.3499 16.8742 38.5362 16.2222 38.2568C16.2222 38.2568 16.2533 38.2257 16.2533 38.1947ZM16.098 37.9153C16.1601 37.9153 16.2843 37.9463 16.3464 38.0084C16.9052 38.412 17.6193 38.2257 18.1781 37.9153C18.2712 37.8532 18.4265 37.9463 18.3954 38.0705C18.3644 38.7846 18.085 39.4676 17.7124 40.0885C17.3709 40.5542 16.6569 40.5852 16.2533 40.1816C16.067 39.9953 15.9739 39.6849 16.0049 39.4365C16.0049 38.9087 16.067 38.412 16.098 37.9153Z" fill="#7D0006"/>
<path d="M45.4054 58.7154C45.9332 55.052 45.4365 52.4441 45.2502 51.668C45.157 51.7301 45.0949 51.8232 45.0018 51.8853C44.9087 51.9784 44.8155 52.0405 44.7224 52.1337C44.9087 53.1271 45.2502 55.4866 44.7845 58.6222C44.5672 60.0814 44.5051 62.3788 44.474 65.0487C44.4119 67.6255 43.6048 74.052 42.6423 80.1369C42.8597 80.0748 43.077 80.0127 43.2943 79.9817C44.2567 73.9588 45.0329 67.6565 45.0949 65.0797C45.157 62.4098 45.1881 60.1435 45.4054 58.7154Z" fill="#7D0006"/>
<path d="M27.4298 38.2254C28.2991 37.7597 29.1373 37.263 30.0997 37.0146C30.1929 37.0146 30.2549 36.9836 30.4412 37.0456C31.0932 37.5424 29.1994 38.7842 28.8579 39.0947C28.951 38.9705 28.92 38.7532 28.7648 38.6911C28.7337 38.6911 28.7337 38.66 28.7027 38.66C28.6406 38.66 28.6406 38.66 28.6406 38.66C29.4167 38.3806 30.1929 38.0702 30.938 37.6976C31.3726 37.5113 31.9625 37.1077 32.4282 37.0767C32.6144 37.0767 32.8317 37.263 32.8007 37.4492C32.7697 37.6976 32.7076 37.7907 32.6455 37.946C32.5834 38.0702 32.4592 38.2564 32.4282 38.3806C32.4282 38.4117 32.3971 38.3496 32.3971 38.3496C32.3971 38.3806 32.5834 38.3806 32.6144 38.3496C33.1112 38.2875 33.6389 38.1012 34.1357 37.9149C34.2288 37.8839 34.2909 38.0081 34.1978 38.0702C33.67 38.4117 33.1112 38.7842 32.4282 38.8463C31.9935 38.8773 31.7762 38.4738 31.9314 38.1012C31.9935 37.8839 32.1487 37.6355 32.2108 37.4492C32.2108 37.5113 32.2729 37.6045 32.335 37.6355C32.3971 37.6666 32.4282 37.6355 32.3971 37.6666C32.0866 37.7597 31.4657 38.1012 31.1863 38.2254C30.3791 38.5979 29.603 38.9394 28.7337 39.1878C28.6716 39.1878 28.6716 39.2189 28.5785 39.1878C28.3301 39.1568 28.268 38.8463 28.4543 38.6911C28.8268 38.3806 29.2615 38.1322 29.603 37.8218C29.7893 37.6666 30.0066 37.4492 30.1308 37.263C30.1308 37.294 30.1618 37.3561 30.1929 37.3871C29.9134 37.4182 29.3546 37.5734 29.0131 37.7286C28.5164 37.9149 27.9886 38.1322 27.4919 38.3496C27.4298 38.4117 27.3366 38.2564 27.4298 38.2254Z" fill="#7D0006"/>
<path d="M47.5474 38.2253C47.8268 37.9149 49.0065 36.4247 49.317 37.2008C49.317 37.2629 49.317 37.325 49.317 37.356C49.1928 37.977 48.7892 38.5047 48.4787 39.0325C48.5408 38.8773 48.4166 38.66 48.2614 38.6289C48.1993 38.6289 48.1683 38.6289 48.1372 38.6289C48.1062 38.6289 48.1372 38.6289 48.1683 38.5979C48.7892 38.1943 49.2549 37.6975 49.8758 37.2629C50 37.2008 50.1552 37.1077 50.3104 37.2008C50.4657 37.325 50.4346 37.5113 50.3725 37.6355C50.3104 37.7907 50.2483 37.9149 50.1862 38.0701C50.1552 38.1011 50.1241 38.1322 50.0621 38.1011C50.031 38.1011 50.031 38.0701 50.031 38.039C50.031 37.977 50.031 37.5734 50.031 37.5113C50 37.4492 50.031 37.4802 50.031 37.5113C50.031 37.5423 50.0931 37.6044 50.1552 37.6044C50.1862 37.6044 50.2483 37.6044 50.2483 37.6044C49.7206 38.2253 49.0996 38.8152 48.3856 39.2188C48.1683 39.3119 47.9199 39.1256 47.9509 38.8773C47.9509 38.8462 47.982 38.7841 48.013 38.7531C48.2304 38.4426 48.4787 38.1322 48.665 37.8217C48.7581 37.6665 48.8823 37.4492 48.9134 37.294C48.9134 37.356 49.0375 37.4492 49.0686 37.4181C48.5719 37.6044 48.1372 38.008 47.7026 38.3185C47.5784 38.4116 47.4853 38.2874 47.5474 38.2253Z" fill="#7D0006"/>
</svg>
