<svg width="60" height="70" viewBox="0 0 60 70" fill="none" xmlns="http://www.w3.org/2000/svg">
<mask id="mask0_1047_1334" style="mask-type:alpha" maskUnits="userSpaceOnUse" x="-16" y="-13" width="95" height="95">
<circle cx="31.3443" cy="34.3443" r="47.3443" fill="#D9D9D9"/>
</mask>
<g mask="url(#mask0_1047_1334)">
<path d="M67.6063 92.6802H-10.9084C-10.9084 92.6802 -6.28263 82.9318 -4.23361 71.8174C-2.8055 64.1181 -1.74995 59.6165 2.25495 57.1328C5.08012 55.3942 13.0278 52.8795 18.6782 52.0723C20.9755 51.7619 25.5393 51.4204 29.4821 51.7308C32.4625 52.1034 38.6095 53.8419 40.969 54.4939C44.5082 55.4874 52.1765 58.4367 55.5605 61.5413C56.8955 62.7831 60.0621 68.9923 62.1112 77.9955C64.4706 88.2406 67.6063 92.6802 67.6063 92.6802Z" fill="#7D0006"/>
<path d="M68.3202 93.0525C45.3774 93.2698 11.7859 93.7355 -10.8775 93.6424C-11.5605 93.6734 -12.0572 92.8973 -11.7468 92.2764C-8.76637 85.6947 -6.50003 78.6783 -5.10297 71.5689C-3.95428 66.0117 -3.24022 58.9953 2.37906 56.077C5.14213 54.68 8.06043 53.7486 11.0098 52.8793C16.1944 51.3581 21.6895 50.613 27.0915 50.7682C27.9297 50.7992 28.799 50.8303 29.6683 50.8924C31.531 51.1718 33.3627 51.6375 35.1634 52.1032C36.7778 52.5068 38.4232 52.9725 40.0065 53.4381C40.1928 53.5313 40.2549 53.9038 40.348 54.0901C40.4722 54.3074 40.6274 54.2764 40.8447 54.1832C40.9379 54.1522 41.031 54.0901 41.1242 54.1211C41.3415 54.1522 41.6519 54.2764 41.8693 54.3385C46.6813 55.8907 51.5245 57.7224 55.5915 60.796C56.1813 61.2306 56.647 61.8205 57.0196 62.4414C57.7647 63.6211 58.3856 64.8319 58.9444 66.0738C60.6209 69.7682 61.8627 73.6489 62.7941 77.5917C64.0049 82.528 65.433 87.4953 68.0098 91.9038L68.134 92.0901L68.1961 92.1832C68.3823 92.3385 68.4444 92.8042 68.3202 93.0525ZM66.8921 92.3074C66.7369 92.4937 66.7679 92.8973 66.8921 93.0525L66.8611 92.9904L66.799 92.8662C65.3709 90.6309 64.3153 88.1473 63.415 85.6947C62.4836 83.18 61.7696 80.51 61.1487 77.9022C60.2483 74.0525 59.0686 70.2649 57.4853 66.6636C56.8023 65.1424 56.1192 63.6211 55.0947 62.3483C54.5049 61.7584 53.8219 61.2617 53.1078 60.796C49.5376 58.4986 45.5326 56.8221 41.4967 55.5182C41.3415 55.4561 40.9689 55.363 40.7826 55.3009C40.5964 55.2388 40.5964 54.711 40.4722 54.5868C40.1928 54.3385 39.8823 55.0215 39.6029 54.9594C38.0196 54.5247 36.3742 54.0901 34.7598 53.7175C32.8349 53.2829 30.9411 52.7862 29.0163 52.6309C20.5098 52.0721 11.9101 53.8728 4.08657 57.2568C0.29899 58.8091 -1.12911 62.3172 -2.02944 66.0738C-2.83663 69.2404 -3.30232 72.6865 -4.04741 75.8842C-5.47552 81.8139 -7.46245 87.5264 -9.97715 93.1146L-10.8464 91.7486C11.196 91.6865 44.5392 92.028 66.8921 92.3074Z" fill="#7D0006"/>
<path d="M40.8137 63.2483C40.1618 66.446 35.9395 68.3708 28.8301 65.4836C21.4412 62.5032 18.2435 55.3937 17.4363 53.2826C21.8137 45.0865 18.7712 39.4052 18.7712 39.4052C28.8611 38.5359 37.6781 50.3333 37.6781 50.3333L39.0441 56.1699C39.1683 56.6666 39.4167 57.1012 39.7892 57.4117C40.4412 58.5604 41.2173 61.1993 40.8137 63.2483Z" fill="white"/>
<path d="M17.2812 53.3758C17.8711 52.4755 18.2437 51.4199 18.492 50.3954C18.9577 48.2532 19.1129 46.08 19.144 43.9068V43.0996C19.0508 42.2925 18.7714 41.4542 18.461 40.7091C18.0574 39.7157 19.5165 39.0947 19.9822 40.0882C20.0443 40.2124 20.0443 40.4297 20.0443 40.5539C20.1374 44.7761 20.3237 50.2091 17.6538 53.7173C17.4675 53.9036 17.095 53.6242 17.2812 53.3758Z" fill="#7D0006"/>
<path d="M38.0196 50.2716C38.4853 50.5511 38.6406 50.9236 38.7026 51.2961C38.8889 52.0412 38.8268 52.8484 39.0131 53.6246C39.1683 54.3697 39.634 55.0837 39.7582 55.8599C39.9134 56.6671 40.3791 58.3746 40.5654 59.2128C40.6275 59.3991 40.5033 59.6164 40.286 59.6475C40.1618 59.6785 40.0687 59.6475 39.9755 59.5854C39.5719 59.2439 39.3857 58.9024 39.1373 58.4677C38.7337 57.7226 38.4543 57.0396 38.2059 56.2014C37.9886 55.4563 38.0817 54.6491 37.8955 53.8729C37.7402 53.1278 37.3056 52.4138 37.1504 51.6377C37.0572 51.2651 37.0262 50.8615 37.3056 50.3958C37.4919 50.2095 37.8023 50.1475 38.0196 50.2716Z" fill="#7D0006"/>
<path d="M40.255 58.4675C34.3253 58.157 29.4821 56.2943 24.7632 47.8809C28.737 51.389 33.425 52.724 38.3612 53.3449L39.0132 56.2011C39.1374 56.6978 39.8825 58.157 40.255 58.4675Z" fill="#7D0006"/>
<path d="M40.007 57.3187C41.0625 59.3056 41.6834 61.7893 41.0315 63.9935C40.5347 65.5458 39.1066 66.6945 37.5543 67.1291C33.953 68.0915 29.7929 66.5703 26.5952 64.8628C22.6524 62.6585 19.7341 58.9641 17.8713 54.9281C17.7471 54.6177 18.1818 54.3693 18.3681 54.6798C19.02 55.9837 19.7651 57.2566 20.6034 58.4053C21.4416 59.585 22.404 60.6716 23.4906 61.634C26.6573 64.4902 30.9416 66.2598 35.2259 66.2598C39.6344 66.1357 41.3109 63.8072 40.2864 59.5229C40.1311 58.8399 39.8828 58.1259 39.5413 57.536C39.355 57.2876 39.8207 57.0082 40.007 57.3187Z" fill="#7D0006"/>
<path d="M52.0214 20.0335C52.5802 22.6413 52.1455 24.3799 51.8972 31.5825C49.0409 43.5041 49.2583 50.1168 47.675 51.7002C46.4331 52.942 39.0132 54.5564 33.5181 53.1593C30.724 52.4453 28.3645 50.8309 26.4397 49.6822C24.0181 48.223 22.1864 43.473 20.4478 40.5858C19.0818 38.3194 18.9266 41.2998 17.157 39.3439C14.7044 36.674 11.755 31.3031 13.2142 21.8031C15.5737 6.4044 27.7746 4.60375 36.8089 6.31127C45.8743 8.01878 50.5312 13.1724 52.0214 20.0335Z" fill="white"/>
<path d="M18.6783 42.0755C17.5916 40.2749 16.0394 38.7847 15.0459 36.9219C12.0345 31.2716 11.4135 24.4105 13.1521 18.2634C16.7845 5.16211 29.9479 3.23727 41.3727 7.08695C47.7681 9.26015 52.2698 14.6621 52.9217 21.4611C52.9838 23.6343 52.425 25.6523 52.3939 27.7945C52.2387 33.4448 50.4691 38.8778 49.7861 44.3108C49.6309 46.0183 49.6309 47.819 49.3825 49.5575C49.3204 49.9301 49.2583 50.2716 49.1341 50.6752C48.8547 51.5134 48.2338 52.1033 47.5508 52.569C44.974 54.1523 42.0557 54.4317 39.1374 54.5869C33.0524 54.8353 27.7126 53.0657 24.0802 48.0052C23.956 47.819 24.2044 47.6017 24.3596 47.7879C28.4266 52.1343 33.3008 53.5314 39.0753 53.252C41.5279 53.1278 46.7747 52.6621 47.8613 50.2716C48.389 48.3157 48.389 46.2667 48.6995 44.2177C49.041 41.7961 49.9724 38.4121 50.5312 36.0216C51.1521 33.3206 51.6799 30.5886 51.7109 27.8255C51.742 26.4285 51.742 25.0314 51.742 23.6343C51.8041 22.2373 51.5247 21.0265 51.1831 19.6915C49.9413 14.3827 46.1227 9.9742 40.9691 8.01832C35.9086 6.06244 30.041 5.56571 24.8564 7.27322C19.5786 8.94969 15.9773 13.4824 14.6113 18.7602C13.8972 21.368 13.5247 24.1 13.3384 26.801C13.1832 29.533 13.4626 32.3271 14.5492 34.8729C15.3253 36.7977 16.5982 38.4742 18.0884 39.8713L19.5475 41.3925C20.2305 42.0134 19.175 42.8206 18.6783 42.0755Z" fill="#7D0006"/>
<path d="M22.3415 32.2032C22.3415 32.2032 21.3791 27.5463 16.8464 28.1051C12.9347 28.6019 11.5687 37.9777 20.4477 40.5855" fill="white"/>
<path d="M20.0443 36.5184C19.3302 36.1148 18.8335 35.4318 18.8024 34.5935C18.8335 33.9726 18.9266 33.2586 18.7714 32.6376C18.6782 32.0478 18.0573 31.8925 17.5916 31.9236C17.0949 32.0167 16.7845 32.6377 16.6913 33.1344C16.6913 33.1654 16.6603 33.2586 16.6603 33.2896C16.6292 33.4448 16.3809 33.4448 16.3188 33.2896C15.9152 32.0788 16.8155 30.7439 18.1194 30.8991C19.9511 31.0233 20.1995 32.9481 19.858 34.4073C19.6717 35.0282 19.9201 35.587 20.2616 36.1148L20.3237 36.2079C20.4789 36.3942 20.2305 36.6425 20.0443 36.5184Z" fill="#7D0006"/>
<path d="M44.881 28.9123C45.3467 31.1166 46.2159 33.1656 47.3025 35.0904C48.265 37.4499 45.7813 39.6852 43.577 39.5921C43.3287 39.5921 43.2976 39.2506 43.515 39.1885C44.912 38.7538 46.1849 37.8225 46.4022 36.3943C46.4954 35.9597 46.3712 35.5872 46.1538 35.2146C45.1293 33.2898 44.5084 31.0855 44.6637 28.9123C44.6637 28.7571 44.881 28.7571 44.881 28.9123Z" fill="#7D0006"/>
<path d="M22.1864 32.2344C21.4724 30.4027 19.9201 28.6642 17.84 28.6952C17.6538 28.6642 17.3433 28.7263 17.157 28.7263C16.6293 28.7573 16.1946 28.9436 15.791 29.3161C13.8041 31.3031 14.1456 34.8112 15.76 37.0155C16.3188 37.7916 17.0328 38.4746 17.84 39.0334C18.6472 39.5923 19.5476 40.0269 20.51 40.3995C20.7273 40.4615 20.6342 40.8031 20.4168 40.772C18.3368 40.3374 16.3498 39.3129 14.9838 37.6053C12.8727 35.0596 12.4381 30.8063 14.9528 28.3227C15.5116 27.8259 16.2877 27.4534 17.0639 27.4534C17.3123 27.4534 17.6848 27.3913 17.9332 27.4534C19.2371 27.5155 20.4789 28.1674 21.2861 29.1919C22.0002 30.0612 22.4038 31.1168 22.5279 32.1723C22.5279 32.3586 22.2485 32.4207 22.1864 32.2344Z" fill="#7D0006"/>
</g>
<path d="M42.5213 42.6962C40.5344 44.59 36.7778 43.0688 35.7844 40.7714C35.6602 40.492 35.9706 40.2436 36.219 40.3678C36.7468 40.6472 37.2125 40.9266 37.7092 41.1439C39.1373 41.7959 40.6275 42.3237 42.2108 42.1685C42.5213 42.1064 42.7386 42.4789 42.5213 42.6962Z" fill="#7D0006"/>
<path d="M34.7596 29.8745C34.7596 29.9055 34.7596 29.9366 34.7596 29.9366L34.7286 30.8058C34.6975 31.5509 34.0766 32.1098 33.3315 32.0787C32.5864 32.0477 32.0276 31.3957 32.0897 30.6816L32.1207 29.8124C32.1207 29.6571 32.1828 29.4709 32.2449 29.3467L34.7286 29.4709C34.7286 29.595 34.7596 29.7192 34.7596 29.8745Z" fill="#7D0006"/>
<path d="M47.7367 30.5569L47.7057 31.3641C47.6746 32.0471 47.0848 32.5748 46.4017 32.5438C45.7187 32.5128 45.191 31.9229 45.222 31.2399L45.2531 30.4327C45.2531 30.2775 45.2841 30.1222 45.3462 29.998L47.6746 30.0912C47.7057 30.2464 47.7367 30.4016 47.7367 30.5569Z" fill="#7D0006"/>
<path d="M37.8641 25.6207C38.5471 25.7138 39.0749 24.9998 38.8265 24.3168C38.7024 23.9442 38.485 23.6027 38.1435 23.3854C37.088 22.7334 33.1452 22.6714 31.0651 24.1616C29.2024 25.5276 34.7595 25.1861 37.8641 25.6207Z" fill="#7D0006"/>
<path d="M46.4638 25.9627C45.905 25.9627 45.5635 25.2486 45.8429 24.6587C45.9981 24.3483 46.2154 24.0689 46.5259 23.9136C47.4883 23.448 50.0651 23.7274 51.2138 25.3107C52.2383 26.7078 49.0406 25.9316 46.4638 25.9627Z" fill="#7D0006"/>
<path d="M36.7463 29.8739L31.6238 29.7808C31.0029 29.7497 31.0339 28.8183 31.6548 28.8494L36.7774 29.2219C37.212 29.253 37.181 29.8739 36.7463 29.8739Z" fill="#7D0006"/>
<path d="M49.0408 30.4015L45.2532 30.4636C44.6323 30.4636 44.6013 29.5633 45.2222 29.5322C45.2532 29.5322 45.2532 29.5322 45.2843 29.5322L49.0719 29.9358C49.3513 29.9669 49.3202 30.3705 49.0408 30.4015Z" fill="#7D0006"/>
<path d="M31.0964 4.7586C12.7483 4.38605 10.8856 19.7537 12.0343 28.9122C13.3072 39.0952 19.3921 43.1001 19.3921 43.1001L19.7957 40.3991C19.7957 40.3991 18.3366 39.9024 16.9395 38.8779C12.0964 35.2145 13.5866 28.5397 16.8774 28.1361C20.1683 27.7014 21.5964 30.0919 22.0931 31.3959C23.8317 25.6524 21.3791 24.2243 23.8317 20.1573C31.5 11.8681 36.8398 17.4563 40.5964 18.5429C44.6944 19.6916 47.3954 18.3877 48.9166 16.9285C50.0032 15.873 51.4003 17.8599 51.4003 17.8599C51.4003 17.8599 49.3823 5.13115 31.0964 4.7586Z" fill="#7D0006"/>
<path d="M38.3304 35.9283C36.9023 35.9593 32.4938 35.9904 31.1278 36.0214C28.7683 36.0525 26.9987 34.0035 27.2161 31.675C27.2471 30.8989 27.2161 29.8123 27.2471 29.0361C27.3092 27.0182 29.1099 25.3106 31.1278 25.3727L36.3746 25.4348C36.7782 25.4348 37.9268 25.4659 38.3304 25.4659C40.0069 25.4348 41.5902 26.6767 41.9628 28.3221C42.087 28.7878 42.0559 29.2845 42.0559 29.6881V32.327C42.0249 34.2829 40.2863 35.9593 38.3304 35.9283ZM38.3304 35.2453C39.9448 35.3074 41.435 33.9103 41.4661 32.2959C41.4971 31.4577 41.4661 30.5574 41.4661 29.6881C41.6523 27.7943 40.2242 26.0557 38.2994 26.1178C36.9644 26.1489 32.4938 26.1799 31.0968 26.211C29.4203 26.211 27.9922 27.7322 28.1164 29.4087C28.1164 29.626 28.1164 30.1848 28.1164 30.4021C28.1474 31.0852 28.0543 32.2649 28.2095 32.8858C28.52 34.1897 29.7618 35.1832 31.0968 35.1832H31.7487C32.6491 35.1832 37.3991 35.2453 38.3304 35.2453Z" fill="#7D0006"/>
<path d="M50.8417 26.2729L48.3891 26.3039C47.7061 26.335 46.8989 26.2108 46.309 26.6144C45.7502 26.9869 45.5019 27.6699 45.5329 28.3219C45.5329 29.1291 45.5329 29.9673 45.5019 30.7745L45.4708 30.6503C45.9055 32.1716 46.4953 33.6307 47.3956 34.9036L47.0852 34.7173C47.3336 34.7794 47.7682 34.7794 48.0166 34.7794C48.9479 34.8104 50.0345 34.8725 50.9659 34.8725C51.8352 34.8725 52.6734 34.2206 52.8597 33.3513C52.9218 33.1029 52.9218 32.6683 52.9218 32.4199C52.9218 31.085 52.9528 29.781 52.8907 28.4461C52.9528 27.2663 52.0525 26.2108 50.8417 26.2729ZM50.8417 25.3415C52.4872 25.3415 53.6358 26.9248 53.3564 28.4771C53.2943 29.8121 53.3254 31.116 53.3254 32.451C53.4806 34.0033 52.5492 35.4003 50.9349 35.5245C50.2519 35.5555 49.5999 35.5555 48.9479 35.5866C48.6064 35.5866 47.7682 35.6487 47.4577 35.6487C47.3025 35.6797 47.0541 35.6487 46.8989 35.6487C46.7747 35.6487 46.6506 35.5555 46.5885 35.4624C45.626 34.0343 44.943 32.451 44.5394 30.8055C44.5394 29.75 44.4463 28.6944 44.5394 27.6389C44.7257 26.397 45.8434 25.3415 47.1162 25.3105C47.9855 25.2794 49.9724 25.3415 50.8417 25.3415Z" fill="#7D0006"/>
<path d="M41.7143 28.1977C42.5526 27.8252 43.4839 27.67 44.4153 27.7321C44.7258 27.7631 45.0362 27.8562 45.3156 28.1046L45.7192 28.4461C46.1228 28.7876 45.6261 29.3775 45.2225 29.036C44.7258 28.6013 44.1359 28.6634 43.546 28.6945C42.9562 28.7566 42.3973 28.8808 41.8385 29.0981C41.3107 29.3154 40.9692 28.5392 41.466 28.2909L41.7143 28.1977Z" fill="#7D0006"/>
<path d="M27.7437 29.3152C27.5264 29.8119 27.278 29.874 26.8744 29.8429L25.9741 29.874C24.1734 29.874 22.3417 29.8429 20.5411 29.5635C19.9202 29.5325 19.8891 28.6632 20.51 28.6322L27.7126 28.3838C27.93 28.3838 28.0852 28.6011 27.9921 28.7874L27.7437 29.3152Z" fill="#7D0006"/>
</svg>
