<svg width="60" height="70" viewBox="0 0 60 70" fill="none" xmlns="http://www.w3.org/2000/svg">
<mask id="mask0_1047_3610" style="mask-type:alpha" maskUnits="userSpaceOnUse" x="-16" y="-12" width="95" height="95">
<circle cx="31.3443" cy="35.3443" r="47.3443" fill="#D9D9D9"/>
</mask>
<g mask="url(#mask0_1047_3610)">
<path d="M61.5522 78.8395C60.9624 74.2447 58.3545 66.5143 56.7712 64.4342C55.0326 62.1679 54.3186 61.4539 48.513 59.498C48.2026 57.9457 47.0539 54.0339 45.6879 52.3885C43.6078 49.2529 37.9264 48.5388 36.2189 48.9114C36.2189 48.9114 27.0294 45.6826 16.4428 45.6826C13.0898 46.4277 9.20912 47.949 7.09801 51.1467C5.6699 53.2578 7.28428 53.9408 6.57023 55.8656C6.38395 56.3624 2.03755 58.846 0.267941 60.3362C-0.539248 60.9882 -1.43958 62.6336 -2.06049 64.7758C-3.30232 69.1532 -1.96735 75.2071 -3.51964 80.4849C-6.50003 90.6679 -12.554 93.7104 -12.554 93.7104H67.6683C67.6062 93.6794 62.8251 88.5258 61.5522 78.8395Z" fill="white"/>
<path d="M61.0867 78.902C60.4658 74.8351 59.224 70.7991 57.6406 67.0115C56.8645 65.1798 55.6848 63.4102 54.0393 62.3236C53.2011 61.7958 52.2697 61.3922 51.3073 60.9887C50.3449 60.6161 49.3514 60.2746 48.389 59.9331C48.2338 59.871 48.1096 59.7468 48.0785 59.5916C47.9544 58.9707 47.7991 58.3808 47.6129 57.7599C46.8057 55.2452 45.9364 52.4511 43.5769 50.9919C41.7763 49.9053 39.6341 49.3775 37.554 49.2844C37.1504 49.2844 36.7158 49.2844 36.3433 49.3465H36.2191C36.188 49.3465 36.1259 49.3465 36.0949 49.3154C34.6047 48.6014 32.9593 48.1668 31.3449 47.7321C26.5017 46.6145 21.4413 46.1488 16.474 46.1177C13.4315 46.8318 9.17822 48.5083 7.31547 51.6128C7.00502 52.1096 6.84979 52.6063 6.91188 53.1651C6.97397 53.786 7.19129 54.469 7.03606 55.121C6.97397 55.4004 6.91188 55.7109 6.7877 55.9592C6.53933 56.3007 6.13574 56.5181 5.82528 56.7354C4.2109 57.7909 2.56547 58.7223 1.01319 59.8089C0.48541 60.1815 -0.011322 60.523 -0.383871 61.0507C-1.47047 62.603 -2.12243 64.4658 -2.40184 66.3285C-2.89858 70.1161 -2.40184 73.9658 -2.89858 77.7534C-3.4574 81.5409 -4.91655 85.2043 -6.96557 88.4331C-8.39367 90.6063 -10.1322 92.6243 -12.3365 94.0213L-12.5538 93.1521H67.6684L67.3269 93.9282C66.3955 92.8726 65.6504 91.7239 64.9674 90.5132C62.8563 86.9739 61.6145 82.969 61.0867 78.902ZM62.0181 78.7779C62.3596 81.4168 63.0116 84.0246 64.005 86.5083C64.9985 88.9609 66.2403 91.3514 67.9789 93.3694C68.2272 93.6488 68.0099 94.1766 67.6374 94.1455H-12.5849C-12.8332 94.1455 -13.0505 93.9282 -13.0505 93.6798C-13.0505 93.4936 -12.9574 93.3383 -12.8022 93.2762C-12.3054 92.9968 -11.8087 92.5932 -11.343 92.1896C-7.27603 88.5262 -4.73028 83.0932 -3.89204 77.6913C-3.17799 72.6308 -4.51296 67.1668 -2.24662 62.3547C-1.71884 61.237 -1.06688 60.0573 -0.011322 59.3432C1.91351 57.9151 4.02463 56.8596 5.91842 55.4625C5.94946 55.4625 5.94946 55.4315 5.94946 55.4315C5.91842 55.4625 5.88737 55.5246 5.88737 55.5556C6.07364 55.121 6.13574 54.7485 6.07364 54.2517C5.98051 53.6308 5.82528 52.7926 6.0426 52.1406C6.13574 51.7681 6.32201 51.4266 6.50829 51.1471C8.74358 47.7942 12.6864 46.304 16.4429 45.4658C17.4985 45.4968 18.5851 45.3105 19.6406 45.3105C21.0998 45.3105 22.59 45.5279 24.0491 45.7141C28.2403 46.3661 32.2763 47.4837 36.4053 48.3841L36.1259 48.353C37.0883 48.1668 37.9887 48.2599 38.92 48.3841C44.8808 49.2844 46.8988 51.8922 48.5132 57.4494C48.6995 58.0703 48.8547 58.6913 49.0099 59.3432L48.6995 58.9707C51.6798 60.0262 55.0328 60.9887 56.9266 63.7517C57.6096 64.59 58.1063 65.5834 58.541 66.5769C60.1243 70.5507 61.3661 74.5556 62.0181 78.7779Z" fill="#7D0006"/>
<path d="M12.6245 58.4122C14.9218 63.3174 18.4921 67.4775 22.7454 70.7684C22.9006 70.8926 22.7454 71.1409 22.5591 71.0478C18.7715 69.2471 15.5738 66.1736 13.68 62.4481C13.0591 61.2063 12.5313 59.8713 12.345 58.4743C12.283 58.319 12.5313 58.257 12.6245 58.4122Z" fill="#7D0006"/>
<path d="M48.979 59.4363C49.0721 64.6209 46.961 69.9297 42.925 73.2827C42.8319 73.3758 42.7077 73.3448 42.6146 73.2516C42.5214 73.1585 42.5525 73.0343 42.6456 72.9412C43.546 72.0719 44.4463 71.1716 45.1293 70.116C46.5574 68.067 47.4267 65.6454 47.8303 63.1928C48.0166 61.982 48.1407 60.6781 48.0476 59.4673C48.0165 58.8774 48.9479 58.8153 48.979 59.4363Z" fill="#7D0006"/>
<path d="M7.22237 55.7416C8.37106 62.0129 12.7796 67.3217 18.0884 70.7057C19.889 71.8544 21.8139 72.8478 23.8008 73.655C23.925 73.7171 23.9871 73.8413 23.925 73.9655C23.8939 74.0897 23.7387 74.1518 23.6456 74.0897C21.5965 73.3446 19.6096 72.4132 17.7469 71.2956C13.9593 69.0603 10.6374 65.9557 8.4021 62.1681C7.25341 60.2122 6.35308 58.1632 5.91844 55.9279C5.85635 55.5554 6.10472 55.2139 6.47727 55.1518C6.81877 55.0586 7.19132 55.338 7.22237 55.7416Z" fill="#7D0006"/>
<path d="M16.9396 54.624C16.505 53.3822 16.3187 52.1093 16.4119 50.8054C16.4119 50.6812 16.505 50.6191 16.6292 50.6191C16.7223 50.6191 16.8155 50.7123 16.8155 50.8054C16.9086 51.9852 17.2501 53.1959 17.8089 54.2205C18.0883 54.8414 17.157 55.245 16.9396 54.624Z" fill="#7D0006"/>
<path d="M37.9265 56.2693C37.0572 54.3134 34.915 53.32 33.0213 52.637C31.8415 52.2644 30.5376 51.985 29.2958 51.7987C26.2843 51.3331 22.0311 50.619 19.0196 50.3085C18.9886 50.3085 18.9886 50.2465 19.0196 50.2465C19.8889 50.1533 20.7582 50.1533 21.6275 50.1533C24.2353 50.2154 26.8432 50.4948 29.4199 50.8984C31.9967 51.302 34.7598 52.0782 36.7157 53.9409C37.3366 54.5929 37.8954 55.338 38.0507 56.2383C38.0817 56.3314 37.9575 56.3625 37.9265 56.2693Z" fill="#7D0006"/>
<path d="M40.8135 64.2483C40.1615 67.446 35.9393 69.3708 28.8298 66.4836C21.4409 63.5032 18.2432 56.3937 17.436 54.2826C21.8135 46.0865 18.771 40.4052 18.771 40.4052C28.8609 39.5359 37.6779 51.3333 37.6779 51.3333L39.0439 57.1699C39.1681 57.6666 39.4164 58.1012 39.789 58.4117C40.4409 59.5604 41.2171 62.1993 40.8135 64.2483Z" fill="white"/>
<path d="M17.281 54.3758C17.8709 53.4755 18.2434 52.4199 18.4918 51.3954C18.9575 49.2532 19.1127 47.08 19.1437 44.9068V44.0996C19.0506 43.2925 18.7712 42.4542 18.4607 41.7091C18.0571 40.7157 19.5163 40.0947 19.982 41.0882C20.0441 41.2124 20.0441 41.4297 20.0441 41.5539C20.1372 45.7761 20.3235 51.2091 17.6535 54.7173C17.4673 54.9036 17.0947 54.6242 17.281 54.3758Z" fill="#7D0006"/>
<path d="M38.0194 51.2716C38.4851 51.5511 38.6403 51.9236 38.7024 52.2962C38.8887 53.0412 38.8266 53.8484 39.0129 54.6246C39.1681 55.3697 39.6338 56.0837 39.758 56.8599C39.9132 57.6671 40.3789 59.3746 40.5651 60.2128C40.6272 60.3991 40.5031 60.6164 40.2857 60.6475C40.1616 60.6785 40.0684 60.6475 39.9753 60.5854C39.5717 60.2439 39.3854 59.9024 39.137 59.4677C38.7334 58.7226 38.454 58.0396 38.2057 57.2014C37.9884 56.4563 38.0815 55.6491 37.8952 54.8729C37.74 54.1278 37.3053 53.4138 37.1501 52.6377C37.057 52.2651 37.0259 51.8615 37.3053 51.3958C37.4916 51.2095 37.8021 51.1475 38.0194 51.2716Z" fill="#7D0006"/>
<path d="M40.2548 59.4675C34.325 59.157 29.4819 57.2943 24.7629 48.8809C28.7368 52.389 33.4247 53.724 38.361 54.3449L39.0129 57.2011C39.1371 57.6978 39.8822 59.157 40.2548 59.4675Z" fill="#7D0006"/>
<path d="M40.0067 58.3187C41.0623 60.3056 41.6832 62.7893 41.0312 64.9935C40.5345 66.5458 39.1064 67.6945 37.5541 68.1291C33.9528 69.0915 29.7927 67.5703 26.5949 65.8628C22.6521 63.6585 19.7338 59.9641 17.8711 55.9281C17.7469 55.6177 18.1815 55.3693 18.3678 55.6798C19.0198 56.9837 19.7649 58.2566 20.6031 59.4053C21.4413 60.585 22.4038 61.6716 23.4904 62.634C26.657 65.4902 30.9413 67.2598 35.2257 67.2598C39.6342 67.1357 41.3106 64.8072 40.2861 60.5229C40.1309 59.8399 39.8825 59.1259 39.541 58.536C39.3547 58.2876 39.8204 58.0082 40.0067 58.3187Z" fill="#7D0006"/>
<path d="M52.0212 21.0325C52.58 23.6404 52.1453 25.3789 51.897 32.5815C51.6486 39.66 49.5996 49.6567 47.0849 52.1714C45.16 54.0652 38.9819 55.5554 33.4868 54.1583C30.6927 53.4443 28.3333 51.8299 26.4084 50.6812C23.9868 49.2221 21.8757 44.7204 20.1372 41.8332C18.7712 39.5668 18.8953 42.2989 17.1257 40.343C14.6731 37.673 11.7238 32.3021 13.1829 22.8021C15.5424 7.40343 27.7434 5.60277 36.7777 7.31029C45.8741 9.01781 50.531 14.1714 52.0212 21.0325Z" fill="white"/>
<path d="M18.6782 43.0747C17.9642 41.895 17.0328 40.8394 16.1946 39.7218C14.9527 38.0143 14.0214 36.0584 13.4004 34.0404C10.6995 25.4097 12.3449 14.109 20.5099 9.01752C27.9299 4.29857 42.3351 6.00608 48.358 12.4636C50.6243 14.792 52.0835 17.8345 52.7044 21.0012C52.7354 21.1875 52.8286 21.529 52.8596 21.7152C52.8906 21.8705 52.9838 22.0567 52.9527 22.243C52.8906 22.926 52.7665 23.609 52.7044 24.292C52.2387 28.4211 52.3629 32.6433 51.8351 36.7724C51.3694 41.1188 50.7485 45.4652 49.4446 49.6564C49.041 50.9293 48.2648 52.078 47.2403 52.9162C44.9429 54.8411 41.9315 55.493 39.0442 55.6172C33.2697 55.8966 27.4021 53.8476 24.0491 48.9734C23.925 48.7871 24.1733 48.5698 24.3286 48.7561C27.1227 51.7675 30.9103 53.6924 34.9462 54.127C39.4168 54.6548 46.1537 54.2512 48.1096 49.4701C50.3759 42.7022 51.5557 35.5306 51.6799 28.4211C51.6799 26.6826 51.5867 24.944 51.5867 23.1744C51.5867 22.9571 51.6178 22.4603 51.6178 22.243C51.6178 22.212 51.6178 22.243 51.6178 22.243C51.6178 22.2741 51.6178 22.2741 51.6178 22.243C51.3694 21.6221 51.2763 20.9391 51.09 20.3182C50.407 17.7414 49.1652 15.2888 47.3955 13.3329C41.5279 6.75118 28.4576 5.10576 21.1308 10.042C15.3253 13.8917 13.773 21.2806 13.3694 27.8002C13.0279 32.6744 14.456 37.4554 18.1504 40.8084L19.6096 42.3296C20.2305 43.0126 19.175 43.8198 18.6782 43.0747Z" fill="#7D0006"/>
<path d="M22.3418 33.2022C22.3418 33.2022 21.3794 28.5453 16.8467 29.1042C12.9349 29.6009 11.5689 38.9767 20.448 41.5846" fill="white"/>
<path d="M20.044 37.5174C19.33 37.1138 18.8332 36.4308 18.8022 35.5926C18.8332 34.9716 18.9264 34.2576 18.7711 33.6367C18.678 33.0468 18.0571 32.8916 17.5914 32.9226C17.0947 33.0158 16.7842 33.6367 16.6911 34.1334C16.6911 34.1645 16.66 34.2576 16.66 34.2886C16.629 34.4439 16.3806 34.4439 16.3185 34.2886C15.9149 33.0778 16.8153 31.7429 18.1192 31.8981C19.9509 32.0223 20.1992 33.9471 19.8577 35.4063C19.6715 36.0272 19.9198 36.586 20.2613 37.1138L20.3234 37.2069C20.4787 37.3932 20.2303 37.6416 20.044 37.5174Z" fill="#7D0006"/>
<path d="M44.881 29.9113C45.3467 32.1156 46.2159 34.1646 47.3025 36.0894C48.265 38.4489 45.7813 40.6842 43.577 40.5911C43.3287 40.5911 43.2976 40.2496 43.515 40.1875C44.912 39.7529 46.1849 38.8215 46.4022 37.3934C46.4954 36.9587 46.3712 36.5862 46.1538 36.2136C45.1293 34.2888 44.5084 32.0845 44.6637 29.9113C44.6637 29.7561 44.881 29.7561 44.881 29.9113Z" fill="#7D0006"/>
<path d="M22.1864 33.2334C21.4724 31.4017 19.9201 29.6632 17.84 29.6942C17.6538 29.6632 17.3433 29.7253 17.157 29.7253C16.6293 29.7563 16.1946 29.9426 15.791 30.3151C13.8041 32.3021 14.1456 35.8102 15.76 38.0145C16.3188 38.7906 17.0328 39.4736 17.84 40.0325C18.6472 40.5913 19.5476 41.0259 20.51 41.3985C20.7273 41.4606 20.6342 41.8021 20.4168 41.771C18.3368 41.3364 16.3498 40.3119 14.9838 38.6044C12.8727 36.0586 12.4381 31.8053 14.9528 29.3217C15.5116 28.825 16.2877 28.4524 17.0639 28.4524C17.3123 28.4524 17.6848 28.3903 17.9332 28.4524C19.2371 28.5145 20.4789 29.1665 21.2861 30.191C22.0002 31.0602 22.4038 32.1158 22.5279 33.1714C22.5279 33.3576 22.2485 33.4197 22.1864 33.2334Z" fill="#7D0006"/>
</g>
<path d="M42.5213 43.6962C40.5344 45.59 36.7778 44.0688 35.7844 41.7714C35.6602 41.492 35.9706 41.2436 36.219 41.3678C36.7468 41.6472 37.2125 41.9266 37.7092 42.1439C39.1373 42.7959 40.6275 43.3237 42.2108 43.1685C42.5213 43.1064 42.7386 43.4789 42.5213 43.6962Z" fill="#7D0006"/>
<path d="M34.7599 30.8745C34.7599 30.9055 34.7599 30.9366 34.7599 30.9366L34.7288 31.8058C34.6978 32.5509 34.0768 33.1098 33.3317 33.0787C32.5866 33.0477 32.0278 32.3957 32.0899 31.6816L32.121 30.8124C32.121 30.6571 32.1831 30.4709 32.2451 30.3467L34.7288 30.4709C34.7288 30.595 34.7599 30.7192 34.7599 30.8745Z" fill="#7D0006"/>
<path d="M47.737 31.5569L47.7059 32.3641C47.6749 33.0471 47.085 33.5748 46.402 33.5438C45.719 33.5127 45.1912 32.9229 45.2222 32.2399L45.2533 31.4327C45.2533 31.2775 45.2843 31.1222 45.3464 30.998L47.6749 31.0912C47.7059 31.2464 47.737 31.4016 47.737 31.5569Z" fill="#7D0006"/>
<path d="M37.8644 26.6207C38.5474 26.7138 39.0752 25.9998 38.8268 25.3168C38.7026 24.9442 38.4853 24.6027 38.1438 24.3854C37.0882 23.7334 33.1454 23.6714 31.0653 25.1616C29.2026 26.5276 34.7598 26.1861 37.8644 26.6207Z" fill="#7D0006"/>
<path d="M46.4641 26.9627C45.9052 26.9627 45.5637 26.2486 45.8431 25.6587C45.9984 25.3483 46.2157 25.0689 46.5262 24.9136C47.4886 24.448 50.0654 24.7274 51.2141 26.3107C52.2386 27.7078 49.0409 26.9316 46.4641 26.9627Z" fill="#7D0006"/>
<path d="M36.7466 30.8739L31.624 30.7808C31.0031 30.7497 31.0342 29.8183 31.6551 29.8494L36.7776 30.2219C37.2123 30.253 37.1812 30.8739 36.7466 30.8739Z" fill="#7D0006"/>
<path d="M49.0411 31.4015L45.2535 31.4636C44.6326 31.4636 44.6015 30.5633 45.2224 30.5322C45.2535 30.5322 45.2535 30.5322 45.2845 30.5322L49.0721 30.9358C49.3515 30.9669 49.3205 31.3705 49.0411 31.4015Z" fill="#7D0006"/>
<path d="M31.0964 5.7586C12.7483 5.38605 10.8856 20.7537 12.0343 29.9122C13.3072 40.0952 19.3921 44.1001 19.3921 44.1001L19.7957 41.3991C19.7957 41.3991 18.3366 40.9024 16.9395 39.8779C12.0964 36.2145 13.5866 29.5396 16.8774 29.1361C20.1683 28.7014 21.5964 31.0919 22.0931 32.3959C23.8317 26.6524 21.3791 25.2243 23.8317 21.1573C31.5 12.8681 36.8398 18.4563 40.5964 19.5429C44.6944 20.6916 47.3954 19.3877 48.9166 17.9285C50.0032 16.873 51.4003 18.8599 51.4003 18.8599C51.4003 18.8599 49.3823 6.13115 31.0964 5.7586Z" fill="#7D0006"/>
<path d="M18.8645 34.1649C18.8645 34.1649 16.3808 33.7924 16.5671 37.2695C16.6602 39.0391 16.6602 40.0015 16.6292 40.4983C16.5982 40.8398 16.8155 41.1502 17.1259 41.2744C17.4985 41.4296 17.9021 41.2744 18.0883 40.9019C18.3678 40.4051 18.6782 39.7221 18.6782 39.1633C18.6782 38.2319 19.6717 37.3937 19.6717 37.3937C19.6717 37.3937 18.7714 36.6175 18.8645 34.1649Z" fill="white"/>
<path d="M18.7713 34.2583C18.7713 34.2894 18.8023 34.3204 18.8333 34.3204C18.8333 34.3204 18.8333 34.3204 18.8023 34.3204H18.7402C17.25 34.4446 16.7843 35.7485 16.8464 37.0835C16.8775 37.9528 16.9396 38.822 16.9085 39.6603C16.9706 40.126 16.6912 40.7469 17.1569 40.9953C17.4363 41.1505 17.8088 41.0263 17.933 40.7158C18.2124 40.157 18.4918 39.5982 18.4918 38.9773C18.616 38.2632 19.0817 37.7044 19.5784 37.2698V37.5181C18.9265 36.8351 18.7713 35.9037 18.6781 35.0345C18.7092 34.8171 18.7092 34.4756 18.7713 34.2583ZM18.9886 34.041C19.0817 34.9103 19.0817 35.8106 19.4543 36.5868C19.5474 36.8041 19.7026 37.0524 19.8889 37.2077C20.0131 37.3008 20.0131 37.4871 19.8889 37.5802C19.4543 37.9838 19.0817 38.4805 19.0196 39.0394C19.0196 39.7224 18.7402 40.3743 18.4298 40.9642C18.1814 41.492 17.4673 41.7714 16.9396 41.4609C16.5981 41.2747 16.3497 40.9021 16.3497 40.4985C16.3497 40.1881 16.3807 39.9397 16.3807 39.6292C16.3807 38.76 16.3186 37.9217 16.2876 37.0524C16.2876 36.4936 16.3186 35.8417 16.567 35.2828C16.8775 34.4136 17.8399 33.8237 18.7713 33.9789C18.8644 33.9789 18.9575 34.01 18.9886 34.041Z" fill="#7D0006"/>
<path d="M18.4609 70.9235C19.4854 66.4529 18.1504 61.4235 17.0017 56.9529C16.536 55.1833 16.0704 53.5069 15.853 52.0477C15.4494 49.5951 15.7289 47.2667 16.7223 45.0935C17.9331 42.3925 17.7468 40.0951 17.7468 40.002L17.1259 40.064C17.1259 40.0951 17.3122 42.3304 16.1635 44.8451C15.139 47.1114 14.8285 49.564 15.2321 52.1408C15.4805 53.631 15.9151 55.3386 16.3808 57.1082C17.5295 61.4856 18.8334 66.4529 17.84 70.7683C17.2811 73.1588 18.3677 77.0706 19.92 80.9823C20.1684 81.0134 20.3857 81.0444 20.6341 81.0755C19.0508 77.1637 17.9331 73.2209 18.4609 70.9235Z" fill="#7D0006"/>
<path d="M16.6602 39.0701C16.6912 39.7531 16.6602 40.2188 16.6602 40.4982C16.6291 40.8397 16.8465 41.1502 17.1569 41.2744C17.5295 41.4296 17.9331 41.2744 18.1193 40.9018C18.3987 40.4051 18.7092 39.7221 18.7092 39.1632C18.7092 39.1322 18.7092 39.0701 18.7092 39.0391C18.0883 39.2874 17.3432 39.4737 16.6602 39.0701Z" fill="white"/>
<path d="M16.7533 39.1947C16.7843 39.6293 16.8154 40.0329 16.8154 40.4676C16.7843 40.6538 16.8464 40.8401 16.9706 40.9953C17.3742 41.3989 17.933 41.1506 18.0882 40.6538C18.3366 40.1571 18.5539 39.6293 18.5539 39.0705L18.7712 39.2257C18.0882 39.3499 17.3742 39.5362 16.7222 39.2568C16.7222 39.2568 16.7533 39.2257 16.7533 39.1947ZM16.598 38.9153C16.6601 38.9153 16.7843 38.9463 16.8464 39.0084C17.4052 39.412 18.1193 39.2257 18.6781 38.9153C18.7712 38.8532 18.9265 38.9463 18.8954 39.0705C18.8644 39.7846 18.585 40.4676 18.2124 41.0885C17.8709 41.5542 17.1569 41.5852 16.7533 41.1816C16.567 40.9953 16.4739 40.6849 16.5049 40.4365C16.5049 39.9087 16.567 39.412 16.598 38.9153Z" fill="#7D0006"/>
<path d="M45.9054 59.7154C46.4332 56.052 45.9365 53.4441 45.7502 52.668C45.657 52.7301 45.5949 52.8232 45.5018 52.8853C45.4087 52.9784 45.3155 53.0405 45.2224 53.1337C45.4087 54.1271 45.7502 56.4866 45.2845 59.6222C45.0672 61.0814 45.0051 63.3788 44.974 66.0487C44.9119 68.6255 44.1048 75.052 43.1423 81.1369C43.3597 81.0748 43.577 81.0127 43.7943 80.9817C44.7567 74.9588 45.5329 68.6565 45.5949 66.0797C45.657 63.4098 45.6881 61.1435 45.9054 59.7154Z" fill="#7D0006"/>
</svg>
