<svg aria-hidden="true" style="position: absolute; width: 0; height: 0; overflow: hidden;" version="1.1"
    xmlns="http://www.w3.org/2000/svg" xmlns:xlink="http://www.w3.org/1999/xlink">
    <defs>
        <symbol id="Instagram" viewBox="0 0 31 32">
            <path fill="#1f2b09" style="fill: var(--color1, #1f2b09)"
                d="M6.919 0.34h17.297c3.821 0 6.919 3.098 6.919 6.919v17.297c0 3.821-3.098 6.919-6.919 6.919h-17.297c-3.821 0-6.919-3.098-6.919-6.919v-17.297c0-3.821 3.098-6.919 6.919-6.919z">
            </path>
            <path fill="#f5ebe2" style="fill: var(--color2, #f5ebe2)"
                d="M7.784 15.908c0-3.109 0-4.664 0.741-5.784 0.331-0.5 0.759-0.928 1.259-1.259 1.12-0.741 2.674-0.741 5.784-0.741s4.664 0 5.784 0.741c0.5 0.331 0.928 0.759 1.259 1.259 0.741 1.12 0.741 2.674 0.741 5.784s0 4.664-0.741 5.784c-0.331 0.5-0.759 0.928-1.259 1.259-1.12 0.741-2.674 0.741-5.784 0.741s-4.664 0-5.784-0.741c-0.5-0.331-0.928-0.759-1.259-1.259-0.741-1.12-0.741-2.674-0.741-5.784zM19.597 15.908c0 2.226-1.804 4.030-4.030 4.030s-4.030-1.804-4.030-4.030 1.804-4.030 4.030-4.030c2.226 0 4.030 1.804 4.030 4.030zM15.567 18.574c1.473 0 2.666-1.194 2.666-2.666s-1.194-2.666-2.666-2.666c-1.473 0-2.666 1.194-2.666 2.666s1.194 2.666 2.666 2.666zM19.756 12.622c0.523 0 0.947-0.424 0.947-0.947s-0.424-0.947-0.947-0.947c-0.523 0-0.947 0.424-0.947 0.947s0.424 0.947 0.947 0.947z">
            </path>
        </symbol>
        <symbol id="Twitter" viewBox="0 0 31 32">
            <path fill="#1f2b09" style="fill: var(--color1, #1f2b09)"
                d="M6.919 0.34h17.297c3.821 0 6.919 3.098 6.919 6.919v17.297c0 3.821-3.098 6.919-6.919 6.919h-17.297c-3.821 0-6.919-3.098-6.919-6.919v-17.297c0-3.821 3.098-6.919 6.919-6.919z">
            </path>
            <path fill="#f5ebe2" style="fill: var(--color2, #f5ebe2)"
                d="M18.186 9.595v-0.003h0.73l0.267 0.053c0.178 0.035 0.339 0.080 0.484 0.136s0.285 0.121 0.421 0.196c0.136 0.075 0.259 0.151 0.369 0.229s0.208 0.158 0.295 0.244c0.086 0.087 0.22 0.109 0.403 0.067s0.379-0.101 0.59-0.175c0.21-0.075 0.419-0.159 0.625-0.252s0.331-0.153 0.376-0.178c0.044-0.026 0.067-0.040 0.070-0.042l0.003-0.004 0.014-0.007 0.042-0.021 0.003-0.004 0.004-0.003 0.004-0.003 0.003-0.004 0.014-0.004 0.014-0.003-0.003 0.021-0.004 0.021-0.014 0.042-0.014 0.028-0.007 0.021c-0.005 0.014-0.009 0.033-0.014 0.056s-0.049 0.117-0.133 0.28-0.189 0.329-0.316 0.498c-0.126 0.168-0.24 0.295-0.34 0.381-0.101 0.087-0.168 0.148-0.201 0.182s-0.072 0.068-0.119 0.098l-0.070 0.046-0.014 0.007-0.014 0.007-0.003 0.004-0.004 0.003-0.004 0.003-0.003 0.004-0.028 0.014-0.003 0.004-0.004 0.003-0.004 0.003-0.006 0.008-0.008 0.006-0.003 0.004h0.070l0.393-0.084c0.262-0.056 0.512-0.124 0.751-0.203l0.442-0.147 0.056-0.028 0.028-0.004 0.028-0.003v0.028l-0.007 0.003-0.007 0.004-0.003 0.004-0.008 0.006-0.003 0.004-0.003 0.004-0.004 0.003-0.004 0.003-0.003 0.004-0.003 0.004-0.004 0.003-0.014 0.028-0.004 0.003c-0.002 0.003-0.061 0.082-0.178 0.238s-0.18 0.236-0.19 0.238c-0.009 0.003-0.022 0.017-0.039 0.042s-0.115 0.13-0.298 0.313-0.361 0.344-0.536 0.486c-0.176 0.143-0.265 0.319-0.267 0.527s-0.014 0.442-0.032 0.704c-0.019 0.262-0.054 0.544-0.105 0.848s-0.131 0.647-0.239 1.030c-0.108 0.383-0.239 0.757-0.393 1.121s-0.316 0.692-0.484 0.981-0.323 0.535-0.463 0.736c-0.14 0.201-0.283 0.39-0.428 0.568s-0.328 0.378-0.55 0.6c-0.223 0.221-0.344 0.343-0.365 0.364s-0.113 0.097-0.275 0.23c-0.161 0.134-0.334 0.267-0.519 0.401-0.184 0.133-0.354 0.243-0.508 0.332s-0.341 0.19-0.559 0.304c-0.217 0.115-0.452 0.221-0.705 0.32s-0.519 0.189-0.8 0.273c-0.281 0.084-0.552 0.15-0.814 0.196s-0.559 0.086-0.891 0.119l-0.498 0.049v0.007h-0.912v-0.007l-0.119-0.007c-0.080-0.005-0.145-0.009-0.197-0.014s-0.246-0.030-0.583-0.077c-0.337-0.047-0.601-0.093-0.793-0.14s-0.477-0.135-0.856-0.266c-0.379-0.131-0.703-0.263-0.973-0.397s-0.437-0.217-0.505-0.252c-0.067-0.035-0.143-0.078-0.227-0.129l-0.126-0.077-0.003-0.004-0.004-0.003-0.004-0.003-0.003-0.004-0.014-0.007-0.014-0.007-0.003-0.004-0.004-0.003-0.004-0.003-0.003-0.004-0.003-0.004-0.004-0.003h-0.007v-0.028l0.014 0.003 0.014 0.004 0.063 0.007c0.042 0.005 0.157 0.012 0.344 0.021s0.386 0.009 0.597 0c0.21-0.009 0.426-0.030 0.646-0.063s0.48-0.089 0.779-0.168c0.3-0.079 0.575-0.174 0.825-0.283s0.428-0.193 0.533-0.247c0.105-0.053 0.265-0.152 0.48-0.297l0.323-0.217 0.003-0.004 0.004-0.003 0.004-0.003 0.003-0.004 0.003-0.004 0.004-0.003 0.004-0.003 0.003-0.004 0.014-0.004 0.014-0.003 0.003-0.014 0.004-0.014 0.004-0.003 0.003-0.004-0.112-0.007c-0.075-0.005-0.147-0.009-0.218-0.014s-0.18-0.026-0.33-0.063c-0.15-0.037-0.311-0.093-0.484-0.168s-0.342-0.164-0.505-0.266c-0.164-0.103-0.282-0.188-0.355-0.257s-0.166-0.163-0.281-0.286c-0.114-0.124-0.213-0.252-0.298-0.383s-0.165-0.282-0.241-0.453l-0.117-0.255-0.014-0.042-0.004-0.014-0.003-0.014 0.021 0.003 0.021 0.004 0.154 0.021c0.103 0.014 0.264 0.019 0.484 0.014s0.372-0.014 0.456-0.028c0.084-0.014 0.136-0.023 0.154-0.028l0.028-0.007 0.070-0.014 0.003-0.004 0.004-0.003 0.004-0.003 0.003-0.004-0.14-0.035c-0.019-0.005-0.051-0.014-0.098-0.028s-0.173-0.065-0.379-0.154c-0.206-0.089-0.37-0.175-0.491-0.259s-0.238-0.177-0.348-0.276c-0.11-0.101-0.23-0.231-0.361-0.39s-0.248-0.343-0.351-0.554c-0.103-0.21-0.18-0.411-0.232-0.603-0.051-0.19-0.085-0.385-0.101-0.582l-0.025-0.294 0.014 0.003 0.014 0.004 0.056 0.028 0.218 0.098c0.145 0.065 0.325 0.121 0.54 0.168s0.344 0.072 0.386 0.077l0.063 0.007h0.126l-0.003-0.004-0.004-0.003-0.004-0.003-0.003-0.004-0.003-0.004-0.004-0.003-0.004-0.003-0.003-0.004-0.014-0.007-0.014-0.007-0.003-0.004-0.004-0.003-0.004-0.003-0.003-0.004-0.014-0.007-0.014-0.007-0.003-0.004c-0.003-0.002-0.043-0.032-0.121-0.090-0.077-0.059-0.157-0.135-0.241-0.229s-0.168-0.192-0.253-0.294c-0.084-0.103-0.16-0.213-0.225-0.329s-0.135-0.265-0.208-0.446c-0.072-0.179-0.127-0.36-0.164-0.543s-0.058-0.362-0.063-0.54c-0.005-0.178 0-0.329 0.014-0.456s0.042-0.269 0.084-0.428c0.042-0.159 0.103-0.327 0.182-0.505l0.119-0.266 0.014-0.042 0.004-0.003 0.003-0.004 0.003-0.004 0.004-0.003 0.004 0.003 0.003 0.004 0.003 0.004 0.004 0.003 0.004 0.003 0.003 0.004 0.003 0.004 0.004 0.003 0.007 0.014 0.007 0.014 0.004 0.003 0.003 0.004 0.19 0.21c0.126 0.14 0.276 0.297 0.449 0.47s0.269 0.263 0.288 0.269c0.019 0.007 0.042 0.029 0.070 0.065 0.028 0.034 0.122 0.117 0.281 0.248s0.367 0.283 0.625 0.456c0.257 0.173 0.543 0.343 0.856 0.512s0.65 0.32 1.011 0.456c0.36 0.136 0.613 0.224 0.758 0.266s0.393 0.096 0.744 0.161c0.351 0.065 0.615 0.107 0.793 0.126s0.3 0.030 0.365 0.032l0.098 0.003-0.003-0.021-0.004-0.021-0.028-0.175c-0.019-0.117-0.028-0.28-0.028-0.491s0.016-0.404 0.049-0.582c0.033-0.178 0.082-0.357 0.147-0.54s0.13-0.328 0.192-0.439c0.064-0.109 0.147-0.234 0.25-0.374s0.236-0.285 0.4-0.435c0.164-0.15 0.351-0.283 0.561-0.399s0.405-0.206 0.583-0.266 0.328-0.101 0.449-0.119c0.122-0.019 0.183-0.029 0.183-0.032z">
            </path>
        </symbol>
        <symbol id="Facebook" viewBox="0 0 31 32">
            <path fill="#1f2b09" style="fill: var(--color1, #1f2b09)"
                d="M6.919 0.34h17.297c3.821 0 6.919 3.098 6.919 6.919v17.297c0 3.821-3.098 6.919-6.919 6.919h-17.297c-3.821 0-6.919-3.098-6.919-6.919v-17.297c0-3.821 3.098-6.919 6.919-6.919z">
            </path>
            <path fill="#f5ebe2" style="fill: var(--color2, #f5ebe2)"
                d="M16.834 23.691v-7.101h2.504l0.375-2.767h-2.878v-1.767c0-0.801 0.234-1.347 1.441-1.347l1.539-0.001v-2.475c-0.266-0.034-1.18-0.109-2.243-0.109-2.219 0-3.739 1.29-3.739 3.658v2.041h-2.51v2.767h2.51v7.101l3.002 0z">
            </path>
        </symbol>
        <symbol id="LinkedIn" viewBox="0 0 31 32">
            <path fill="#1f2b09" style="fill: var(--color1, #1f2b09)"
                d="M6.919 0.34h17.297c3.821 0 6.919 3.098 6.919 6.919v17.297c0 3.821-3.098 6.919-6.919 6.919h-17.297c-3.821 0-6.919-3.098-6.919-6.919v-17.297c0-3.821 3.098-6.919 6.919-6.919z">
            </path>
            <path fill="#f5ebe2" style="fill: var(--color2, #f5ebe2)"
                d="M7.784 10.217c0-0.499 0.175-0.911 0.526-1.236s0.806-0.487 1.367-0.487c0.551 0 0.997 0.16 1.337 0.479 0.351 0.329 0.526 0.759 0.526 1.288 0 0.479-0.17 0.879-0.511 1.198-0.351 0.329-0.811 0.494-1.383 0.494h-0.015c-0.551 0-0.997-0.165-1.337-0.494s-0.511-0.744-0.511-1.243zM7.979 23.321v-10.004h3.336v10.004h-3.336zM13.163 23.321h3.336v-5.586c0-0.349 0.040-0.619 0.12-0.809 0.14-0.339 0.353-0.627 0.639-0.861s0.644-0.352 1.074-0.352c1.122 0 1.683 0.754 1.683 2.261v5.346h3.336v-5.736c0-1.478-0.351-2.598-1.052-3.362s-1.628-1.146-2.78-1.146c-1.292 0-2.299 0.554-3.020 1.662v0.030h-0.015l0.015-0.030v-1.423h-3.336c0.020 0.319 0.030 1.313 0.030 2.98s-0.010 4.009-0.030 7.024z">
            </path>
        </symbol>
        <symbol id="basket" viewBox="0 0 29 32">
            <path stroke-linejoin="round" stroke-linecap="round" stroke-miterlimit="4" stroke-width="2.1818"
                d="M26.182 11.636l-2.902 16.503c-0.118 0.674-0.471 1.285-0.995 1.725s-1.186 0.681-1.871 0.681h-11.738c-0.684 0-1.347-0.241-1.871-0.681s-0.876-1.051-0.995-1.725l-2.902-16.503M27.636 7.273h-8.182M19.455 7.273v-2.909c0-0.772-0.306-1.511-0.852-2.057s-1.286-0.852-2.057-0.852h-4c-0.772 0-1.511 0.306-2.057 0.852s-0.852 1.286-0.852 2.057v2.909M19.455 7.273h-9.818M1.455 7.273h8.182">
            </path>
        </symbol>
    </defs>
</svg>